<svg xmlns="http://www.w3.org/2000/svg"  version="1.1" viewBox="-34 0 512 512.0003" >
<g id="surface1">
<path d="M 358.117188 422.402344 C 355.085938 422.300781 352.046875 422.207031 349.003906 422.117188 L 345.132812 421.996094 L 344.171875 505.210938 L 347.257812 505.160156 C 351.367188 505.089844 355.484375 505.007812 359.589844 504.910156 L 362.574219 504.835938 L 360.960938 422.496094 Z M 358.117188 422.402344 " style=" stroke:none;fill-rule:nonzero;fill:rgb(100%,100%,100%);fill-opacity:1;" />
<path d="M 352.789062 328.375 L 354.9375 293.1875 L 351.851562 293.089844 C 350.988281 293.0625 350.121094 293.042969 349.265625 293.023438 L 346.214844 292.960938 L 342.980469 324.613281 L 342.964844 324.816406 L 342.964844 327.8125 L 345.808594 327.964844 C 347.132812 328.035156 348.464844 328.113281 349.796875 328.195312 Z M 352.789062 328.375 " style=" stroke:none;fill-rule:nonzero;fill:rgb(100%,100%,100%);fill-opacity:1;" />
<path d="M 351.160156 421.113281 L 352.675781 387.800781 L 349.121094 387.71875 C 347.015625 387.671875 344.921875 387.625 342.816406 387.570312 L 340.023438 387.5 L 336.746094 420.714844 L 339.960938 420.808594 C 341.339844 420.847656 342.71875 420.882812 344.09375 420.917969 C 345.46875 420.953125 346.839844 420.988281 348.210938 421.027344 Z M 351.160156 421.113281 " style=" stroke:none;fill-rule:nonzero;fill:rgb(100%,100%,100%);fill-opacity:1;" />
<path d="M 296.640625 385.671875 L 313.703125 385.902344 L 311.230469 381.601562 L 315.207031 327.429688 L 312.125 327.292969 C 310.359375 327.210938 308.597656 327.144531 306.832031 327.074219 L 303.503906 326.941406 L 300.574219 326.820312 L 297.046875 380.902344 L 297.144531 381.332031 C 297.152344 381.355469 297.164062 381.429688 297.152344 381.535156 Z M 296.640625 385.671875 " style=" stroke:none;fill-rule:nonzero;fill:rgb(100%,100%,100%);fill-opacity:1;" />
<path d="M 99.40625 388.765625 L 96.277344 388.871094 C 93.695312 388.957031 91.097656 389.042969 88.503906 389.140625 L 85.429688 389.253906 L 87.546875 422.75 L 102.144531 422.183594 Z M 99.40625 388.765625 " style=" stroke:none;fill-rule:nonzero;fill:rgb(100%,100%,100%);fill-opacity:1;" />
<path d="M 81.585938 424.082031 L 78.644531 424.210938 L 80.671875 505.4375 L 83.644531 505.390625 C 87.378906 505.332031 91.113281 505.28125 94.839844 505.242188 L 98 505.207031 L 92.835938 423.617188 L 89.910156 423.730469 C 87.136719 423.84375 84.363281 423.960938 81.585938 424.082031 Z M 81.585938 424.082031 " style=" stroke:none;fill-rule:nonzero;fill:rgb(100%,100%,100%);fill-opacity:1;" />
<path d="M 66.507812 294.316406 L 70.363281 294.101562 L 69.246094 290.398438 L 63.964844 233.96875 L 51.214844 234.6875 L 55.976562 294.78125 Z M 66.507812 294.316406 " style=" stroke:none;fill-rule:nonzero;fill:rgb(100%,100%,100%);fill-opacity:1;" />
<path d="M 52.804688 389.507812 L 58.699219 389.246094 C 60.679688 389.15625 62.667969 389.066406 64.648438 388.984375 L 68.390625 388.835938 L 67.425781 385.214844 C 67.40625 385.136719 67.378906 385.054688 67.371094 385.015625 L 64.277344 328.53125 L 61.285156 328.695312 C 58.539062 328.84375 55.796875 328.996094 53.058594 329.15625 L 50.105469 329.328125 Z M 52.804688 389.507812 " style=" stroke:none;fill-rule:nonzero;fill:rgb(100%,100%,100%);fill-opacity:1;" />
<path d="M 397.617188 389.203125 C 383.660156 388.683594 368.867188 388.222656 353.65625 387.832031 L 350.714844 387.753906 L 349.203125 421.046875 L 352.25 421.136719 C 367.519531 421.589844 383.078125 422.160156 399.816406 422.875 L 403.234375 423.023438 L 400.261719 389.296875 Z M 397.617188 389.203125 " style=" stroke:none;fill-rule:nonzero;fill:rgb(79.607843%,89.803922%,50.196078%);fill-opacity:1;" />
<path d="M 335.722656 387.410156 C 304.800781 386.738281 273.382812 386.394531 242.339844 386.394531 C 196.230469 386.394531 149.558594 387.148438 103.628906 388.628906 L 100.480469 388.730469 L 103.210938 422.132812 L 106.078125 422.027344 C 151.261719 420.367188 197.128906 419.523438 242.414062 419.523438 C 272.484375 419.523438 302.9375 419.894531 332.933594 420.628906 L 336.230469 420.703125 L 335.996094 417.359375 L 338.964844 387.480469 Z M 335.722656 387.410156 " style=" stroke:none;fill-rule:nonzero;fill:rgb(79.607843%,89.803922%,50.196078%);fill-opacity:1;" />
<path d="M 84.46875 389.292969 C 72.667969 389.71875 60.707031 390.203125 48.914062 390.730469 L 45.699219 390.878906 L 49.21875 421.359375 L 49.21875 424.554688 L 52.371094 424.394531 C 64.554688 423.773438 75.699219 423.25 86.445312 422.796875 L 89.503906 422.667969 L 87.386719 389.183594 Z M 84.46875 389.292969 " style=" stroke:none;fill-rule:nonzero;fill:rgb(79.607843%,89.803922%,50.196078%);fill-opacity:1;" />
<path d="M 356.011719 329.617188 C 343.246094 328.824219 330.210938 328.128906 316.164062 327.480469 L 313.25 327.347656 L 309.273438 381.515625 L 306.652344 385.792969 L 311.910156 385.878906 C 327.058594 386.121094 342.699219 386.460938 358.394531 386.886719 L 361.476562 386.96875 L 361.476562 383.886719 C 361.476562 383.765625 361.46875 383.65625 361.457031 383.550781 L 358.683594 329.78125 Z M 356.011719 329.617188 " style=" stroke:none;fill-rule:nonzero;fill:rgb(68.627451%,47.45098%,47.45098%);fill-opacity:1;" />
<path d="M 65.347656 328.460938 L 68.445312 384.957031 C 68.441406 385.015625 68.425781 385.070312 68.417969 385.125 L 67.660156 388.867188 L 71.476562 388.71875 C 128.019531 386.464844 185.492188 385.320312 242.296875 385.320312 C 259.074219 385.320312 276.070312 385.421875 292.8125 385.621094 L 295.65625 385.652344 L 299.503906 326.777344 L 296.421875 326.660156 C 264.683594 325.453125 232.433594 324.835938 200.574219 324.835938 C 156.628906 324.835938 112.140625 326.003906 68.351562 328.304688 Z M 65.347656 328.460938 " style=" stroke:none;fill-rule:nonzero;fill:rgb(68.627451%,47.45098%,47.45098%);fill-opacity:1;" />
<path d="M 52.058594 329.199219 L 49.015625 329.386719 C 34.238281 330.285156 20.519531 331.226562 7.085938 332.269531 L 4.101562 332.5 L 4.328125 335.484375 C 4.605469 339.175781 4.941406 342.910156 5.265625 346.519531 L 5.332031 347.289062 C 6.257812 357.71875 7.214844 368.503906 7.136719 378.980469 C 7.105469 382.5 7.761719 387.167969 11.070312 389.410156 C 12.882812 390.640625 15.183594 390.933594 17.378906 391.128906 C 19.242188 391.292969 21.140625 391.375 23.1875 391.375 C 27.433594 391.375 31.542969 391.027344 35.894531 390.660156 C 38.632812 390.425781 41.316406 390.203125 44.054688 390.066406 L 44.507812 390.042969 L 44.933594 389.886719 C 45.050781 389.84375 45.105469 389.835938 45.082031 389.835938 L 54.761719 389.410156 Z M 52.058594 329.199219 " style=" stroke:none;fill-rule:nonzero;fill:rgb(68.627451%,47.45098%,47.45098%);fill-opacity:1;" />
<path d="M 402.941406 317.820312 C 402.738281 310.78125 402.523438 303.503906 402.089844 297.328125 L 401.902344 294.640625 L 399.207031 294.539062 C 385.179688 294.023438 370.601562 293.566406 355.878906 293.179688 L 352.980469 293.101562 L 350.832031 328.25 L 355.976562 328.558594 C 357.058594 328.617188 358.140625 328.679688 359.226562 328.753906 C 359.296875 328.757812 359.359375 328.773438 359.433594 328.808594 L 360.0625 329.105469 L 360.757812 329.097656 C 361.339844 329.089844 361.925781 329.085938 362.511719 329.085938 C 368.613281 329.085938 374.964844 329.484375 381.109375 329.871094 C 387.574219 330.28125 393.867188 330.648438 399.8125 330.648438 L 403.375 330.636719 L 403.257812 327.535156 C 403.167969 325.179688 403.089844 322.675781 403.011719 320.082031 Z M 402.941406 317.820312 " style=" stroke:none;fill-rule:nonzero;fill:rgb(96.862745%,70.196078%,43.529412%);fill-opacity:1;" />
<path d="M 149.449219 324.296875 C 166.523438 323.949219 183.839844 323.773438 200.910156 323.773438 C 247.835938 323.773438 295.234375 325.105469 341.789062 327.726562 L 344.957031 327.902344 L 344.957031 324.675781 L 348.179688 293.007812 L 344.9375 292.929688 C 311.558594 292.140625 277.636719 291.742188 244.109375 291.742188 C 213.925781 291.742188 183.351562 292.074219 153.171875 292.714844 L 153.171875 292.707031 L 150.183594 292.769531 C 150.179688 292.769531 150.175781 292.769531 150.171875 292.769531 L 147.171875 292.835938 L 147.171875 292.839844 C 133.886719 293.132812 120.242188 293.496094 106.535156 293.929688 L 103.421875 294.03125 L 105.605469 325.5625 L 108.507812 325.457031 C 122.238281 324.957031 136 324.566406 149.421875 324.300781 Z M 149.449219 324.296875 " style=" stroke:none;fill-rule:nonzero;fill:rgb(96.862745%,70.196078%,43.529412%);fill-opacity:1;" />
<path d="M 211.371094 19.042969 L 189.253906 26.824219 L 189.277344 28.972656 C 189.523438 51.148438 196.152344 73.6875 207.949219 92.4375 L 208.570312 93.425781 L 209.695312 93.730469 C 212.382812 94.46875 215.160156 95.003906 217.949219 95.320312 L 223.835938 95.992188 L 220.890625 90.847656 C 219.222656 87.933594 217.898438 83.65625 216.714844 79.460938 L 216.640625 79.203125 C 216.433594 78.476562 216.257812 77.859375 216.105469 77.371094 C 214.335938 71.789062 213.351562 66.710938 213.101562 61.84375 L 213.046875 60.785156 L 212.339844 59.996094 C 212.25 59.894531 212.222656 59.839844 212.21875 59.835938 C 207.53125 48.757812 206.699219 36.226562 209.871094 24.554688 Z M 211.371094 19.042969 " style=" stroke:none;fill-rule:nonzero;fill:rgb(96.862745%,70.196078%,43.529412%);fill-opacity:1;" />
<path d="M 104.539062 325.609375 L 101.449219 325.730469 C 96.808594 325.910156 92.175781 326.097656 87.546875 326.308594 L 85.226562 326.410156 L 83.117188 326.507812 L 77.808594 326.769531 L 73.117188 327 L 73.117188 326.988281 C 67.105469 327.289062 60.789062 327.640625 53.847656 328.039062 L 51.015625 328.210938 L 47.316406 296.21875 L 50.527344 296.070312 C 60.476562 295.621094 71.328125 295.179688 83.726562 294.71875 L 86.207031 294.628906 L 86.21875 294.609375 L 88.175781 294.550781 C 88.808594 294.527344 89.449219 294.507812 90.085938 294.480469 C 90.746094 294.460938 91.398438 294.429688 92.058594 294.410156 L 94.316406 294.339844 L 96.355469 294.257812 C 97.289062 294.230469 98.21875 294.199219 99.136719 294.167969 L 102.347656 294.078125 Z M 104.539062 325.609375 " style=" stroke:none;fill-rule:nonzero;fill:rgb(96.862745%,70.196078%,43.529412%);fill-opacity:1;" />
<path d="M 440.019531 501.414062 L 439.808594 498.410156 C 439.0625 487.710938 438.160156 476.898438 437.285156 466.449219 L 437.109375 464.34375 C 436.125 452.511719 435.101562 440.28125 434.308594 428.210938 L 434.136719 425.550781 L 431.472656 425.414062 C 413.101562 424.464844 394.25 423.644531 375.445312 422.96875 L 372.664062 422.871094 L 372.664062 422.886719 L 371.414062 422.839844 C 370.0625 422.789062 368.714844 422.742188 367.367188 422.699219 L 362.035156 422.519531 L 363.648438 504.824219 L 375.597656 504.503906 L 375.597656 504.492188 L 376.507812 504.464844 C 398.054688 503.816406 417.847656 502.878906 437.015625 501.609375 Z M 440.019531 501.414062 " style=" stroke:none;fill-rule:nonzero;fill:rgb(92.941176%,42.745098%,40%);fill-opacity:1;" />
<path d="M 216.390625 505.089844 C 241.777344 505.335938 268.023438 505.585938 294.15625 505.585938 C 310.789062 505.585938 325.839844 505.484375 340.171875 505.277344 L 343.09375 505.238281 L 344.0625 421.988281 L 341.109375 421.910156 C 308.40625 421.039062 275.207031 420.597656 242.4375 420.597656 C 194.078125 420.597656 145.136719 421.558594 96.96875 423.453125 L 93.898438 423.574219 L 98.878906 502.03125 L 98.878906 505.183594 L 101.914062 505.148438 C 128.660156 504.847656 153.828125 504.6875 161.714844 504.6875 L 162.878906 504.6875 C 169.414062 504.710938 175.949219 504.730469 182.488281 504.789062 C 193.402344 504.867188 204.308594 504.972656 215.214844 505.078125 Z M 216.390625 505.089844 " style=" stroke:none;fill-rule:nonzero;fill:rgb(92.941176%,42.745098%,40%);fill-opacity:1;" />
<path d="M 130.554688 86.710938 C 117.25 104.929688 113.765625 130.53125 121.226562 155.199219 C 127.453125 175.777344 140.832031 195.574219 160.980469 214.03125 C 165.5 218.175781 170.484375 222.351562 176.300781 224.839844 C 179.625 226.257812 183.117188 227.003906 186.390625 227.003906 C 189.269531 227.003906 191.9375 226.449219 194.328125 225.351562 C 197.320312 223.964844 199.9375 221.726562 202.484375 219.542969 C 206.414062 216.195312 210.128906 213.03125 215.105469 212.546875 C 215.527344 212.503906 215.957031 212.484375 216.375 212.484375 C 222 212.484375 226.753906 216.09375 231.34375 219.585938 C 233.824219 221.476562 235.898438 223.023438 238.125 224.273438 C 242.226562 226.578125 247.152344 227.796875 252.378906 227.796875 C 257.003906 227.796875 261.847656 226.832031 266.386719 225 C 274.265625 221.824219 281.699219 216.246094 289.777344 207.449219 C 304.042969 191.898438 313.625 173.953125 317.484375 155.554688 C 321.703125 135.40625 318.757812 114.417969 309.40625 97.976562 C 299.386719 80.34375 281.496094 67.707031 262.671875 64.972656 L 262.550781 64.945312 L 260.542969 64.632812 L 259.476562 66.203125 C 254.417969 73.640625 248.167969 80.144531 240.878906 85.546875 C 240.429688 85.882812 239.882812 86.300781 239.242188 86.792969 C 238.925781 87.039062 238.609375 87.277344 238.296875 87.515625 L 241.078125 92.746094 C 247.941406 90.394531 254.347656 86.652344 259.609375 81.914062 C 259.710938 81.820312 259.832031 81.773438 259.96875 81.773438 C 260.074219 81.773438 260.230469 81.804688 260.363281 81.949219 C 260.5625 82.171875 260.546875 82.515625 260.328125 82.710938 C 250.976562 91.144531 238.390625 96.246094 225.8125 96.710938 C 225.183594 96.730469 224.554688 96.738281 223.925781 96.738281 C 211.957031 96.738281 199.714844 92.546875 190.332031 85.234375 C 190.195312 85.128906 190.152344 84.992188 190.140625 84.894531 C 190.128906 84.792969 190.136719 84.640625 190.246094 84.5 C 190.394531 84.3125 190.597656 84.292969 190.675781 84.292969 C 190.796875 84.292969 190.90625 84.332031 191.003906 84.40625 C 193.296875 86.1875 195.808594 87.816406 198.46875 89.242188 L 207.113281 93.878906 L 202.539062 85.199219 C 199.59375 79.609375 197.050781 73.722656 194.980469 67.703125 L 194.523438 66.375 L 193.210938 65.875 C 188.03125 63.90625 182.449219 62.90625 176.613281 62.90625 C 158.9375 62.910156 141.289062 72.027344 130.554688 86.710938 Z M 130.554688 86.710938 " style=" stroke:none;fill-rule:nonzero;fill:rgb(92.941176%,42.745098%,40%);fill-opacity:1;" />
<path d="M 68.382812 424.691406 L 68.382812 424.679688 L 65.414062 424.824219 C 45.449219 425.777344 25.847656 426.871094 7.15625 428.0625 L 4.105469 428.257812 L 4.355469 431.304688 C 6.167969 453.34375 8.378906 479.296875 11.035156 504.679688 L 11.34375 507.660156 L 14.324219 507.351562 C 21.128906 506.65625 37.316406 506.128906 66.804688 505.636719 L 67.550781 505.625 L 67.550781 505.632812 L 79.601562 505.441406 L 77.570312 424.257812 Z M 68.382812 424.691406 " style=" stroke:none;fill-rule:nonzero;fill:rgb(92.941176%,42.745098%,40%);fill-opacity:1;" />
<path d="M 363.097656 292.308594 L 363.097656 289.230469 C 363.097656 289.109375 363.089844 289 363.082031 288.890625 L 360.304688 235.121094 L 357.632812 234.957031 C 341.933594 233.988281 325.984375 233.160156 310.222656 232.492188 L 307.316406 232.371094 L 303.042969 291.074219 L 306.222656 291.121094 C 324.101562 291.378906 342.203125 291.75 360.015625 292.226562 Z M 363.097656 292.308594 " style=" stroke:none;fill-rule:nonzero;fill:rgb(97.647059%,84.705882%,53.72549%);fill-opacity:1;" />
<path d="M 65.03125 233.910156 L 70.304688 290.304688 C 70.300781 290.34375 70.292969 290.382812 70.28125 290.421875 L 69.476562 294.199219 L 73.335938 294.046875 C 129.714844 291.808594 187.046875 290.671875 243.742188 290.671875 C 262.136719 290.671875 280.773438 290.792969 299.136719 291.027344 L 301.960938 291.066406 L 306.253906 232.328125 L 303.15625 232.203125 C 269.765625 230.863281 235.832031 230.183594 202.289062 230.183594 C 157.710938 230.183594 112.578125 231.382812 68.144531 233.742188 Z M 193.816406 254.238281 L 192.117188 254.765625 L 191.910156 251.007812 C 192.53125 252.089844 193.167969 253.167969 193.816406 254.238281 Z M 193.816406 254.238281 " style=" stroke:none;fill-rule:nonzero;fill:rgb(97.647059%,84.705882%,53.72549%);fill-opacity:1;" />
<path d="M 47.203125 234.957031 C 33.382812 235.804688 20.789062 236.675781 8.707031 237.605469 L 5.71875 237.835938 L 5.945312 240.824219 C 6.238281 244.707031 6.589844 248.601562 6.929688 252.363281 L 6.957031 252.667969 C 7.878906 263.082031 8.835938 273.851562 8.757812 284.320312 C 8.726562 287.835938 9.382812 292.496094 12.703125 294.757812 C 14.523438 295.980469 16.8125 296.273438 19 296.464844 C 20.863281 296.632812 22.761719 296.710938 24.804688 296.710938 C 29.058594 296.710938 33.167969 296.363281 37.523438 295.996094 C 40.261719 295.761719 42.945312 295.539062 45.675781 295.402344 L 46.128906 295.378906 L 46.554688 295.226562 C 46.667969 295.183594 46.722656 295.171875 46.695312 295.171875 C 46.695312 295.171875 46.695312 295.171875 46.691406 295.171875 C 48.394531 295.105469 50.105469 295.035156 51.808594 294.953125 L 54.902344 294.804688 L 50.144531 234.769531 Z M 47.203125 234.957031 " style=" stroke:none;fill-rule:nonzero;fill:rgb(97.647059%,84.705882%,53.72549%);fill-opacity:1;" />
<path d="M 271.761719 26.160156 L 271.761719 26.128906 C 272.015625 21.351562 271.847656 16.585938 271.265625 11.964844 L 270.453125 5.519531 L 266.710938 9.617188 L 264.503906 6.457031 C 258.714844 8.84375 251.929688 11.769531 245.492188 15.371094 L 245.160156 15.558594 L 245.140625 15.480469 L 243.550781 16.457031 L 243.414062 16.535156 L 243.414062 16.542969 L 241.785156 17.542969 C 239.441406 18.984375 237.410156 20.351562 235.582031 21.71875 C 234.121094 22.8125 232.699219 23.980469 231.335938 25.1875 L 231.269531 24.894531 L 227.386719 28.957031 C 222.882812 33.675781 219.457031 38.800781 217.210938 44.183594 L 216.785156 45.203125 L 218.707031 51.234375 L 214.925781 51.445312 L 214.894531 51.59375 C 214.777344 52.191406 214.660156 52.777344 214.574219 53.355469 C 213.472656 60.390625 214.304688 68.144531 217.117188 77.023438 C 217.285156 77.570312 217.5 78.3125 217.742188 79.171875 C 218.988281 83.554688 220.144531 86.90625 221.191406 89.136719 L 223.523438 94.105469 L 223.308594 95.03125 L 223.839844 94.78125 L 224.847656 96.933594 L 225.546875 93.976562 L 228.90625 92.394531 C 231.195312 91.320312 234.371094 89.203125 238.613281 85.933594 C 238.613281 85.933594 239.90625 84.941406 240.261719 84.671875 C 243.445312 82.320312 246.507812 79.667969 249.367188 76.785156 L 247.285156 73.542969 L 254.734375 70.792969 L 255.257812 70.132812 C 258.328125 66.261719 261.015625 62.109375 263.238281 57.804688 C 264.886719 54.628906 266.351562 51.1875 267.59375 47.566406 L 269.804688 41.128906 L 269.449219 41.285156 C 270.339844 37.769531 271 34.191406 271.390625 30.628906 L 271.652344 28.238281 L 271.652344 28.222656 L 271.882812 26.128906 Z M 271.761719 26.160156 " style=" stroke:none;fill-rule:nonzero;fill:rgb(58.039216%,77.647059%,40.784314%);fill-opacity:1;" />
<path d="M 441.261719 465.171875 C 440.15625 451.941406 439.007812 438.261719 438.167969 424.816406 C 438.054688 423.023438 436.617188 421.601562 434.824219 421.507812 C 425.578125 421.023438 416.328125 420.582031 407.066406 420.167969 L 404.277344 388.46875 C 404.121094 386.691406 402.667969 385.3125 400.886719 385.246094 C 389.105469 384.808594 377.300781 384.433594 365.488281 384.09375 C 365.519531 383.871094 365.535156 383.644531 365.523438 383.414062 L 362.933594 333.160156 C 368.757812 333.175781 374.882812 333.558594 380.855469 333.933594 C 387.066406 334.324219 393.449219 334.722656 399.59375 334.722656 C 401.101562 334.722656 402.59375 334.699219 404.066406 334.644531 C 405.007812 334.609375 405.898438 334.199219 406.539062 333.507812 C 407.175781 332.8125 407.511719 331.890625 407.464844 330.949219 C 407.289062 327.152344 407.164062 322.808594 407.027344 318.210938 C 406.777344 309.675781 406.519531 300.851562 405.902344 293.808594 C 405.746094 292.035156 404.292969 290.652344 402.511719 290.585938 C 390.726562 290.148438 378.925781 289.773438 367.113281 289.4375 C 367.144531 289.214844 367.15625 288.988281 367.144531 288.753906 L 364.347656 234.441406 C 364.253906 232.648438 362.832031 231.210938 361.039062 231.097656 C 331.347656 229.21875 301.550781 227.871094 271.703125 227.050781 C 278.773438 223.496094 285.558594 218.0625 292.773438 210.203125 C 307.535156 194.121094 317.457031 175.511719 321.464844 156.394531 C 325.890625 135.292969 322.785156 113.265625 312.949219 95.964844 C 302.785156 78.097656 284.960938 65.066406 265.925781 61.410156 C 266.242188 60.832031 266.558594 60.25 266.859375 59.664062 C 275.796875 42.378906 278.292969 21.617188 273.703125 2.703125 C 273.460938 1.703125 272.796875 0.859375 271.882812 0.390625 C 270.96875 -0.078125 269.898438 -0.128906 268.945312 0.257812 C 256.730469 5.183594 244.101562 10.277344 233.148438 18.457031 C 223.109375 25.953125 215.984375 35.214844 212.5 45.101562 C 211.429688 36.402344 212.570312 27.386719 215.945312 19.386719 C 216.492188 18.097656 216.222656 16.609375 215.265625 15.589844 C 214.304688 14.566406 212.839844 14.210938 211.515625 14.675781 L 187.566406 23.097656 C 186.164062 23.589844 185.222656 24.90625 185.207031 26.394531 C 185.082031 37.839844 186.617188 49.359375 189.628906 60.484375 C 167.707031 54.835938 141.800781 64.433594 127.273438 84.3125 C 113.21875 103.554688 109.5 130.496094 117.332031 156.382812 C 123.773438 177.667969 137.535156 198.074219 158.230469 217.03125 C 161.863281 220.359375 165.796875 223.710938 170.253906 226.324219 C 114.988281 227.023438 59.753906 229.507812 4.878906 233.824219 C 2.949219 233.976562 1.5 235.652344 1.628906 237.585938 C 1.972656 242.625 2.429688 247.761719 2.875 252.730469 C 3.804688 263.148438 4.769531 273.917969 4.6875 284.292969 C 4.636719 290.765625 6.617188 295.542969 10.414062 298.121094 C 13.027344 299.894531 16.03125 300.289062 18.640625 300.523438 C 20.707031 300.707031 22.742188 300.78125 24.753906 300.78125 C 29.234375 300.78125 33.597656 300.410156 37.863281 300.050781 C 39.746094 299.890625 41.679688 299.742188 43.613281 299.609375 L 46.601562 325.457031 C 32.132812 326.34375 17.683594 327.347656 3.257812 328.484375 C 1.328125 328.636719 -0.121094 330.3125 0.0078125 332.246094 C 0.347656 337.28125 0.808594 342.414062 1.253906 347.378906 C 2.183594 357.800781 3.144531 368.574219 3.066406 378.953125 C 3.011719 385.421875 4.992188 390.203125 8.789062 392.777344 C 11.410156 394.554688 14.414062 394.949219 17.019531 395.179688 C 19.085938 395.363281 21.121094 395.4375 23.132812 395.4375 C 27.613281 395.4375 31.972656 395.070312 36.234375 394.710938 C 38.121094 394.550781 40.054688 394.398438 41.992188 394.269531 L 45.171875 421.785156 C 31.203125 422.527344 17.242188 423.332031 3.308594 424.234375 C 2.363281 424.296875 1.480469 424.734375 0.859375 425.453125 C 0.242188 426.167969 -0.0664062 427.105469 0.0117188 428.050781 C 2.019531 452.507812 4.410156 480.941406 7.382812 508.839844 C 7.578125 510.644531 9.101562 512 10.894531 512 C 10.960938 512 11.023438 512 11.085938 511.996094 C 11.621094 511.964844 12.117188 511.820312 12.558594 511.585938 C 22.867188 509.683594 145.917969 508.71875 162.867188 508.757812 C 169.394531 508.777344 175.925781 508.804688 182.453125 508.855469 C 193.699219 508.945312 204.933594 509.050781 216.167969 509.160156 C 289.714844 509.867188 365.761719 510.59375 440.824219 505.441406 C 442.769531 505.304688 444.238281 503.625 444.109375 501.679688 C 443.292969 489.464844 442.261719 477.113281 441.261719 465.171875 Z M 397.507812 392.195312 L 399.945312 419.875 C 384.089844 419.199219 368.222656 418.609375 352.335938 418.140625 L 353.578125 390.828125 C 368.242188 391.210938 382.886719 391.664062 397.507812 392.195312 Z M 311.953125 382.878906 C 312.117188 382.613281 312.226562 382.3125 312.25 381.984375 L 316.023438 330.476562 C 329.308594 331.089844 342.578125 331.792969 355.824219 332.613281 L 358.460938 383.777344 C 358.464844 383.816406 358.476562 383.851562 358.480469 383.890625 C 342.992188 383.46875 327.480469 383.132812 311.953125 382.878906 Z M 349.535156 390.734375 L 348.296875 418.03125 C 345.546875 417.953125 342.796875 417.886719 340.046875 417.8125 L 342.742188 390.574219 C 345.007812 390.625 347.269531 390.675781 349.535156 390.734375 Z M 333.003906 417.628906 C 257.410156 415.78125 181.539062 416.25 105.964844 419.035156 L 103.722656 391.628906 C 180.863281 389.140625 258.472656 388.726562 335.652344 390.40625 L 333.003906 417.199219 C 332.988281 417.34375 333 417.484375 333.003906 417.628906 Z M 71.351562 385.714844 C 71.417969 385.417969 71.457031 385.109375 71.4375 384.792969 L 68.503906 331.300781 C 144.289062 327.320312 220.511719 326.773438 296.308594 329.65625 L 292.851562 382.621094 C 218.996094 381.753906 144.898438 382.789062 71.351562 385.714844 Z M 98.890625 419.308594 C 96.046875 419.417969 93.203125 419.527344 90.355469 419.644531 L 88.621094 392.136719 C 91.296875 392.039062 93.972656 391.949219 96.648438 391.855469 Z M 88.261719 297.488281 C 92.046875 297.394531 95.914062 297.464844 99.578125 297.160156 C 99.828125 305.628906 100.519531 314.277344 101.332031 322.726562 C 101.324219 322.671875 89.710938 323.167969 87.820312 323.28125 C 84.828125 323.460938 53.828125 326.011719 53.667969 325.050781 C 53.667969 325.050781 50.667969 299.074219 50.667969 299.074219 C 50.792969 300.105469 82.859375 297.746094 85.445312 297.597656 C 86.375 297.546875 87.316406 297.511719 88.261719 297.488281 Z M 61.445312 331.691406 L 64.378906 385.179688 C 64.394531 385.460938 64.453125 385.730469 64.53125 385.992188 C 61.574219 386.113281 58.621094 386.246094 55.667969 386.375 L 53.234375 332.148438 C 55.96875 331.984375 58.707031 331.84375 61.445312 331.691406 Z M 84.582031 392.289062 L 86.320312 419.800781 C 74.945312 420.28125 63.578125 420.820312 52.21875 421.402344 C 52.214844 421.332031 52.222656 421.265625 52.214844 421.191406 L 49.042969 393.730469 C 60.875 393.195312 72.722656 392.722656 84.582031 392.289062 Z M 308.480469 382.832031 C 305.660156 382.789062 302.84375 382.753906 300.023438 382.71875 L 300.128906 381.898438 C 300.179688 381.46875 300.15625 381.050781 300.0625 380.65625 L 303.375 329.9375 C 306.246094 330.054688 309.117188 330.15625 311.988281 330.285156 L 308.21875 381.6875 C 308.191406 382.101562 308.289062 382.496094 308.480469 382.832031 Z M 108.398438 322.457031 L 106.628906 296.929688 C 185.871094 294.394531 265.613281 294.058594 344.863281 295.925781 L 341.953125 324.511719 C 341.945312 324.585938 341.953125 324.65625 341.953125 324.726562 C 264.421875 320.367188 186.261719 319.613281 108.398438 322.457031 Z M 345.960938 324.964844 C 345.964844 324.949219 345.96875 324.933594 345.972656 324.917969 L 348.914062 296.019531 C 349.859375 296.042969 350.808594 296.0625 351.753906 296.085938 L 349.976562 325.199219 C 348.640625 325.121094 347.300781 325.042969 345.960938 324.964844 Z M 399.097656 297.535156 C 399.535156 303.804688 399.75 311.214844 399.960938 318.417969 C 400.054688 321.652344 400.144531 324.757812 400.253906 327.652344 C 394.117188 327.667969 387.621094 327.273438 381.296875 326.878906 C 374.464844 326.449219 367.425781 326.007812 360.71875 326.101562 C 360.320312 325.910156 359.882812 325.785156 359.414062 325.757812 C 357.617188 325.640625 355.808594 325.546875 354.007812 325.4375 L 355.792969 296.183594 C 370.25 296.558594 384.6875 297.011719 399.097656 297.535156 Z M 310.101562 235.484375 C 325.90625 236.164062 341.691406 236.976562 357.449219 237.953125 L 360.085938 289.117188 C 360.085938 289.15625 360.097656 289.191406 360.101562 289.230469 C 342.179688 288.746094 324.230469 288.382812 306.261719 288.121094 Z M 266.269531 41.648438 C 266.0625 41.667969 265.855469 41.710938 265.652344 41.796875 L 240.871094 52.550781 C 243.714844 46.765625 246.886719 41.144531 250.363281 35.710938 L 268.410156 30.296875 C 267.984375 34.128906 267.265625 37.929688 266.269531 41.648438 Z M 231.320312 76.226562 C 233.296875 70.042969 235.621094 63.988281 238.265625 58.085938 L 264.753906 46.589844 C 263.597656 49.964844 262.214844 53.257812 260.582031 56.417969 C 258.425781 60.585938 255.84375 64.558594 252.90625 68.273438 Z M 247.238281 74.667969 C 244.519531 77.40625 241.59375 79.957031 238.476562 82.261719 C 237.996094 82.617188 237.425781 83.054688 236.785156 83.550781 C 232.730469 86.675781 229.683594 88.707031 227.628906 89.675781 C 228.300781 86.789062 229.019531 83.917969 229.835938 81.078125 Z M 268.761719 25.972656 L 253.871094 30.441406 C 258.25 24.109375 263.0625 18.0625 268.285156 12.335938 C 268.855469 16.847656 269.011719 21.417969 268.761719 25.972656 Z M 265.648438 9.230469 C 259.992188 15.398438 254.800781 21.9375 250.097656 28.796875 L 246.953125 17.988281 C 252.945312 14.644531 259.292969 11.847656 265.648438 9.230469 Z M 237.378906 24.121094 C 239.304688 22.683594 241.308594 21.359375 243.359375 20.097656 L 247.171875 33.207031 C 243.761719 38.511719 240.640625 43.992188 237.820312 49.628906 L 232.964844 27.734375 C 234.355469 26.492188 235.824219 25.28125 237.378906 24.121094 Z M 229.554688 31.027344 L 234.992188 55.539062 C 232.550781 60.90625 230.375 66.398438 228.476562 71.996094 L 219.972656 45.339844 C 222.082031 40.3125 225.324219 35.472656 229.554688 31.027344 Z M 217.535156 53.816406 C 217.628906 53.21875 217.746094 52.625 217.871094 52.03125 L 226.355469 78.648438 C 225.457031 81.691406 224.640625 84.765625 223.902344 87.859375 C 223.074219 86.089844 221.992188 83.175781 220.628906 78.351562 C 220.375 77.464844 220.160156 76.710938 219.984375 76.148438 C 217.304688 67.6875 216.507812 60.382812 217.535156 53.816406 Z M 206.972656 23.765625 C 203.644531 36.015625 204.472656 49.234375 209.453125 61.007812 C 209.613281 61.386719 209.84375 61.710938 210.105469 61.996094 C 210.363281 67.0625 211.398438 72.453125 213.246094 78.28125 C 213.40625 78.789062 213.597656 79.472656 213.824219 80.277344 C 215.117188 84.851562 216.476562 89.175781 218.289062 92.34375 C 215.660156 92.042969 213.046875 91.542969 210.488281 90.835938 C 198.941406 72.480469 192.511719 50.628906 192.273438 28.933594 Z M 163.003906 211.816406 C 143.257812 193.726562 130.167969 174.386719 124.097656 154.332031 C 116.90625 130.558594 120.222656 105.945312 132.980469 88.484375 C 146.820312 69.546875 172.175781 61.089844 192.144531 68.683594 C 194.265625 74.851562 196.851562 80.851562 199.886719 86.597656 C 197.410156 85.273438 195.046875 83.753906 192.84375 82.035156 C 191.300781 80.839844 189.082031 81.117188 187.882812 82.652344 C 186.683594 84.195312 186.960938 86.414062 188.5 87.613281 C 198.46875 95.375 211.277344 99.742188 223.929688 99.742188 C 224.585938 99.742188 225.246094 99.726562 225.90625 99.707031 C 239.1875 99.222656 252.464844 93.839844 262.332031 84.933594 C 263.785156 83.625 263.898438 81.390625 262.589844 79.941406 C 261.28125 78.492188 259.046875 78.378906 257.597656 79.6875 C 252.578125 84.214844 246.554688 87.695312 240.105469 89.910156 C 240.4375 89.660156 240.769531 89.40625 241.101562 89.148438 C 241.699219 88.6875 242.234375 88.277344 242.679688 87.945312 C 250.210938 82.371094 256.757812 75.539062 261.957031 67.886719 C 262.019531 67.898438 262.082031 67.921875 262.148438 67.933594 C 280.09375 70.5 297.203125 82.582031 306.800781 99.460938 C 315.796875 115.28125 318.621094 135.503906 314.546875 154.941406 C 310.796875 172.820312 301.464844 190.273438 287.5625 205.421875 C 279.808594 213.871094 272.722656 219.210938 265.265625 222.214844 C 256.273438 225.84375 246.675781 225.636719 239.597656 221.664062 C 237.453125 220.460938 235.371094 218.878906 233.164062 217.199219 C 228.007812 213.285156 222.160156 208.847656 214.820312 209.558594 C 208.882812 210.136719 204.632812 213.765625 200.519531 217.277344 C 198.019531 219.417969 195.65625 221.433594 193.070312 222.628906 C 188.699219 224.640625 183.015625 224.441406 177.472656 222.078125 C 172.09375 219.78125 167.339844 215.789062 163.003906 211.816406 Z M 233.691406 226.308594 C 222.753906 226.175781 211.8125 226.105469 200.867188 226.109375 C 202.347656 225.011719 203.742188 223.824219 205.113281 222.652344 C 208.542969 219.722656 211.78125 216.957031 215.5 216.59375 C 220.089844 216.148438 224.363281 219.394531 228.886719 222.828125 C 230.4375 224.007812 232.035156 225.207031 233.691406 226.308594 Z M 303.035156 235.203125 L 299.183594 288.023438 C 223.847656 287.058594 148.246094 288.066406 73.222656 291.046875 C 73.289062 290.71875 73.324219 290.378906 73.292969 290.023438 L 68.3125 236.742188 C 146.398438 232.585938 224.953125 232.074219 303.035156 235.203125 Z M 61.25 237.132812 L 66.253906 290.683594 C 66.273438 290.902344 66.316406 291.117188 66.375 291.324219 C 63.828125 291.429688 61.285156 291.546875 58.738281 291.65625 L 54.441406 237.511719 C 56.710938 237.378906 58.980469 237.261719 61.25 237.132812 Z M 46.558594 292.183594 C 46.199219 292.203125 45.855469 292.289062 45.527344 292.40625 C 42.722656 292.550781 39.949219 292.777344 37.265625 293.007812 C 31.121094 293.527344 25.3125 294.019531 19.265625 293.480469 C 17.460938 293.320312 15.597656 293.09375 14.378906 292.269531 C 12.054688 290.691406 11.738281 286.628906 11.753906 284.347656 C 11.839844 273.628906 10.859375 262.683594 9.914062 252.101562 C 9.578125 248.320312 9.230469 244.4375 8.9375 240.597656 C 21.734375 239.609375 34.554688 238.734375 47.386719 237.945312 L 51.671875 291.960938 C 49.96875 292.039062 48.261719 292.105469 46.558594 292.183594 Z M 44.933594 386.84375 C 44.578125 386.859375 44.234375 386.945312 43.902344 387.066406 C 41.09375 387.210938 38.320312 387.4375 35.636719 387.664062 C 29.492188 388.183594 23.683594 388.675781 17.640625 388.136719 C 15.839844 387.976562 13.976562 387.753906 12.757812 386.925781 C 10.429688 385.347656 10.113281 381.289062 10.132812 379.007812 C 10.21875 368.285156 9.238281 357.335938 8.292969 346.75 C 7.957031 342.972656 7.609375 339.09375 7.3125 335.257812 C 21.253906 334.179688 35.21875 333.226562 49.203125 332.382812 L 51.632812 386.550781 C 49.398438 386.648438 47.164062 386.742188 44.933594 386.84375 Z M 70.824219 502.574219 C 71.417969 495.75 71.359375 488.855469 70.644531 482.046875 C 70.199219 477.785156 69.128906 472.5625 64.824219 470 C 61.683594 468.132812 57.457031 468.488281 54.769531 470.84375 C 51.964844 473.300781 51.207031 477.707031 53.042969 480.871094 C 54.957031 484.179688 59.4375 485.585938 62.816406 483.949219 C 63.820312 483.460938 64.238281 482.253906 63.753906 481.25 C 63.265625 480.246094 62.058594 479.828125 61.054688 480.3125 C 59.554688 481.039062 57.402344 480.339844 56.539062 478.84375 C 55.667969 477.34375 56.078125 475.070312 57.433594 473.878906 C 58.820312 472.667969 61.109375 472.492188 62.757812 473.472656 C 65.523438 475.117188 66.277344 479.144531 66.628906 482.46875 C 67.332031 489.160156 67.371094 495.9375 66.761719 502.640625 C 34.226562 503.183594 20.265625 503.730469 14.019531 504.367188 C 11.375 479.101562 9.203125 453.539062 7.351562 431.058594 C 26.71875 429.820312 46.125 428.75 65.554688 427.820312 L 66.613281 446.128906 C 66.757812 448.628906 66.90625 451.210938 66.386719 453.574219 C 65.863281 455.945312 64.644531 457.839844 63.046875 458.777344 C 61.863281 459.472656 60.320312 459.59375 58.816406 459.113281 C 57.3125 458.632812 56.125 457.640625 55.5625 456.386719 C 54.996094 455.136719 55.039062 453.589844 55.675781 452.144531 C 56.3125 450.699219 57.425781 449.625 58.730469 449.195312 C 59.789062 448.847656 60.367188 447.707031 60.019531 446.648438 C 59.671875 445.589844 58.535156 445.015625 57.46875 445.359375 C 55.078125 446.144531 53.074219 448.023438 51.976562 450.515625 C 50.878906 453.007812 50.84375 455.753906 51.878906 458.046875 C 52.914062 460.34375 54.992188 462.132812 57.585938 462.960938 C 58.589844 463.28125 59.617188 463.4375 60.621094 463.4375 C 62.214844 463.4375 63.757812 463.042969 65.089844 462.261719 C 67.65625 460.757812 69.566406 457.910156 70.332031 454.441406 C 70.972656 451.535156 70.800781 448.539062 70.644531 445.894531 L 69.589844 427.632812 C 71.277344 427.554688 72.964844 427.480469 74.652344 427.402344 L 76.527344 502.484375 C 74.574219 502.515625 72.664062 502.546875 70.824219 502.574219 Z M 83.59375 502.382812 L 81.710938 427.082031 C 84.484375 426.960938 87.253906 426.839844 90.023438 426.722656 L 94.808594 502.234375 C 91.082031 502.28125 87.332031 502.332031 83.59375 502.382812 Z M 340.132812 502.277344 C 298.472656 502.878906 256.96875 502.480469 216.234375 502.089844 C 204.996094 501.980469 193.753906 501.875 182.503906 501.785156 C 175.964844 501.734375 169.425781 501.707031 162.886719 501.683594 C 157.589844 501.667969 131.191406 501.8125 101.882812 502.152344 C 101.882812 502.132812 101.886719 502.113281 101.882812 502.09375 L 97.09375 426.453125 C 178.277344 423.261719 259.828125 422.746094 341.03125 424.910156 Z M 347.203125 502.15625 L 348.097656 425.09375 C 351.40625 425.1875 354.714844 425.292969 358.019531 425.394531 L 359.519531 501.914062 C 355.414062 502.003906 351.308594 502.085938 347.203125 502.15625 Z M 376.414062 501.46875 L 375.121094 484.738281 C 374.871094 481.507812 374.773438 478.1875 376.550781 476.214844 C 377.546875 475.109375 379.140625 474.613281 380.421875 475.007812 C 381.648438 475.382812 382.574219 476.683594 382.449219 477.851562 C 382.390625 478.386719 382.054688 478.933594 381.554688 479.3125 C 381.117188 479.644531 380.617188 479.789062 380.183594 479.722656 C 379.085938 479.539062 378.042969 480.28125 377.859375 481.382812 C 377.675781 482.480469 378.417969 483.523438 379.519531 483.707031 C 381.042969 483.960938 382.675781 483.53125 383.996094 482.53125 C 385.386719 481.480469 386.285156 479.929688 386.464844 478.289062 C 386.800781 475.21875 384.667969 472.082031 381.609375 471.144531 C 378.832031 470.292969 375.59375 471.246094 373.550781 473.511719 C 370.707031 476.671875 370.792969 481.121094 371.09375 485.046875 L 372.371094 501.585938 C 370.445312 501.640625 368.515625 501.699219 366.589844 501.75 L 365.09375 425.628906 C 367.160156 425.699219 369.226562 425.761719 371.292969 425.835938 L 368.683594 449.210938 C 368.304688 452.613281 367.875 456.472656 369.152344 460.164062 C 370.402344 463.785156 373.804688 467.242188 378.027344 467.238281 C 378.269531 467.238281 378.515625 467.226562 378.765625 467.203125 C 383.738281 466.734375 386.625 461.949219 387.664062 457.628906 C 388.421875 454.480469 388.15625 452.046875 386.851562 450.183594 C 385.8125 448.699219 383.945312 447.816406 382.039062 447.921875 C 380.429688 448.019531 379.101562 448.832031 378.398438 450.15625 C 377.875 451.140625 378.25 452.363281 379.234375 452.890625 C 380.21875 453.414062 381.441406 453.039062 381.964844 452.054688 C 381.996094 452 382.148438 451.964844 382.28125 451.957031 C 382.746094 451.929688 383.308594 452.164062 383.542969 452.5 C 384.136719 453.347656 384.203125 454.753906 383.734375 456.683594 C 383 459.734375 381.058594 462.929688 378.382812 463.183594 C 376 463.414062 373.765625 461.152344 372.96875 458.847656 C 371.988281 456.011719 372.367188 452.636719 372.699219 449.660156 L 375.34375 425.96875 C 394.027344 426.640625 412.6875 427.449219 431.316406 428.402344 C 432.136719 440.898438 433.195312 453.523438 434.214844 465.761719 C 435.117188 476.523438 436.046875 487.621094 436.8125 498.621094 C 416.734375 499.953125 396.578125 500.855469 376.414062 501.46875 Z M 376.414062 501.46875 " style=" stroke:none;fill-rule:nonzero;fill:rgb(0%,0%,0%);fill-opacity:1;" />
<path d="M 128.632812 475.5625 L 115.621094 477.191406 L 113.550781 451.449219 C 113.460938 450.335938 112.488281 449.492188 111.375 449.597656 C 110.261719 449.6875 109.433594 450.660156 109.523438 451.773438 L 111.765625 479.621094 C 111.808594 480.167969 112.074219 480.675781 112.503906 481.023438 C 112.867188 481.316406 113.316406 481.476562 113.777344 481.476562 C 113.863281 481.476562 113.945312 481.472656 114.027344 481.460938 L 129.136719 479.570312 C 130.242188 479.429688 131.027344 478.421875 130.890625 477.3125 C 130.75 476.207031 129.75 475.421875 128.632812 475.5625 Z M 128.632812 475.5625 " style=" stroke:none;fill-rule:nonzero;fill:rgb(0%,0%,0%);fill-opacity:1;" />
<path d="M 133.558594 447.839844 C 132.445312 447.933594 131.621094 448.910156 131.714844 450.019531 L 134.238281 479.789062 C 134.328125 480.839844 135.210938 481.636719 136.25 481.636719 C 136.304688 481.636719 136.363281 481.632812 136.421875 481.628906 C 137.535156 481.535156 138.359375 480.558594 138.265625 479.445312 L 135.742188 449.679688 C 135.644531 448.570312 134.675781 447.75 133.558594 447.839844 Z M 133.558594 447.839844 " style=" stroke:none;fill-rule:nonzero;fill:rgb(0%,0%,0%);fill-opacity:1;" />
<path d="M 162.878906 449.40625 C 163.980469 449.25 164.75 448.226562 164.59375 447.121094 C 164.4375 446.015625 163.421875 445.25 162.308594 445.40625 L 139.980469 448.574219 C 138.875 448.730469 138.105469 449.753906 138.261719 450.859375 C 138.40625 451.867188 139.269531 452.59375 140.261719 452.59375 C 140.355469 452.59375 140.449219 452.589844 140.546875 452.574219 L 149.542969 451.296875 L 151.15625 475.878906 C 151.222656 476.945312 152.113281 477.765625 153.167969 477.765625 C 153.210938 477.765625 153.257812 477.765625 153.300781 477.761719 C 154.414062 477.6875 155.257812 476.726562 155.1875 475.613281 L 153.554688 450.726562 Z M 162.878906 449.40625 " style=" stroke:none;fill-rule:nonzero;fill:rgb(0%,0%,0%);fill-opacity:1;" />
<path d="M 180.417969 473.542969 L 168.441406 475.121094 C 167.660156 475.222656 166.589844 475.363281 166.042969 475.0625 C 165.230469 474.617188 165.007812 472.957031 164.902344 471.5625 L 164.652344 468.257812 L 174.175781 467.070312 C 175.285156 466.933594 176.070312 465.925781 175.929688 464.816406 C 175.792969 463.710938 174.773438 462.925781 173.675781 463.0625 L 164.351562 464.226562 L 163.917969 458.472656 L 177.871094 455.867188 C 178.964844 455.660156 179.6875 454.605469 179.484375 453.507812 C 179.277344 452.410156 178.226562 451.6875 177.128906 451.894531 L 161.398438 454.835938 C 160.382812 455.023438 159.675781 455.945312 159.753906 456.972656 L 160.875 471.867188 C 161 473.546875 161.261719 477.042969 164.09375 478.601562 C 165.0625 479.136719 166.09375 479.285156 167.035156 479.285156 C 167.753906 479.285156 168.421875 479.199219 168.96875 479.125 L 180.949219 477.546875 C 182.054688 477.402344 182.832031 476.386719 182.6875 475.28125 C 182.539062 474.171875 181.519531 473.394531 180.417969 473.542969 Z M 180.417969 473.542969 " style=" stroke:none;fill-rule:nonzero;fill:rgb(0%,0%,0%);fill-opacity:1;" />
<path d="M 193.136719 463.960938 C 194.960938 463.289062 196.71875 462.429688 198.355469 461.40625 C 199.605469 460.621094 201.402344 459.359375 202.558594 457.472656 C 203.847656 455.375 204.054688 452.847656 203.097656 450.878906 C 202.234375 449.105469 200.460938 447.773438 198.226562 447.238281 C 196.46875 446.8125 194.710938 446.914062 193.15625 447.003906 C 191.15625 447.117188 186.992188 447.355469 185.070312 450.550781 C 183.734375 452.765625 184.15625 455.347656 184.433594 457.058594 L 185.394531 462.933594 C 185.382812 462.984375 185.375 463.039062 185.367188 463.09375 C 185.300781 463.5625 185.402344 464.023438 185.632812 464.40625 L 187.464844 475.617188 C 187.625 476.609375 188.480469 477.3125 189.453125 477.3125 C 189.5625 477.3125 189.671875 477.300781 189.78125 477.285156 C 190.882812 477.105469 191.628906 476.066406 191.449219 474.964844 L 190.140625 466.949219 C 194.753906 469.328125 199.105469 472.195312 203.121094 475.496094 C 203.980469 476.203125 205.253906 476.082031 205.964844 475.21875 C 206.671875 474.359375 206.546875 473.085938 205.6875 472.378906 C 201.785156 469.167969 197.582031 466.347656 193.136719 463.960938 Z M 189.164062 460.957031 L 188.421875 456.410156 C 188.179688 454.917969 188.003906 453.507812 188.53125 452.636719 C 189.257812 451.429688 191.394531 451.152344 193.386719 451.035156 C 194.035156 451 194.664062 450.964844 195.269531 450.964844 C 195.972656 450.964844 196.648438 451.011719 197.28125 451.164062 C 198.320312 451.414062 199.136719 451.96875 199.464844 452.644531 C 199.820312 453.371094 199.679688 454.4375 199.113281 455.359375 C 198.5625 456.257812 197.667969 457.066406 196.210938 457.980469 C 194.050781 459.335938 191.648438 460.347656 189.164062 460.957031 Z M 189.164062 460.957031 " style=" stroke:none;fill-rule:nonzero;fill:rgb(0%,0%,0%);fill-opacity:1;" />
<path d="M 216.078125 446.582031 C 215.699219 445.8125 214.875 445.378906 214.027344 445.46875 C 213.179688 445.574219 212.484375 446.199219 212.296875 447.035156 L 207.328125 469.210938 C 207.082031 470.300781 207.765625 471.378906 208.855469 471.621094 C 209.953125 471.871094 211.027344 471.183594 211.269531 470.09375 L 212.460938 464.773438 L 219.371094 464.4375 C 219.691406 464.421875 219.988281 464.324219 220.253906 464.179688 L 223.410156 470.582031 C 223.761719 471.292969 224.476562 471.707031 225.222656 471.707031 C 225.523438 471.707031 225.828125 471.640625 226.117188 471.5 C 227.117188 471.003906 227.527344 469.792969 227.035156 468.792969 Z M 213.375 460.683594 L 214.988281 453.5 L 218.410156 460.441406 Z M 213.375 460.683594 " style=" stroke:none;fill-rule:nonzero;fill:rgb(0%,0%,0%);fill-opacity:1;" />
<path d="M 240.738281 449.820312 L 247.859375 449.402344 C 248.972656 449.335938 249.824219 448.378906 249.753906 447.265625 C 249.6875 446.152344 248.710938 445.277344 247.621094 445.371094 L 225.515625 446.671875 C 224.40625 446.738281 223.554688 447.695312 223.621094 448.808594 C 223.683594 449.882812 224.574219 450.707031 225.636719 450.707031 C 225.675781 450.707031 225.714844 450.707031 225.757812 450.703125 L 236.667969 450.0625 C 236.09375 457.84375 236.402344 465.683594 237.617188 473.390625 C 237.773438 474.386719 238.632812 475.097656 239.609375 475.097656 C 239.714844 475.097656 239.820312 475.089844 239.925781 475.074219 C 241.03125 474.898438 241.78125 473.867188 241.605469 472.761719 C 240.414062 465.183594 240.128906 457.472656 240.738281 449.820312 Z M 240.738281 449.820312 " style=" stroke:none;fill-rule:nonzero;fill:rgb(0%,0%,0%);fill-opacity:1;" />
<path d="M 259.835938 451.160156 C 259.832031 451.160156 259.828125 451.160156 259.824219 451.160156 C 258.710938 451.160156 257.808594 452.054688 257.804688 453.167969 C 257.777344 458.0625 256.980469 462.898438 255.4375 467.546875 C 255.140625 468.4375 254.777344 469.445312 254.203125 470.121094 C 253.792969 470.605469 253.214844 470.898438 252.8125 470.851562 C 252.167969 470.765625 251.457031 469.8125 250.957031 468.359375 C 249.496094 464.113281 249.550781 459.265625 251.101562 455.054688 C 251.488281 454.007812 250.949219 452.847656 249.902344 452.460938 C 248.855469 452.074219 247.695312 452.609375 247.308594 453.65625 C 245.417969 458.800781 245.355469 464.488281 247.136719 469.671875 C 248.179688 472.710938 250.007812 474.554688 252.277344 474.855469 C 252.492188 474.886719 252.703125 474.898438 252.917969 474.898438 C 254.511719 474.898438 256.105469 474.121094 257.28125 472.738281 C 258.320312 471.511719 258.851562 470.074219 259.269531 468.820312 C 260.949219 463.769531 261.8125 458.507812 261.839844 453.1875 C 261.847656 452.074219 260.949219 451.164062 259.835938 451.160156 Z M 259.835938 451.160156 " style=" stroke:none;fill-rule:nonzero;fill:rgb(0%,0%,0%);fill-opacity:1;" />
<path d="M 272.390625 463.320312 C 273.191406 463.066406 273.984375 462.761719 274.75 462.382812 C 277.710938 460.925781 279.808594 458.550781 280.507812 455.859375 C 281.414062 452.386719 279.730469 448.671875 276.679688 447.398438 C 274.265625 446.390625 271.703125 447.082031 270.003906 447.535156 C 268.4375 447.957031 265.519531 448.738281 264.277344 451.328125 C 263.585938 452.773438 263.671875 454.308594 263.738281 455.429688 L 264.75 473.316406 C 264.808594 474.390625 265.703125 475.222656 266.765625 475.222656 C 266.800781 475.222656 266.839844 475.222656 266.878906 475.21875 C 267.992188 475.15625 268.84375 474.203125 268.78125 473.089844 L 268.355469 465.5625 C 272.144531 467.789062 275.613281 470.648438 278.492188 473.941406 C 279.226562 474.78125 280.503906 474.867188 281.339844 474.132812 C 282.179688 473.398438 282.265625 472.121094 281.53125 471.28125 C 278.882812 468.253906 275.777344 465.550781 272.390625 463.320312 Z M 268.054688 460.214844 L 267.769531 455.199219 C 267.726562 454.441406 267.675781 453.582031 267.921875 453.074219 C 268.308594 452.269531 269.65625 451.8125 271.050781 451.4375 C 272.082031 451.160156 273.078125 450.917969 273.941406 450.917969 C 274.375 450.917969 274.773438 450.980469 275.125 451.125 C 276.300781 451.617188 276.988281 453.351562 276.601562 454.839844 C 276.195312 456.390625 274.871094 457.820312 272.96875 458.757812 C 271.476562 459.492188 269.773438 459.890625 268.054688 460.214844 Z M 268.054688 460.214844 " style=" stroke:none;fill-rule:nonzero;fill:rgb(0%,0%,0%);fill-opacity:1;" />
<path d="M 305.605469 470.019531 L 289.847656 471.503906 L 289.675781 465.601562 L 305.582031 464.441406 C 306.691406 464.359375 307.53125 463.394531 307.449219 462.28125 C 307.367188 461.167969 306.398438 460.351562 305.285156 460.414062 L 289.558594 461.558594 L 289.328125 453.484375 L 305.402344 452.222656 C 306.511719 452.132812 307.34375 451.164062 307.257812 450.050781 C 307.167969 448.9375 306.179688 448.121094 305.085938 448.195312 L 287.09375 449.609375 C 286.019531 449.691406 285.199219 450.605469 285.230469 451.679688 L 285.871094 473.773438 C 285.886719 474.332031 286.132812 474.855469 286.550781 475.226562 C 286.921875 475.554688 287.398438 475.734375 287.890625 475.734375 C 287.953125 475.734375 288.015625 475.730469 288.078125 475.726562 L 305.984375 474.042969 C 307.09375 473.9375 307.910156 472.953125 307.808594 471.839844 C 307.703125 470.730469 306.71875 469.914062 305.605469 470.019531 Z M 305.605469 470.019531 " style=" stroke:none;fill-rule:nonzero;fill:rgb(0%,0%,0%);fill-opacity:1;" />
<path d="M 179.515625 393.71875 C 179.054688 393.109375 178.289062 392.8125 177.539062 392.949219 C 176.789062 393.085938 176.179688 393.636719 175.964844 394.371094 L 170.566406 412.8125 C 170.253906 413.882812 170.867188 415.003906 171.9375 415.320312 C 172.128906 415.375 172.320312 415.402344 172.507812 415.402344 C 173.378906 415.402344 174.1875 414.828125 174.445312 413.949219 L 175.675781 409.734375 L 185.625 408.503906 L 188.558594 412.386719 C 189.230469 413.273438 190.496094 413.453125 191.386719 412.777344 C 192.277344 412.105469 192.453125 410.839844 191.78125 409.949219 Z M 176.914062 405.511719 L 178.714844 399.359375 L 182.8125 404.78125 Z M 176.914062 405.511719 " style=" stroke:none;fill-rule:nonzero;fill:rgb(0%,0%,0%);fill-opacity:1;" />
<path d="M 219.472656 408.0625 L 211.09375 405.058594 C 211.269531 405.003906 211.445312 404.945312 211.621094 404.882812 C 214.558594 403.855469 217.390625 401.265625 216.667969 398.019531 C 216.207031 395.949219 214.238281 394.25 211.65625 393.695312 C 209.6875 393.273438 207.75 393.511719 206.046875 393.71875 C 204.832031 393.863281 201.605469 394.253906 200.585938 396.785156 C 200.117188 397.945312 200.335938 399.050781 200.480469 399.785156 L 202.949219 412.121094 C 203.140625 413.082031 203.984375 413.742188 204.925781 413.742188 C 205.058594 413.742188 205.191406 413.730469 205.324219 413.703125 C 206.417969 413.484375 207.128906 412.421875 206.910156 411.328125 L 206.160156 407.582031 L 218.109375 411.867188 C 219.15625 412.242188 220.316406 411.695312 220.691406 410.644531 C 221.070312 409.59375 220.523438 408.4375 219.472656 408.0625 Z M 207.597656 401.757812 C 206.78125 401.933594 205.949219 402.109375 205.117188 402.359375 L 204.445312 398.992188 C 204.40625 398.796875 204.324219 398.382812 204.308594 398.339844 C 204.339844 398.300781 204.691406 397.949219 206.53125 397.726562 C 207.449219 397.617188 208.386719 397.503906 209.28125 397.503906 C 209.808594 397.503906 210.324219 397.542969 210.8125 397.644531 C 211.871094 397.875 212.632812 398.472656 212.726562 398.898438 C 212.851562 399.464844 211.816406 400.539062 210.289062 401.074219 C 209.460938 401.359375 208.554688 401.554688 207.597656 401.757812 Z M 207.597656 401.757812 " style=" stroke:none;fill-rule:nonzero;fill:rgb(0%,0%,0%);fill-opacity:1;" />
<path d="M 247.222656 397.074219 C 248.335938 397.046875 249.21875 396.125 249.195312 395.007812 C 249.167969 393.910156 248.269531 393.035156 247.175781 393.035156 C 247.160156 393.035156 247.144531 393.035156 247.128906 393.035156 L 229.523438 393.4375 C 228.410156 393.464844 227.527344 394.386719 227.550781 395.503906 C 227.578125 396.601562 228.476562 397.476562 229.570312 397.476562 C 229.585938 397.476562 229.601562 397.476562 229.617188 397.476562 L 238.300781 397.277344 L 239.28125 408.027344 C 239.375 409.078125 240.257812 409.863281 241.289062 409.863281 C 241.351562 409.863281 241.414062 409.859375 241.472656 409.855469 C 242.585938 409.753906 243.402344 408.769531 243.300781 407.660156 L 242.347656 397.183594 Z M 247.222656 397.074219 " style=" stroke:none;fill-rule:nonzero;fill:rgb(0%,0%,0%);fill-opacity:1;" />
<path d="M 100.472656 372.585938 C 100.53125 372.585938 100.589844 372.582031 100.648438 372.578125 C 101.757812 372.480469 102.585938 371.503906 102.488281 370.394531 L 101.550781 359.378906 C 102.203125 359.398438 102.859375 359.414062 103.511719 359.414062 C 107.054688 359.414062 110.59375 359.078125 114.078125 358.433594 L 114.605469 369.589844 C 114.65625 370.671875 115.550781 371.515625 116.621094 371.515625 C 116.65625 371.515625 116.6875 371.515625 116.71875 371.511719 C 117.835938 371.460938 118.695312 370.515625 118.640625 369.398438 L 117.386719 342.828125 C 117.335938 341.714844 116.371094 340.878906 115.273438 340.90625 C 114.160156 340.960938 113.300781 341.90625 113.351562 343.019531 L 113.890625 354.390625 C 113.800781 354.394531 113.710938 354.398438 113.617188 354.414062 C 109.527344 355.199219 105.355469 355.472656 101.203125 355.296875 L 100.175781 343.292969 C 100.082031 342.183594 99.105469 341.355469 97.992188 341.453125 C 96.882812 341.550781 96.058594 342.527344 96.152344 343.636719 L 98.464844 370.738281 C 98.554688 371.789062 99.4375 372.585938 100.472656 372.585938 Z M 100.472656 372.585938 " style=" stroke:none;fill-rule:nonzero;fill:rgb(0%,0%,0%);fill-opacity:1;" />
<path d="M 128.265625 372.550781 C 128.269531 372.550781 128.273438 372.550781 128.273438 372.550781 C 129.386719 372.550781 130.289062 371.652344 130.296875 370.542969 L 130.433594 343.972656 C 130.4375 342.859375 129.539062 341.949219 128.421875 341.945312 C 128.417969 341.945312 128.414062 341.945312 128.414062 341.945312 C 127.300781 341.945312 126.398438 342.839844 126.390625 343.953125 L 126.253906 370.519531 C 126.25 371.636719 127.148438 372.546875 128.265625 372.550781 Z M 128.265625 372.550781 " style=" stroke:none;fill-rule:nonzero;fill:rgb(0%,0%,0%);fill-opacity:1;" />
<path d="M 141.191406 357.410156 C 142.351562 357.867188 143.519531 358.160156 144.652344 358.441406 C 145.867188 358.742188 147.011719 359.027344 148.035156 359.488281 C 149.484375 360.144531 150.921875 361.5625 150.726562 362.90625 C 150.597656 363.8125 149.640625 364.714844 148.457031 365.054688 C 146.996094 365.472656 145.316406 365.210938 143.867188 364.898438 C 143.4375 364.808594 143.011719 364.707031 142.582031 364.605469 C 141.121094 364.265625 139.613281 363.914062 138 363.847656 C 136.847656 363.816406 135.945312 364.675781 135.898438 365.789062 C 135.855469 366.902344 136.722656 367.839844 137.839844 367.886719 C 139.070312 367.933594 140.328125 368.230469 141.660156 368.542969 C 142.113281 368.648438 142.566406 368.753906 143.019531 368.851562 C 144.109375 369.085938 145.402344 369.308594 146.761719 369.308594 C 147.679688 369.308594 148.628906 369.207031 149.5625 368.9375 C 152.296875 368.160156 154.371094 365.964844 154.726562 363.480469 C 155.230469 359.976562 152.5625 357.101562 149.695312 355.808594 C 148.339844 355.195312 146.960938 354.851562 145.628906 354.519531 C 144.578125 354.261719 143.585938 354.011719 142.671875 353.652344 C 141.109375 353.035156 139.53125 351.765625 139.527344 350.324219 C 139.523438 349.160156 140.53125 347.945312 141.410156 347.015625 C 143.351562 344.957031 145.027344 343.898438 146.675781 343.6875 C 147.574219 343.574219 148.640625 343.863281 149.363281 344.433594 C 149.699219 344.703125 150.113281 345.144531 150.179688 345.757812 C 150.296875 346.867188 151.292969 347.660156 152.398438 347.554688 C 153.507812 347.4375 154.3125 346.441406 154.195312 345.332031 C 154.03125 343.765625 153.203125 342.320312 151.867188 341.265625 C 150.285156 340.015625 148.152344 339.425781 146.160156 339.683594 C 142.710938 340.125 140.121094 342.5 138.472656 344.242188 C 137.078125 345.71875 135.480469 347.742188 135.488281 350.339844 C 135.496094 353.902344 138.566406 356.375 141.191406 357.410156 Z M 141.191406 357.410156 " style=" stroke:none;fill-rule:nonzero;fill:rgb(0%,0%,0%);fill-opacity:1;" />
<path d="M 159.757812 344.5 C 159.777344 344.5 159.796875 344.5 159.816406 344.5 L 166.238281 344.3125 L 167.136719 368.507812 C 167.179688 369.597656 168.074219 370.453125 169.15625 370.453125 C 169.179688 370.453125 169.207031 370.453125 169.230469 370.453125 C 170.347656 370.410156 171.21875 369.472656 171.175781 368.355469 L 170.277344 344.195312 L 177.96875 343.972656 C 179.082031 343.9375 179.960938 343.007812 179.929688 341.894531 C 179.894531 340.777344 178.988281 339.859375 177.851562 339.933594 L 159.699219 340.464844 C 158.585938 340.496094 157.707031 341.425781 157.738281 342.542969 C 157.769531 343.636719 158.667969 344.5 159.757812 344.5 Z M 159.757812 344.5 " style=" stroke:none;fill-rule:nonzero;fill:rgb(0%,0%,0%);fill-opacity:1;" />
<path d="M 185.695312 370.035156 C 187.664062 371.25 189.953125 371.84375 192.261719 371.84375 C 195.445312 371.84375 198.660156 370.714844 201.128906 368.535156 C 205.144531 364.980469 206.824219 359 205.308594 353.652344 C 203.996094 349.035156 198.949219 342.433594 193.203125 342.433594 C 193.15625 342.433594 193.109375 342.433594 193.058594 342.433594 C 187.160156 342.550781 181.734375 349.265625 180.242188 353.867188 C 178.265625 359.949219 180.609375 366.898438 185.695312 370.035156 Z M 184.082031 355.117188 C 185.199219 351.683594 189.492188 346.546875 193.140625 346.472656 C 193.164062 346.472656 193.183594 346.472656 193.207031 346.472656 C 196.613281 346.472656 200.46875 351.398438 201.421875 354.753906 C 202.507812 358.578125 201.285156 363.003906 198.453125 365.507812 C 195.550781 368.078125 190.976562 368.542969 187.816406 366.597656 C 184.328125 364.445312 182.6875 359.402344 184.082031 355.117188 Z M 184.082031 355.117188 " style=" stroke:none;fill-rule:nonzero;fill:rgb(0%,0%,0%);fill-opacity:1;" />
<path d="M 209.175781 367.878906 C 209.160156 368.996094 210.054688 369.910156 211.171875 369.921875 C 211.179688 369.921875 211.1875 369.921875 211.195312 369.921875 C 212.300781 369.921875 213.199219 369.035156 213.214844 367.925781 C 213.253906 364.5625 213.113281 361.203125 212.792969 357.863281 C 216.578125 360.296875 220.039062 363.199219 223.105469 366.515625 C 223.863281 367.335938 225.140625 367.382812 225.957031 366.628906 C 226.777344 365.871094 226.828125 364.59375 226.070312 363.773438 C 223.324219 360.800781 220.285156 358.140625 216.988281 355.820312 C 218.441406 355.476562 219.878906 354.976562 221.242188 354.210938 C 224.972656 352.105469 227.121094 348.121094 226.464844 344.519531 C 225.667969 340.121094 221.261719 337.546875 217.324219 337.277344 C 213.523438 337.019531 210 338.402344 206.890625 339.617188 C 205.921875 340 205.398438 341.054688 205.6875 342.058594 C 208.105469 350.457031 209.28125 359.140625 209.175781 367.878906 Z M 217.050781 341.308594 C 219.371094 341.46875 222.066406 342.898438 222.492188 345.242188 C 222.886719 347.402344 221.164062 349.617188 219.257812 350.691406 C 217.171875 351.867188 214.636719 352.234375 212.121094 352.503906 C 211.609375 349.214844 210.925781 345.953125 210.0625 342.726562 C 212.324219 341.882812 214.742188 341.160156 217.050781 341.308594 Z M 217.050781 341.308594 " style=" stroke:none;fill-rule:nonzero;fill:rgb(0%,0%,0%);fill-opacity:1;" />
<path d="M 236.804688 351.257812 C 237.355469 351.800781 237.90625 352.214844 238.449219 352.519531 C 238.957031 357.085938 238.796875 361.6875 237.964844 366.21875 C 237.761719 367.3125 238.488281 368.367188 239.585938 368.566406 C 239.710938 368.589844 239.832031 368.601562 239.953125 368.601562 C 240.910156 368.601562 241.757812 367.921875 241.9375 366.945312 C 242.816406 362.160156 243.003906 357.296875 242.507812 352.46875 C 243.191406 352.011719 243.65625 351.410156 243.960938 351 L 251.722656 340.605469 C 252.394531 339.714844 252.210938 338.449219 251.316406 337.777344 C 250.421875 337.109375 249.15625 337.292969 248.492188 338.1875 L 240.722656 348.582031 C 240.648438 348.683594 240.496094 348.890625 240.410156 349 C 240.273438 348.925781 240.019531 348.753906 239.636719 348.375 C 236.5625 345.351562 233.980469 341.886719 231.96875 338.074219 C 231.449219 337.089844 230.226562 336.710938 229.242188 337.234375 C 228.253906 337.753906 227.878906 338.976562 228.398438 339.964844 C 230.605469 344.140625 233.433594 347.9375 236.804688 351.257812 Z M 236.804688 351.257812 " style=" stroke:none;fill-rule:nonzero;fill:rgb(0%,0%,0%);fill-opacity:1;" />
<path d="M 110.226562 275.9375 C 105.882812 276.851562 101.101562 275.363281 98.042969 272.144531 C 97.273438 271.335938 95.996094 271.304688 95.1875 272.070312 C 94.378906 272.839844 94.347656 274.117188 95.113281 274.925781 C 98.332031 278.316406 103.011719 280.242188 107.679688 280.242188 C 108.8125 280.238281 109.945312 280.125 111.058594 279.890625 C 114.472656 279.171875 116.929688 277.21875 117.625 274.667969 C 118.355469 271.992188 117.050781 268.902344 114.308594 266.800781 C 112.140625 265.144531 109.660156 264.289062 107.257812 263.464844 C 106.335938 263.144531 105.464844 262.847656 104.613281 262.503906 C 102.71875 261.742188 99.46875 260.042969 98.933594 257.226562 C 98.410156 254.445312 100.851562 251.640625 101.925781 250.566406 C 103.375 249.117188 106.285156 246.722656 109.492188 247 C 110.800781 247.109375 112.15625 247.914062 112.945312 249.050781 C 113.34375 249.621094 113.761719 250.507812 113.492188 251.496094 C 113.195312 252.570312 113.828125 253.679688 114.902344 253.976562 C 115.980469 254.273438 117.089844 253.640625 117.386719 252.566406 C 117.921875 250.617188 117.519531 248.546875 116.257812 246.738281 C 114.785156 244.628906 112.324219 243.183594 109.835938 242.972656 C 106.234375 242.675781 102.421875 244.351562 99.066406 247.714844 C 95.792969 250.992188 94.335938 254.636719 94.964844 257.976562 C 95.625 261.464844 98.515625 264.402344 103.105469 266.253906 C 104.050781 266.632812 105.011719 266.964844 105.945312 267.285156 C 108.136719 268.039062 110.207031 268.75 111.851562 270.011719 C 112.992188 270.882812 114.0625 272.378906 113.726562 273.605469 C 113.386719 274.851562 111.695312 275.628906 110.226562 275.9375 Z M 110.226562 275.9375 " style=" stroke:none;fill-rule:nonzero;fill:rgb(0%,0%,0%);fill-opacity:1;" />
<path d="M 128.171875 277.671875 C 129.628906 278.214844 131.164062 278.476562 132.695312 278.476562 C 136.820312 278.476562 140.933594 276.582031 143.46875 273.238281 C 144.140625 272.351562 143.96875 271.082031 143.078125 270.410156 C 142.191406 269.734375 140.921875 269.910156 140.25 270.796875 C 137.863281 273.941406 133.277344 275.269531 129.585938 273.890625 C 125.890625 272.507812 123.296875 268.5 123.558594 264.566406 C 123.746094 261.648438 125.308594 258.636719 128.199219 255.617188 C 129.792969 253.945312 131.179688 252.941406 132.554688 252.464844 C 134.082031 251.933594 135.691406 252.113281 136.660156 252.917969 C 137.519531 253.628906 138.792969 253.511719 139.503906 252.652344 C 140.214844 251.792969 140.097656 250.519531 139.242188 249.808594 C 137.175781 248.097656 134.109375 247.652344 131.230469 248.648438 C 128.59375 249.5625 126.570312 251.472656 125.273438 252.824219 C 121.714844 256.550781 119.78125 260.414062 119.523438 264.300781 C 119.148438 270.039062 122.785156 275.660156 128.171875 277.671875 Z M 128.171875 277.671875 " style=" stroke:none;fill-rule:nonzero;fill:rgb(0%,0%,0%);fill-opacity:1;" />
<path d="M 151.914062 274.222656 C 151.992188 274.222656 152.070312 274.21875 152.144531 274.210938 C 153.253906 274.085938 154.050781 273.085938 153.925781 271.976562 C 153.0625 264.335938 152.882812 256.570312 153.390625 248.890625 C 153.46875 247.777344 152.625 246.816406 151.511719 246.742188 C 150.40625 246.648438 149.4375 247.511719 149.363281 248.625 C 148.835938 256.542969 149.019531 264.550781 149.910156 272.429688 C 150.027344 273.460938 150.902344 274.222656 151.914062 274.222656 Z M 151.914062 274.222656 " style=" stroke:none;fill-rule:nonzero;fill:rgb(0%,0%,0%);fill-opacity:1;" />
<path d="M 161.03125 275.429688 C 162.046875 276.058594 163.160156 276.167969 164.066406 276.167969 C 164.328125 276.167969 164.574219 276.160156 164.792969 276.152344 L 184.832031 275.386719 C 185.949219 275.34375 186.816406 274.402344 186.773438 273.289062 C 186.730469 272.175781 185.789062 271.324219 184.679688 271.347656 L 164.640625 272.113281 C 164.183594 272.128906 163.425781 272.160156 163.160156 271.996094 C 162.976562 271.882812 162.664062 271.414062 162.652344 269.5625 L 162.617188 263.574219 L 177.617188 261.917969 C 178.726562 261.796875 179.523438 260.796875 179.402344 259.6875 C 179.28125 258.578125 178.285156 257.792969 177.171875 257.902344 L 162.59375 259.511719 L 162.542969 250.878906 L 175.363281 248.554688 C 176.460938 248.359375 177.1875 247.304688 176.988281 246.210938 C 176.792969 245.113281 175.742188 244.375 174.640625 244.582031 L 160.15625 247.207031 C 159.1875 247.378906 158.488281 248.222656 158.496094 249.203125 L 158.613281 269.585938 C 158.621094 270.890625 158.636719 273.949219 161.03125 275.429688 Z M 161.03125 275.429688 " style=" stroke:none;fill-rule:nonzero;fill:rgb(0%,0%,0%);fill-opacity:1;" />
<path d="M 192.261719 274.953125 C 193.375 274.890625 194.226562 273.9375 194.164062 272.824219 L 193.183594 255.203125 C 197.253906 261.871094 201.792969 268.261719 206.734375 274.285156 C 207.125 274.761719 207.703125 275.023438 208.296875 275.023438 C 208.484375 275.023438 208.679688 275 208.867188 274.941406 C 209.644531 274.710938 210.210938 274.039062 210.300781 273.234375 C 211.371094 263.808594 211.402344 254.25 210.394531 244.820312 C 210.277344 243.710938 209.265625 242.910156 208.171875 243.023438 C 207.0625 243.144531 206.257812 244.136719 206.378906 245.246094 C 207.175781 252.734375 207.300781 260.304688 206.75 267.816406 C 201.421875 260.902344 196.632812 253.542969 192.472656 245.878906 C 192.023438 245.046875 191.058594 244.636719 190.144531 244.898438 C 189.238281 245.15625 188.628906 246.011719 188.679688 246.953125 L 190.132812 273.050781 C 190.195312 274.164062 191.125 275.015625 192.261719 274.953125 Z M 192.261719 274.953125 " style=" stroke:none;fill-rule:nonzero;fill:rgb(0%,0%,0%);fill-opacity:1;" />
<path d="M 223.832031 275.492188 C 225.140625 275.960938 226.519531 276.1875 227.894531 276.1875 C 230.925781 276.1875 233.925781 275.078125 236.074219 273.023438 C 236.878906 272.25 236.90625 270.972656 236.132812 270.167969 C 235.363281 269.359375 234.085938 269.335938 233.277344 270.105469 C 231.273438 272.027344 227.949219 272.679688 225.195312 271.691406 C 222.453125 270.707031 220.246094 268.242188 219.433594 265.261719 C 218.648438 262.398438 219.164062 259.0625 220.808594 256.34375 C 222.441406 253.640625 225.113281 251.578125 228.136719 250.679688 C 231.160156 249.785156 234.523438 250.054688 237.367188 251.429688 C 238.367188 251.914062 239.578125 251.496094 240.0625 250.488281 C 240.546875 249.484375 240.128906 248.277344 239.125 247.792969 C 235.386719 245.984375 230.964844 245.625 226.988281 246.804688 C 223.007812 247.988281 219.496094 250.703125 217.351562 254.253906 C 215.113281 257.957031 214.453125 262.355469 215.535156 266.324219 C 216.691406 270.554688 219.871094 274.066406 223.832031 275.492188 Z M 223.832031 275.492188 " style=" stroke:none;fill-rule:nonzero;fill:rgb(0%,0%,0%);fill-opacity:1;" />
<path d="M 244.6875 274.558594 C 245.625 275.246094 246.675781 275.410156 247.578125 275.410156 C 248.058594 275.410156 248.5 275.363281 248.851562 275.324219 L 263.589844 273.769531 C 264.699219 273.652344 265.503906 272.660156 265.386719 271.550781 C 265.273438 270.441406 264.292969 269.644531 263.167969 269.753906 L 248.429688 271.304688 C 247.464844 271.410156 247.160156 271.359375 247.070312 271.296875 C 247.058594 271.289062 246.8125 271.089844 246.871094 269.511719 L 247.113281 263.238281 L 260.949219 261.960938 C 262.058594 261.855469 262.875 260.875 262.773438 259.765625 C 262.667969 258.652344 261.683594 257.832031 260.578125 257.9375 L 247.265625 259.167969 L 247.484375 253.441406 C 247.523438 252.371094 247.597656 251.375 248.015625 250.902344 C 248.574219 250.273438 250.175781 250.242188 251.035156 250.226562 L 259.738281 250.050781 C 260.851562 250.027344 261.738281 249.105469 261.714844 247.992188 C 261.695312 246.875 260.789062 246.023438 259.65625 246.011719 L 250.957031 246.183594 C 249.476562 246.214844 246.726562 246.269531 244.992188 248.222656 C 243.582031 249.816406 243.5 251.90625 243.449219 253.289062 L 242.835938 269.359375 C 242.792969 270.480469 242.691406 273.105469 244.6875 274.558594 Z M 244.6875 274.558594 " style=" stroke:none;fill-rule:nonzero;fill:rgb(0%,0%,0%);fill-opacity:1;" />
<path d="M 154.257812 307.226562 C 151.914062 306.113281 149.457031 307.226562 148.140625 307.824219 C 147.121094 308.285156 146.671875 309.480469 147.132812 310.496094 C 147.59375 311.511719 148.792969 311.964844 149.804688 311.503906 C 150.476562 311.199219 151.878906 310.5625 152.527344 310.875 C 153.003906 311.101562 153.199219 312.105469 152.910156 312.867188 C 152.449219 314.101562 151.105469 315.035156 149.652344 315.140625 C 148.195312 315.246094 146.59375 314.566406 145.46875 313.359375 C 143.441406 311.191406 143.257812 307.375 145.074219 305.023438 C 146.886719 302.671875 150.625 301.878906 153.238281 303.28125 C 154.21875 303.808594 155.445312 303.445312 155.972656 302.460938 C 156.503906 301.480469 156.136719 300.253906 155.152344 299.726562 C 150.757812 297.355469 144.921875 298.601562 141.875 302.558594 C 138.824219 306.515625 139.105469 312.472656 142.519531 316.121094 C 144.339844 318.070312 146.855469 319.191406 149.351562 319.191406 C 149.550781 319.191406 149.746094 319.183594 149.945312 319.171875 C 152.964844 318.949219 155.675781 316.992188 156.695312 314.289062 C 157.597656 311.878906 156.925781 308.496094 154.257812 307.226562 Z M 154.257812 307.226562 " style=" stroke:none;fill-rule:nonzero;fill:rgb(0%,0%,0%);fill-opacity:1;" />
<path d="M 179.199219 312.378906 L 168.136719 313.359375 C 167.96875 313.375 167.503906 313.410156 167.265625 313.382812 C 167.21875 313.242188 167.164062 312.953125 167.136719 312.359375 L 167.003906 309.574219 L 174.558594 308.886719 C 175.667969 308.785156 176.488281 307.804688 176.386719 306.691406 C 176.285156 305.582031 175.316406 304.777344 174.195312 304.863281 L 166.808594 305.535156 L 166.707031 303.429688 C 166.703125 303.382812 166.699219 303.300781 166.699219 303.207031 C 166.796875 303.199219 166.917969 303.191406 167.082031 303.1875 L 179.167969 302.796875 C 180.28125 302.761719 181.15625 301.828125 181.121094 300.714844 C 181.085938 299.597656 180.136719 298.683594 179.035156 298.757812 L 166.953125 299.148438 C 166.207031 299.171875 164.464844 299.226562 163.402344 300.617188 C 162.578125 301.6875 162.640625 302.945312 162.671875 303.621094 L 163.101562 312.554688 C 163.148438 313.484375 163.242188 315.417969 164.769531 316.597656 C 165.664062 317.289062 166.695312 317.433594 167.523438 317.433594 C 167.898438 317.433594 168.230469 317.402344 168.492188 317.382812 L 179.554688 316.402344 C 180.667969 316.304688 181.488281 315.324219 181.390625 314.214844 C 181.292969 313.105469 180.328125 312.296875 179.199219 312.378906 Z M 179.199219 312.378906 " style=" stroke:none;fill-rule:nonzero;fill:rgb(0%,0%,0%);fill-opacity:1;" />
<path d="M 199.332031 301.164062 C 196.175781 299.554688 191.996094 299.605469 188.925781 301.285156 C 186.445312 302.644531 184.925781 304.902344 184.65625 307.640625 C 184.394531 310.285156 185.394531 312.976562 187.398438 315.027344 C 189.289062 316.960938 191.859375 318.070312 194.386719 318.070312 C 194.601562 318.070312 194.8125 318.0625 195.023438 318.046875 C 199.257812 317.730469 202.816406 314.503906 203.679688 310.195312 C 204.445312 306.378906 202.78125 302.917969 199.332031 301.164062 Z M 199.71875 309.402344 C 199.289062 311.542969 197.4375 313.816406 194.722656 314.019531 C 193.167969 314.144531 191.511719 313.457031 190.285156 312.203125 C 189.121094 311.011719 188.535156 309.492188 188.675781 308.035156 C 188.8125 306.628906 189.550781 305.546875 190.867188 304.828125 C 191.847656 304.292969 193.039062 304.023438 194.238281 304.023438 C 195.378906 304.023438 196.527344 304.269531 197.496094 304.761719 C 200.082031 306.078125 199.914062 308.445312 199.71875 309.402344 Z M 199.71875 309.402344 " style=" stroke:none;fill-rule:nonzero;fill:rgb(0%,0%,0%);fill-opacity:1;" />
<path d="M 223.332031 299.738281 C 223.101562 298.894531 222.355469 298.292969 221.480469 298.25 C 220.609375 298.199219 219.804688 298.730469 219.496094 299.546875 L 217.164062 305.65625 L 213.371094 299.542969 C 212.917969 298.8125 212.050781 298.445312 211.214844 298.632812 C 210.378906 298.820312 209.75 299.515625 209.648438 300.371094 L 207.953125 314.710938 C 207.824219 315.820312 208.613281 316.824219 209.722656 316.957031 C 209.800781 316.964844 209.882812 316.96875 209.960938 316.96875 C 210.972656 316.96875 211.84375 316.214844 211.964844 315.1875 L 212.980469 306.578125 L 215.878906 311.25 C 216.285156 311.902344 217.003906 312.269531 217.789062 312.199219 C 218.550781 312.125 219.210938 311.625 219.480469 310.910156 L 221.058594 306.78125 L 223.023438 314.015625 C 223.316406 315.09375 224.429688 315.726562 225.503906 315.433594 C 226.582031 315.140625 227.214844 314.03125 226.921875 312.957031 Z M 223.332031 299.738281 " style=" stroke:none;fill-rule:nonzero;fill:rgb(0%,0%,0%);fill-opacity:1;" />
<path d="M 243.441406 311.167969 L 234.035156 312.285156 C 234.003906 312.289062 233.976562 312.292969 233.953125 312.296875 L 233.820312 309.417969 L 240.050781 308.765625 C 241.160156 308.652344 241.96875 307.660156 241.851562 306.550781 C 241.738281 305.441406 240.753906 304.640625 239.632812 304.75 L 233.632812 305.375 L 233.546875 303.488281 L 242.28125 302.851562 C 243.394531 302.769531 244.230469 301.800781 244.148438 300.6875 C 244.066406 299.574219 243.109375 298.746094 241.988281 298.820312 L 231.292969 299.601562 C 230.203125 299.679688 229.371094 300.617188 229.421875 301.707031 L 229.917969 312.546875 C 229.945312 313.140625 230 314.378906 230.90625 315.324219 C 231.726562 316.179688 232.773438 316.359375 233.582031 316.359375 C 233.960938 316.359375 234.285156 316.320312 234.511719 316.296875 L 243.917969 315.175781 C 245.027344 315.042969 245.816406 314.039062 245.6875 312.929688 C 245.554688 311.824219 244.542969 311.046875 243.441406 311.167969 Z M 243.441406 311.167969 " style=" stroke:none;fill-rule:nonzero;fill:rgb(0%,0%,0%);fill-opacity:1;" />
<path d="M 245.996094 302.175781 C 246.050781 303.253906 246.945312 304.089844 248.011719 304.089844 C 248.046875 304.089844 248.082031 304.089844 248.121094 304.089844 L 254.558594 303.753906 L 254.675781 314.980469 C 254.6875 316.089844 255.589844 316.980469 256.699219 316.980469 C 256.703125 316.980469 256.710938 316.980469 256.71875 316.980469 C 257.835938 316.96875 258.730469 316.054688 258.71875 314.9375 L 258.597656 303.546875 L 263.265625 303.304688 C 264.378906 303.25 265.238281 302.296875 265.179688 301.183594 C 265.121094 300.070312 264.132812 299.210938 263.058594 299.273438 L 247.910156 300.054688 C 246.796875 300.113281 245.9375 301.0625 245.996094 302.175781 Z M 245.996094 302.175781 " style=" stroke:none;fill-rule:nonzero;fill:rgb(0%,0%,0%);fill-opacity:1;" />
<path d="M 270.425781 315.46875 C 270.449219 316.574219 271.347656 317.453125 272.445312 317.453125 C 272.460938 317.453125 272.472656 317.453125 272.484375 317.453125 C 273.597656 317.429688 274.488281 316.511719 274.464844 315.394531 L 274.398438 311.878906 L 281.726562 316.144531 C 282.695312 316.707031 283.929688 316.382812 284.492188 315.417969 C 285.050781 314.453125 284.726562 313.214844 283.761719 312.65625 L 279.023438 309.898438 C 279.828125 309.617188 280.605469 309.261719 281.347656 308.839844 C 283.914062 307.375 285.230469 305.089844 284.785156 302.875 C 284.484375 301.390625 283.425781 300.117188 281.875 299.378906 C 280.726562 298.832031 279.558594 298.671875 278.527344 298.527344 C 276.992188 298.320312 274.140625 297.929688 272.117188 299.78125 C 270.167969 301.5625 270.21875 304.339844 270.246094 305.832031 Z M 274.84375 302.761719 C 275.160156 302.472656 275.738281 302.390625 276.339844 302.390625 C 276.945312 302.390625 277.574219 302.476562 277.976562 302.53125 C 278.792969 302.640625 279.558594 302.746094 280.136719 303.023438 C 280.542969 303.21875 280.792969 303.5 280.828125 303.675781 C 280.898438 304.027344 280.320312 304.777344 279.351562 305.332031 C 277.816406 306.203125 276.0625 306.664062 274.304688 306.664062 L 274.289062 305.753906 C 274.269531 304.902344 274.242188 303.3125 274.84375 302.761719 Z M 274.84375 302.761719 " style=" stroke:none;fill-rule:nonzero;fill:rgb(0%,0%,0%);fill-opacity:1;" />
<path d="M 294.375 308.773438 L 295.089844 317.941406 C 295.171875 319 296.054688 319.804688 297.101562 319.804688 C 297.152344 319.804688 297.207031 319.800781 297.257812 319.796875 C 298.371094 319.710938 299.203125 318.738281 299.117188 317.625 L 298.542969 310.238281 C 298.664062 310.144531 298.777344 310.042969 298.878906 309.921875 L 304.746094 302.785156 C 305.457031 301.921875 305.332031 300.648438 304.46875 299.941406 C 303.605469 299.234375 302.335938 299.355469 301.628906 300.21875 L 297.070312 305.761719 L 291.171875 300.695312 C 290.324219 299.96875 289.050781 300.066406 288.324219 300.914062 C 287.597656 301.757812 287.695312 303.035156 288.539062 303.761719 Z M 294.375 308.773438 " style=" stroke:none;fill-rule:nonzero;fill:rgb(0%,0%,0%);fill-opacity:1;" />
</g>
</svg>