<svg xmlns="http://www.w3.org/2000/svg" version="1.1" viewBox="0 -72 512.00003 512">
<g id="surface1">
<path d="M 333.753906 320.332031 C 311.457031 325.980469 288.730469 327.226562 271.421875 327.683594 C 266.910156 327.800781 262.4375 327.859375 258.128906 327.859375 C 228.164062 327.859375 204.089844 325.011719 182.363281 318.894531 C 163.226562 313.511719 135.859375 302.453125 114.164062 280.320312 L 107.980469 274.015625 L 109.042969 282.78125 C 110.566406 295.359375 114.21875 305.316406 120.535156 314.117188 C 134.574219 333.691406 159.164062 342.398438 176.4375 347.246094 C 202.371094 354.535156 229.496094 358.230469 257.058594 358.230469 C 287.402344 358.230469 317.136719 353.78125 345.4375 345.003906 C 374.660156 335.949219 382.902344 324.40625 386.5625 316.511719 C 389.445312 310.28125 390.285156 303.597656 390.691406 298.46875 L 391.230469 291.660156 L 385.851562 295.867188 C 371.714844 306.925781 354.1875 315.15625 333.753906 320.332031 Z M 333.753906 320.332031 " style=" stroke:none;fill-rule:nonzero;fill:rgb(35.686275%,36.470588%,42.745098%);fill-opacity:1;" />
<path d="M 505.136719 98.078125 L 503.859375 95.730469 L 289.328125 182.136719 C 276.925781 187.136719 262.863281 192.800781 248.414062 194.417969 L 245.789062 194.714844 L 245.273438 229.304688 L 248.378906 229.238281 C 261.980469 228.964844 275.65625 223.441406 286.640625 219.003906 L 471.539062 144.390625 C 480.179688 140.898438 489.117188 137.289062 496.339844 131.148438 C 504.332031 124.371094 508.628906 115.285156 507.835938 106.839844 C 507.550781 103.796875 506.640625 100.851562 505.136719 98.078125 Z M 505.136719 98.078125 " style=" stroke:none;fill-rule:nonzero;fill:rgb(57.647059%,60.784314%,66.666667%);fill-opacity:1;" />
<path d="M 76.859375 122.339844 L 78.941406 123.367188 L 80.460938 121.609375 C 84.65625 116.75 91.257812 114.371094 97.660156 112.351562 C 140.160156 98.964844 184.074219 88.847656 228.183594 82.277344 C 229.316406 82.105469 230.722656 81.894531 232.148438 81.792969 L 234.074219 81.589844 L 234.757812 79.816406 C 239.085938 72.546875 245.601562 67.742188 252.636719 66.632812 C 253.585938 66.484375 254.554688 66.410156 255.519531 66.410156 C 262.695312 66.410156 269.332031 70.585938 271.65625 76.570312 C 273.117188 80.320312 272.625 84.792969 270.335938 88.542969 C 268.324219 91.851562 265.21875 93.957031 261.816406 94.316406 C 261.398438 94.359375 260.976562 94.382812 260.558594 94.382812 C 255.726562 94.382812 251.542969 91.457031 247.5 88.632812 C 243.980469 86.167969 240.335938 83.617188 236.230469 82.964844 C 235.480469 82.851562 234.703125 82.792969 233.847656 82.792969 C 231.953125 82.792969 230.035156 83.078125 228.339844 83.332031 C 184.355469 89.875 140.496094 99.984375 97.980469 113.378906 C 92.816406 115.003906 86.964844 117.042969 82.867188 120.714844 L 79.566406 123.675781 L 111.003906 139.199219 C 136.519531 151.804688 162.128906 164.453125 188.433594 177.417969 C 203.308594 184.757812 220.171875 193.070312 237.953125 193.769531 C 238.78125 193.800781 239.609375 193.816406 240.4375 193.816406 C 257.519531 193.816406 274.207031 187.082031 288.933594 181.144531 L 503.410156 94.761719 L 500.21875 91.554688 C 492.464844 83.753906 480.175781 78.964844 471.609375 76.039062 L 299.953125 17.53125 C 295.882812 16.140625 291.398438 14.214844 287.414062 12.5 C 278.6875 8.773438 269.660156 4.917969 261.695312 4.167969 C 261.070312 4.101562 260.378906 4.070312 259.589844 4.070312 C 251.707031 4.070312 242.125 7.875 233.675781 11.230469 L 233.519531 11.292969 C 229.808594 12.761719 226.304688 14.144531 223.160156 15.128906 L 38.773438 73.027344 C 30.585938 75.597656 22.117188 78.253906 15.160156 83.53125 C 14.179688 84.273438 13.214844 85.105469 12.285156 86.015625 L 9.25 88.976562 L 13.054688 90.851562 C 34.671875 101.511719 55.832031 111.953125 76.859375 122.339844 Z M 76.859375 122.339844 " style=" stroke:none;fill-rule:nonzero;fill:rgb(57.647059%,60.784314%,66.666667%);fill-opacity:1;" />
<path d="M 247.46875 230.332031 L 247.054688 230.332031 C 230.867188 230.207031 215.636719 222.769531 202.195312 216.203125 L 108.65625 170.550781 L 108.261719 247.957031 C 108.25 250.289062 108.21875 252.621094 108.191406 254.933594 L 108.1875 255.035156 C 108.097656 262.3125 108.011719 269.1875 108.4375 276.066406 L 108.5 277.113281 L 109.199219 277.890625 C 131.574219 302.738281 161.042969 314.933594 181.828125 320.789062 C 203.757812 326.953125 228 329.820312 258.113281 329.820312 C 262.417969 329.820312 266.914062 329.761719 271.476562 329.640625 C 288.882812 329.1875 311.746094 327.933594 334.238281 322.230469 C 356.367188 316.621094 375.109375 307.488281 389.945312 295.082031 L 390.964844 294.230469 L 395.441406 181.089844 L 395.460938 180.980469 L 395.460938 176.246094 L 287.046875 219.988281 C 275.054688 224.835938 261.464844 230.332031 247.46875 230.332031 Z M 247.46875 230.332031 " style=" stroke:none;fill-rule:nonzero;fill:rgb(57.647059%,60.784314%,66.666667%);fill-opacity:1;" />
<path d="M 240.90625 228.859375 L 244.210938 229.253906 L 244.726562 194.789062 L 241.160156 194.875 C 240.921875 194.882812 240.6875 194.890625 240.449219 194.890625 C 239.59375 194.890625 238.746094 194.871094 237.910156 194.84375 C 219.921875 194.140625 202.945312 185.765625 187.96875 178.382812 C 157.925781 163.570312 128.808594 149.191406 99.6875 134.8125 L 79.203125 124.691406 L 78.09375 127.917969 C 76.613281 132.226562 76.597656 137.199219 76.722656 142.355469 C 76.804688 145.34375 76.851562 148.496094 76.859375 151.992188 L 76.867188 153.859375 L 202.664062 215.25 C 214.171875 220.863281 227.210938 227.230469 240.90625 228.859375 Z M 240.90625 228.859375 " style=" stroke:none;fill-rule:nonzero;fill:rgb(57.647059%,60.784314%,66.666667%);fill-opacity:1;" />
<path d="M 75.660156 142.34375 C 75.542969 137.683594 75.398438 131.886719 77.359375 126.824219 L 78.347656 124.265625 L 75.890625 123.050781 C 58.871094 114.644531 41.769531 106.207031 24.410156 97.640625 L 8.691406 89.886719 L 7.273438 92.285156 C 4.769531 96.535156 3.699219 101.070312 4.179688 105.402344 C 5.527344 117.492188 17.824219 125.039062 29.675781 130.828125 L 75.839844 153.347656 L 75.769531 148.464844 C 75.742188 146.449219 75.710938 144.40625 75.660156 142.34375 Z M 75.660156 142.34375 " style=" stroke:none;fill-rule:nonzero;fill:rgb(57.647059%,60.784314%,66.666667%);fill-opacity:1;" />
<path d="M 255.5 67.476562 C 254.59375 67.476562 253.6875 67.546875 252.804688 67.6875 C 247.050781 68.59375 241.40625 72.304688 237.320312 77.867188 L 234.867188 81.207031 L 238.808594 82.492188 C 242.097656 83.566406 244.984375 85.578125 248.042969 87.710938 L 248.144531 87.785156 C 252.222656 90.628906 256.074219 93.3125 260.554688 93.3125 C 260.929688 93.3125 261.308594 93.292969 261.703125 93.253906 C 264.777344 92.921875 267.597656 91 269.433594 87.980469 C 271.507812 84.566406 271.976562 80.339844 270.65625 76.953125 C 268.488281 71.371094 262.253906 67.476562 255.5 67.476562 Z M 255.5 67.476562 " style=" stroke:none;fill-rule:nonzero;fill:rgb(97.647059%,84.705882%,53.72549%);fill-opacity:1;" />
<path d="M 84.527344 263.695312 C 80.445312 265.953125 77.078125 267.988281 72.160156 267.65625 C 72.089844 267.652344 70.632812 267.554688 70.632812 267.554688 L 68.8125 267.023438 C 68.054688 266.800781 67.3125 266.519531 66.542969 266.160156 L 63.480469 264.738281 L 62.429688 267.945312 C 55.152344 290.09375 50.011719 313.019531 47.144531 336.078125 C 46.449219 341.601562 46 346.957031 48.078125 351.75 C 49.09375 354.082031 50.792969 356.265625 52.992188 358.0625 L 57.816406 362.011719 L 57.828125 361.089844 C 59.25 361.746094 60.742188 362.296875 62.285156 362.703125 C 63.964844 363.144531 65.71875 363.457031 67.648438 363.664062 L 69.25 363.835938 L 69.25 363.875 L 69.753906 363.890625 L 71.226562 364.050781 L 71.214844 363.929688 L 71.960938 363.949219 C 72.617188 363.96875 73.273438 363.976562 73.9375 363.976562 C 76.375 363.976562 78.867188 363.863281 81.09375 363.765625 L 82.683594 363.679688 L 82.691406 363.785156 L 84.296875 363.585938 C 84.296875 363.585938 84.640625 363.566406 84.640625 363.542969 L 85.898438 363.386719 C 92.089844 362.617188 96.03125 360.570312 97.953125 357.117188 C 99.914062 353.597656 99.394531 349.421875 98.578125 344.726562 Z M 84.527344 263.695312 " style=" stroke:none;fill-rule:nonzero;fill:rgb(97.647059%,84.705882%,53.72549%);fill-opacity:1;" />
<path d="M 77.160156 226.921875 C 75.894531 226.921875 74.5625 227.117188 73.21875 227.507812 C 67.199219 229.21875 61.777344 234.355469 59.078125 240.90625 C 56.574219 246.972656 56.726562 253.292969 59.484375 258.246094 C 62.269531 263.261719 67.832031 266.632812 73.328125 266.632812 C 73.675781 266.632812 74.023438 266.617188 74.378906 266.589844 C 82.863281 265.914062 89.0625 257.65625 90.796875 249.851562 C 92.34375 242.910156 90.070312 234.671875 85.382812 230.261719 C 83.019531 228.042969 80.253906 226.921875 77.160156 226.921875 Z M 77.160156 226.921875 " style=" stroke:none;fill-rule:nonzero;fill:rgb(97.647059%,84.705882%,53.72549%);fill-opacity:1;" />
<path d="M 511.890625 106.460938 C 510.0625 87.027344 488.769531 77.59375 472.917969 72.1875 L 301.257812 13.675781 C 297.484375 12.386719 293.382812 10.632812 289.039062 8.777344 C 280.015625 4.914062 270.683594 0.925781 262.058594 0.113281 C 252.882812 -0.757812 241.878906 3.601562 232.175781 7.445312 C 228.480469 8.910156 224.988281 10.292969 221.945312 11.25 L 37.554688 69.144531 C 29.433594 71.691406 20.222656 74.585938 12.703125 80.285156 C 3.933594 86.933594 -0.882812 96.730469 0.132812 105.855469 C 1.703125 119.910156 15.046875 128.214844 27.894531 134.484375 L 72.800781 156.398438 C 72.777344 165.679688 72.554688 174.816406 72.335938 183.746094 C 72.011719 196.648438 71.6875 209.972656 71.976562 223.628906 C 64.734375 225.746094 58.515625 231.613281 55.316406 239.347656 C 52.335938 246.5625 52.558594 254.171875 55.929688 260.230469 C 56.839844 261.863281 57.964844 263.34375 59.25 264.644531 C 51.53125 287.648438 46.097656 311.5 43.105469 335.578125 C 42.375 341.449219 41.871094 347.660156 44.347656 353.367188 C 47.097656 359.695312 53.257812 364.53125 61.242188 366.636719 C 65.445312 367.746094 69.785156 368.042969 73.96875 368.042969 C 76.464844 368.042969 78.90625 367.9375 81.234375 367.835938 C 89.039062 367.5 97.554688 366.199219 101.503906 359.101562 C 104.324219 354.039062 103.277344 348.015625 102.585938 344.03125 L 88.945312 265.382812 C 88.832031 264.726562 88.535156 264.152344 88.128906 263.683594 C 91.503906 259.945312 93.773438 255.210938 94.769531 250.742188 C 96.636719 242.355469 93.925781 232.71875 88.175781 227.304688 C 85.542969 224.820312 82.417969 223.367188 79.035156 222.972656 C 78.765625 209.652344 79.085938 196.582031 79.398438 183.925781 C 79.597656 176.050781 79.792969 168.011719 79.851562 159.84375 L 104.574219 171.90625 L 104.1875 247.941406 C 104.175781 250.261719 104.148438 252.578125 104.117188 254.886719 C 103.851562 275.8125 103.578125 297.453125 117.226562 316.488281 C 131.996094 337.089844 157.460938 346.148438 175.332031 351.171875 C 201.753906 358.597656 229.386719 362.300781 257.039062 362.300781 C 287.425781 362.300781 317.835938 357.824219 346.640625 348.898438 C 361.375 344.332031 381.925781 336.183594 390.25 318.226562 C 394.449219 309.171875 394.851562 299.011719 395.207031 290.046875 L 399.511719 181.050781 C 399.554688 179.96875 399.09375 178.992188 398.351562 178.3125 L 473.003906 148.183594 C 481.546875 144.734375 491.230469 140.828125 498.972656 134.257812 C 507.976562 126.609375 512.808594 116.21875 511.890625 106.460938 Z M 72.65625 142.445312 C 72.707031 144.472656 72.742188 146.496094 72.765625 148.515625 L 30.992188 128.128906 C 19.875 122.703125 8.347656 115.722656 7.160156 105.070312 C 6.707031 101.003906 7.890625 97.152344 9.863281 93.816406 C 31.792969 104.625 53.238281 115.214844 74.554688 125.738281 C 72.382812 131.375 72.535156 137.636719 72.65625 142.445312 Z M 95.621094 345.242188 C 96.613281 350.941406 96.769531 359.28125 89.011719 359.496094 C 81.886719 359.695312 74.898438 361.519531 67.734375 360.320312 C 61.539062 359.285156 53.535156 356.78125 50.832031 350.550781 C 49.058594 346.476562 49.484375 341.554688 50.117188 336.449219 C 52.96875 313.535156 58.066406 290.828125 65.285156 268.882812 C 69.769531 270.960938 77.835938 271.300781 82.148438 268.550781 C 83.996094 272.019531 83.964844 278.03125 84.644531 281.945312 C 86.066406 290.152344 87.492188 298.363281 88.914062 306.574219 C 91.128906 319.335938 93.34375 332.097656 95.554688 344.859375 C 95.578125 344.984375 95.597656 345.113281 95.621094 345.242188 Z M 83.328125 232.445312 C 87.226562 236.117188 89.179688 243.324219 87.871094 249.203125 C 86.371094 255.9375 81.171875 263.039062 74.140625 263.597656 C 69.488281 263.957031 64.539062 261.167969 62.105469 256.792969 C 59.789062 252.632812 59.695312 247.257812 61.851562 242.050781 C 64.210938 236.332031 68.882812 231.863281 74.039062 230.386719 C 75.125 230.074219 76.164062 229.921875 77.160156 229.921875 C 79.476562 229.921875 81.542969 230.765625 83.328125 232.445312 Z M 78.191406 119.652344 C 57.160156 109.265625 36 98.816406 14.375 88.15625 C 15.226562 87.335938 16.101562 86.578125 16.976562 85.914062 C 23.515625 80.957031 31.730469 78.378906 39.675781 75.886719 L 224.0625 17.992188 C 227.351562 16.957031 230.960938 15.53125 234.78125 14.015625 C 243.046875 10.742188 252.328125 7.066406 259.59375 7.066406 C 260.210938 7.066406 260.8125 7.09375 261.394531 7.148438 C 268.921875 7.859375 277.734375 11.628906 286.257812 15.273438 C 290.730469 17.1875 294.953125 18.992188 298.980469 20.367188 L 470.636719 78.878906 C 479.808594 82.007812 491.035156 86.570312 498.089844 93.667969 L 287.8125 178.363281 C 272.585938 184.496094 255.328125 191.449219 238.070312 190.773438 C 220.945312 190.101562 204.378906 181.9375 189.765625 174.730469 C 159.730469 159.925781 130.613281 145.542969 101.496094 131.160156 C 95.957031 128.425781 90.417969 125.6875 84.871094 122.949219 C 88.453125 119.742188 93.699219 117.871094 98.882812 116.238281 C 141.199219 102.90625 184.902344 92.832031 228.777344 86.300781 C 231.132812 85.949219 233.570312 85.585938 235.773438 85.933594 C 239.167969 86.472656 242.378906 88.714844 245.777344 91.09375 C 250.402344 94.324219 255.640625 97.980469 262.125 97.296875 C 266.46875 96.835938 270.398438 94.214844 272.90625 90.101562 C 275.671875 85.5625 276.25 80.097656 274.453125 75.480469 C 271.25 67.242188 261.667969 62.171875 252.171875 63.667969 C 244.246094 64.921875 236.960938 70.246094 232.183594 78.277344 C 232.082031 78.449219 232 78.621094 231.929688 78.800781 C 230.429688 78.910156 229.007812 79.121094 227.734375 79.308594 C 183.496094 85.898438 139.429688 96.050781 96.757812 109.496094 C 89.882812 111.660156 82.859375 114.242188 78.191406 119.652344 Z M 239.746094 79.644531 C 243.335938 74.746094 248.25 71.445312 253.273438 70.648438 C 259.46875 69.675781 265.871094 72.917969 267.863281 78.042969 C 268.851562 80.582031 268.46875 83.792969 266.867188 86.421875 C 265.515625 88.640625 263.515625 90.039062 261.382812 90.265625 C 257.523438 90.667969 253.957031 88.183594 249.828125 85.296875 C 246.695312 83.109375 243.476562 80.859375 239.746094 79.644531 Z M 79.863281 151.980469 C 79.847656 148.761719 79.804688 145.523438 79.722656 142.265625 C 79.597656 137.234375 79.628906 132.671875 80.925781 128.886719 C 86.742188 131.757812 92.554688 134.628906 98.363281 137.5 C 127.480469 151.882812 156.601562 166.265625 186.636719 181.074219 C 201.886719 188.589844 219.167969 197.109375 237.792969 197.835938 C 238.679688 197.871094 239.5625 197.890625 240.445312 197.890625 C 240.859375 197.890625 241.265625 197.867188 241.675781 197.859375 L 241.257812 225.882812 C 228.085938 224.308594 215.371094 218.105469 203.980469 212.550781 Z M 383.839844 315.25 C 380.417969 322.628906 372.625 333.441406 344.546875 342.144531 C 290.816406 358.796875 231.402344 359.585938 177.246094 344.363281 C 160.398438 339.628906 136.445312 331.160156 122.96875 312.367188 C 116.273438 303.03125 113.304688 292.976562 112.023438 282.417969 C 133.929688 304.769531 161.414062 316.117188 181.550781 321.785156 C 203.394531 327.929688 227.980469 330.863281 258.132812 330.863281 C 262.46875 330.863281 266.925781 330.804688 271.5 330.683594 C 288.964844 330.222656 311.902344 328.960938 334.492188 323.238281 C 355.371094 317.953125 373.238281 309.542969 387.695312 298.230469 C 387.230469 304.152344 386.28125 309.984375 383.839844 315.25 Z M 392.449219 180.773438 L 388.144531 289.765625 C 388.105469 290.765625 388.0625 291.769531 388.019531 292.777344 C 373.542969 304.890625 355.210938 313.824219 333.5 319.324219 C 311.296875 324.949219 288.648438 326.191406 271.394531 326.644531 C 235.425781 327.589844 207.226562 324.8125 182.644531 317.898438 C 161.914062 312.0625 133.210938 300.074219 111.429688 275.882812 C 111.007812 269.082031 111.097656 262.097656 111.1875 254.972656 C 111.214844 252.644531 111.246094 250.3125 111.257812 247.976562 L 111.625 175.347656 L 200.878906 218.902344 C 214.617188 225.605469 230.1875 233.203125 247.027344 233.332031 C 247.175781 233.335938 247.320312 233.335938 247.464844 233.335938 C 262.003906 233.335938 275.898438 227.726562 288.167969 222.777344 L 392.460938 180.6875 C 392.460938 180.714844 392.449219 180.742188 392.449219 180.773438 Z M 494.398438 128.867188 C 487.527344 134.695312 478.800781 138.222656 470.355469 141.625 L 285.523438 216.222656 C 274.105469 220.828125 261.191406 225.976562 248.320312 226.238281 L 248.753906 197.394531 C 263.554688 195.738281 277.6875 190.0625 290.453125 184.921875 L 502.503906 99.507812 C 503.761719 101.828125 504.59375 104.359375 504.851562 107.125 C 505.550781 114.585938 501.644531 122.714844 494.398438 128.867188 Z M 494.398438 128.867188 " style=" stroke:none;fill-rule:nonzero;fill:rgb(0%,0%,0%);fill-opacity:1;" />
</g>
</svg>