<svg xmlns="http://www.w3.org/2000/svg"  version="1.1" viewBox="-19 1 511 511.999" >
<g id="surface1">
<path d="M 468.359375 66.304688 L 468.078125 40.644531 L 468.070312 40.65625 L 467.960938 29.960938 L 463.015625 34.4375 C 452.523438 43.929688 443.695312 55.238281 435.15625 66.175781 L 290.996094 250.734375 L 294.105469 252.425781 C 298.867188 255.015625 303.566406 257.960938 308.078125 261.171875 L 310.332031 262.78125 L 312.113281 260.660156 C 365.003906 197.722656 417.066406 132.585938 466.882812 67.015625 Z M 468.359375 66.304688 " style=" stroke:none;fill-rule:nonzero;fill:rgb(35.686275%,81.568627%,98.823529%);fill-opacity:1;" />
<path d="M 404.335938 207.835938 C 383.207031 234.246094 361.359375 261.550781 340.632812 288.503906 L 338.597656 290.292969 L 340.273438 292.519531 C 342.105469 294.945312 343.878906 297.445312 345.535156 299.957031 L 347.421875 302.804688 L 350.003906 300.570312 C 350.101562 300.484375 350.195312 300.394531 350.296875 300.289062 C 381.921875 273.933594 410.742188 244.089844 435.957031 211.582031 C 446.375 198.171875 456.796875 183.464844 462.5 166.769531 C 465.5625 157.769531 467.460938 147.644531 468.304688 135.816406 L 469.003906 125.929688 L 462.9375 133.765625 C 443.535156 158.828125 422.707031 184.863281 404.335938 207.835938 Z M 404.335938 207.835938 " style=" stroke:none;fill-rule:nonzero;fill:rgb(35.686275%,81.568627%,98.823529%);fill-opacity:1;" />
<path d="M 33.660156 58.523438 L 34.785156 59.945312 L 36.566406 59.609375 C 100.710938 47.5 166.449219 41.363281 231.957031 41.363281 C 233.308594 41.363281 234.664062 41.363281 236.019531 41.371094 C 303.09375 41.609375 370.269531 48.253906 435.679688 61.113281 L 437.480469 61.46875 L 438.613281 60.027344 C 443.128906 54.300781 448.53125 47.617188 454.339844 41.460938 L 455.507812 40.222656 L 457.433594 38.285156 C 459.539062 36.171875 461.703125 34.144531 463.859375 32.261719 L 468.410156 28.289062 L 462.5 27.0625 C 389.078125 11.804688 313.199219 4.070312 236.980469 4.070312 L 236.378906 4.070312 C 161.085938 4.109375 85.070312 11.6875 10.441406 26.597656 L 4.421875 27.800781 L 9.070312 31.8125 C 18.507812 39.953125 26.464844 49.464844 33.660156 58.523438 Z M 33.660156 58.523438 " style=" stroke:none;fill-rule:nonzero;fill:rgb(35.686275%,81.568627%,98.823529%);fill-opacity:1;" />
<path d="M 374.429688 137.453125 L 376.773438 139.167969 L 403.375 105.121094 L 398.820312 104.039062 C 345.757812 91.457031 290.9375 85.074219 235.878906 85.074219 C 181.339844 85.074219 126.996094 91.339844 74.363281 103.6875 L 69.796875 104.761719 L 95.226562 137.3125 C 95.226562 137.3125 97.234375 136.773438 97.277344 136.757812 C 141.890625 127.261719 187.984375 122.445312 234.277344 122.445312 C 281.605469 122.445312 328.703125 127.476562 374.300781 137.398438 C 374.367188 137.410156 374.414062 137.441406 374.429688 137.453125 Z M 374.429688 137.453125 " style=" stroke:none;fill-rule:nonzero;fill:rgb(35.686275%,81.568627%,98.823529%);fill-opacity:1;" />
<path d="M 10.441406 34.4375 L 5.496094 29.960938 L 5.390625 40.65625 L 5.378906 40.644531 L 5.097656 66.304688 L 6.574219 67.015625 C 56.394531 132.582031 108.511719 197.792969 161.480469 260.839844 L 163.191406 262.875 L 165.417969 261.421875 C 169.964844 258.453125 174.808594 255.683594 179.820312 253.183594 L 183.101562 251.542969 L 38.300781 66.171875 C 29.761719 55.234375 20.933594 43.929688 10.441406 34.4375 Z M 10.441406 34.4375 " style=" stroke:none;fill-rule:nonzero;fill:rgb(35.686275%,81.568627%,98.823529%);fill-opacity:1;" />
<path d="M 4.4375 125.882812 L 5.15625 135.847656 C 6.011719 147.703125 7.910156 157.820312 10.960938 166.769531 C 16.660156 183.460938 27.085938 198.171875 37.5 211.578125 C 62.367188 243.632812 90.789062 273.140625 121.980469 299.289062 L 124.449219 301.359375 L 126.339844 298.753906 C 127.703125 296.867188 129.132812 294.996094 130.582031 293.1875 L 133.121094 290.011719 L 129.570312 288.609375 Z M 4.4375 125.882812 " style=" stroke:none;fill-rule:nonzero;fill:rgb(35.686275%,81.568627%,98.823529%);fill-opacity:1;" />
<path d="M 468.308594 61.875 L 463.023438 68.824219 C 413.96875 133.292969 362.753906 197.339844 310.792969 259.191406 L 308.777344 261.589844 L 311.816406 263.921875 C 312.441406 264.402344 313.070312 264.886719 313.695312 265.375 C 322.574219 272.363281 330.683594 280.421875 337.796875 289.320312 L 340.183594 292.308594 L 342.515625 289.277344 C 363.222656 262.367188 384.898438 235.269531 405.871094 209.050781 C 426.484375 183.277344 447.800781 156.628906 468.066406 130.328125 L 468.652344 129.566406 L 468.6875 128.609375 C 468.972656 120.867188 468.894531 113.054688 468.8125 105.496094 Z M 468.308594 61.875 " style=" stroke:none;fill-rule:nonzero;fill:rgb(69.803922%,91.764706%,97.647059%);fill-opacity:1;" />
<path d="M 400.386719 108.953125 L 434.3125 65.515625 C 434.816406 64.871094 435.320312 64.226562 435.824219 63.570312 L 438.789062 59.722656 L 434.019531 58.792969 C 369.039062 46.160156 302.421875 39.640625 236.03125 39.410156 C 234.605469 39.402344 233.1875 39.402344 231.761719 39.402344 C 167.027344 39.402344 101.933594 45.421875 38.289062 57.300781 L 33.433594 58.203125 L 71.128906 106.460938 L 73 106.019531 C 126.050781 93.421875 180.84375 87.035156 235.867188 87.035156 C 290.746094 87.035156 345.386719 93.390625 398.261719 105.921875 Z M 400.386719 108.953125 " style=" stroke:none;fill-rule:nonzero;fill:rgb(69.803922%,91.764706%,97.647059%);fill-opacity:1;" />
<path d="M 10.4375 68.824219 L 5.152344 61.875 L 4.644531 105.492188 C 4.566406 113.058594 4.484375 120.878906 4.769531 128.621094 L 4.808594 129.578125 L 128.042969 289.839844 L 130.007812 293.765625 L 132.945312 290.269531 C 141.503906 280.085938 151.324219 271.128906 162.128906 263.648438 L 164.835938 261.773438 L 162.714844 259.25 C 110.699219 197.339844 59.464844 133.269531 10.4375 68.824219 Z M 10.4375 68.824219 " style=" stroke:none;fill-rule:nonzero;fill:rgb(69.803922%,91.764706%,97.647059%);fill-opacity:1;" />
<path d="M 305.253906 276.742188 C 284.816406 260.660156 261.875 252.160156 238.910156 252.160156 C 234.578125 252.160156 230.214844 252.472656 225.925781 253.089844 C 206.789062 255.875 188.210938 262.890625 172.203125 273.382812 C 150.1875 287.8125 132.519531 309.152344 122.457031 333.460938 C 111.425781 360.074219 109.90625 390.011719 118.289062 415.59375 C 125.46875 437.53125 140.105469 457.464844 159.503906 471.726562 C 178.699219 485.839844 203.144531 494 228.335938 494.710938 C 229.53125 494.742188 230.726562 494.757812 231.921875 494.757812 C 255.828125 494.757812 279.417969 487.964844 298.347656 475.621094 C 318.308594 462.597656 334.539062 442.578125 344.046875 419.253906 C 353.558594 395.910156 355.945312 370.25 350.765625 347 C 344.871094 320.484375 328.28125 294.875 305.253906 276.742188 Z M 322.890625 410.519531 C 315.183594 429.410156 302.050781 445.605469 285.910156 456.128906 C 270.59375 466.117188 251.5 471.621094 232.148438 471.621094 C 231.1875 471.621094 230.226562 471.601562 229.253906 471.570312 C 208.871094 471.007812 189.09375 464.40625 173.558594 452.984375 C 157.855469 441.433594 146.011719 425.304688 140.210938 407.566406 C 133.429688 386.871094 134.660156 362.648438 143.582031 341.105469 C 151.726562 321.429688 166.03125 304.160156 183.851562 292.476562 C 196.796875 283.996094 211.835938 278.316406 227.339844 276.058594 C 230.859375 275.546875 234.449219 275.285156 238.007812 275.285156 C 258.3125 275.285156 278.996094 283.785156 296.246094 299.222656 C 312.378906 313.65625 324.070312 332.910156 328.328125 352.050781 C 332.515625 370.859375 330.585938 391.621094 322.890625 410.519531 Z M 322.890625 410.519531 " style=" stroke:none;fill-rule:nonzero;fill:rgb(96.862745%,70.196078%,43.529412%);fill-opacity:1;" />
<path d="M 312.238281 355.667969 C 308.269531 337.832031 297.113281 320.617188 281.636719 308.441406 C 267.90625 297.628906 252.476562 291.910156 237.007812 291.910156 C 234.097656 291.910156 231.160156 292.121094 228.277344 292.539062 C 215.402344 294.414062 202.917969 299.128906 192.175781 306.171875 C 177.382812 315.863281 165.507812 330.203125 158.738281 346.554688 C 151.320312 364.457031 150.300781 384.585938 155.9375 401.773438 C 160.769531 416.53125 170.613281 429.941406 183.652344 439.527344 C 197.175781 449.46875 214.484375 454.941406 232.390625 454.941406 C 248.734375 454.941406 264.160156 450.515625 276.996094 442.144531 C 304.558594 424.164062 319.378906 387.796875 312.238281 355.667969 Z M 215.085938 316.925781 L 215.542969 316.621094 C 219.261719 314.117188 223.109375 311.535156 227.046875 309.746094 C 227.179688 309.691406 228.550781 309.171875 236.679688 307.511719 C 239.355469 306.972656 242.902344 306.28125 244.6875 306.097656 L 245.929688 364.859375 L 256.648438 363.492188 C 257.035156 363.445312 257.433594 363.398438 257.804688 363.398438 C 258.011719 363.398438 258.195312 363.410156 258.351562 363.441406 C 259.890625 363.726562 260.828125 365.648438 260.734375 367.261719 C 260.628906 369.023438 259.6875 370.734375 258.804688 372.207031 L 221.386719 374.9375 C 220.714844 374.984375 219.832031 375.039062 218.980469 375.039062 C 216.382812 375.039062 214.703125 374.539062 213.53125 373.421875 C 211.65625 371.632812 211.628906 368.445312 211.75 366.152344 L 227.238281 365.367188 L 227.519531 362.832031 C 228.921875 350.246094 229.242188 337.484375 228.472656 324.898438 L 228.191406 320.253906 L 224.078125 322.425781 C 223.21875 322.878906 222.359375 323.324219 221.460938 323.785156 C 219.179688 324.960938 216.820312 326.179688 214.476562 327.59375 C 214.25 327.738281 213.867188 327.976562 213.539062 327.976562 L 213.535156 327.976562 C 213.027344 327.9375 212.566406 326.777344 212.441406 326.433594 L 210.171875 320.132812 C 211.804688 319.121094 213.402344 318.050781 215.085938 316.925781 Z M 251.15625 412.792969 L 249.386719 413.339844 L 249.078125 415.164062 C 248.015625 421.492188 241.777344 426.839844 235.457031 426.839844 L 235.289062 426.839844 C 229.007812 426.753906 222.867188 421.316406 221.882812 414.96875 L 221.554688 412.851562 L 219.445312 412.476562 C 206.414062 410.15625 194.417969 405.378906 182.820312 400.765625 C 179.535156 399.449219 176.054688 398.0625 172.574219 396.742188 C 173.511719 394.925781 174.652344 393.128906 175.757812 391.386719 L 175.984375 391.03125 C 176.296875 390.539062 176.609375 390.050781 176.914062 389.5625 L 178.925781 390.371094 L 180.328125 388.796875 C 184.5625 384.035156 191.242188 381.195312 198.199219 381.195312 C 198.816406 381.195312 199.4375 381.21875 200.054688 381.261719 C 207.191406 381.773438 214.414062 385.136719 220.402344 390.734375 C 224.5625 394.613281 228.242188 399.675781 231.34375 405.78125 L 234.148438 411.304688 L 236.742188 405.675781 C 241.703125 394.90625 249.589844 386.71875 258.941406 382.617188 C 263.148438 380.773438 267.824219 379.800781 272.464844 379.800781 C 280.523438 379.800781 288.074219 382.6875 293.183594 387.71875 L 294.566406 389.082031 L 297.695312 387.859375 L 299.039062 393.390625 C 283.691406 401.207031 267.585938 407.734375 251.15625 412.792969 Z M 251.15625 412.792969 " style=" stroke:none;fill-rule:nonzero;fill:rgb(96.862745%,70.196078%,43.529412%);fill-opacity:1;" />
<path d="M 313.035156 266.222656 C 290.40625 248.40625 265.015625 238.988281 239.609375 238.988281 C 234.808594 238.988281 229.984375 239.335938 225.277344 240.023438 C 204.019531 243.117188 183.40625 250.898438 165.664062 262.53125 C 141.238281 278.535156 121.628906 302.214844 110.445312 329.203125 C 98.226562 358.71875 96.539062 391.894531 105.816406 420.234375 C 113.773438 444.527344 129.988281 466.609375 151.480469 482.40625 C 172.761719 498.046875 199.863281 507.09375 227.796875 507.878906 C 229.125 507.917969 230.453125 507.9375 231.78125 507.9375 C 258.269531 507.9375 284.417969 500.402344 305.40625 486.722656 C 327.53125 472.289062 345.523438 450.09375 356.066406 424.222656 C 366.609375 398.34375 369.257812 369.898438 363.527344 344.117188 C 356.988281 314.722656 338.585938 286.328125 313.035156 266.222656 Z M 342.230469 418.507812 C 332.867188 441.480469 316.902344 461.179688 297.269531 473.976562 C 278.660156 486.117188 255.449219 492.800781 231.910156 492.800781 C 230.734375 492.800781 229.558594 492.78125 228.394531 492.75 C 203.597656 492.058594 179.546875 484.03125 160.664062 470.152344 C 141.597656 456.132812 127.207031 436.539062 120.148438 414.984375 C 111.910156 389.847656 113.40625 360.402344 124.261719 334.207031 C 134.179688 310.253906 151.589844 289.234375 173.28125 275.019531 C 189.046875 264.6875 207.351562 257.777344 226.210938 255.027344 C 230.378906 254.421875 234.648438 254.113281 238.902344 254.113281 C 261.4375 254.113281 283.957031 262.46875 304.03125 278.277344 C 326.71875 296.136719 343.058594 321.339844 348.859375 347.421875 C 353.949219 370.300781 351.59375 395.546875 342.230469 418.507812 Z M 342.230469 418.507812 " style=" stroke:none;fill-rule:nonzero;fill:rgb(97.647059%,84.705882%,53.72549%);fill-opacity:1;" />
<path d="M 290.832031 296.03125 C 274.484375 283.167969 256.152344 276.371094 237.820312 276.371094 C 234.371094 276.371094 230.894531 276.621094 227.488281 277.121094 C 212.160156 279.34375 197.277344 284.960938 184.445312 293.371094 C 166.8125 304.925781 152.652344 322.019531 144.566406 341.511719 C 135.746094 362.824219 134.53125 386.78125 141.226562 407.234375 C 146.972656 424.773438 158.679688 440.714844 174.191406 452.117188 C 190.285156 463.953125 210.894531 470.472656 232.21875 470.472656 C 251.675781 470.472656 270.042969 465.203125 285.328125 455.234375 C 318.148438 433.824219 335.796875 390.523438 327.289062 352.28125 C 322.570312 331.058594 309.285156 310.558594 290.832031 296.03125 Z M 275.921875 440.496094 C 263.609375 448.527344 248.152344 452.949219 232.398438 452.949219 C 214.878906 452.949219 197.980469 447.621094 184.816406 437.941406 C 172.105469 428.605469 162.511719 415.546875 157.800781 401.164062 C 152.308594 384.402344 153.308594 364.769531 160.550781 347.296875 C 167.160156 331.320312 178.773438 317.296875 193.253906 307.808594 C 203.769531 300.914062 215.980469 296.308594 228.5625 294.480469 C 231.34375 294.074219 234.191406 293.867188 237.027344 293.867188 C 252.039062 293.867188 267.046875 299.4375 280.425781 309.976562 C 295.550781 321.878906 306.445312 338.6875 310.320312 356.09375 C 317.300781 387.457031 302.832031 422.953125 275.921875 440.496094 Z M 275.921875 440.496094 " style=" stroke:none;fill-rule:nonzero;fill:rgb(97.647059%,84.705882%,53.72549%);fill-opacity:1;" />
<path d="M 295.203125 386.726562 L 292.992188 384.898438 C 292.820312 384.753906 292.640625 384.617188 292.460938 384.476562 L 289.320312 381.996094 L 287.945312 384.78125 C 287.753906 384.78125 287.558594 384.777344 287.363281 384.777344 C 286.988281 384.777344 286.617188 384.800781 286.246094 384.808594 L 287.054688 381.070312 C 282.671875 378.945312 277.636719 377.824219 272.5 377.824219 C 267.589844 377.824219 262.632812 378.863281 258.164062 380.820312 C 249.839844 384.46875 242.421875 391.421875 237.277344 400.398438 L 240.347656 402.898438 C 239.816406 403.375 239.277344 403.84375 238.761719 404.335938 L 240.65625 407.648438 C 238.453125 408.257812 236.191406 408.679688 233.929688 408.679688 C 233.476562 408.679688 233.019531 408.660156 232.5625 408.628906 C 229.976562 408.433594 227.390625 407.640625 224.949219 406.730469 L 225.953125 405.195312 C 226.429688 405.691406 226.90625 406.183594 227.363281 406.699219 L 232.246094 403.28125 C 229.226562 397.695312 225.695312 392.988281 221.746094 389.296875 C 215.441406 383.40625 207.789062 379.855469 200.195312 379.308594 C 199.53125 379.257812 198.859375 379.234375 198.191406 379.234375 C 192.921875 379.234375 187.683594 380.765625 183.453125 383.542969 L 177.28125 387.59375 L 176.148438 387.136719 L 174.828125 389.203125 L 174.191406 389.621094 L 174.574219 389.601562 L 174.109375 390.328125 C 173.257812 391.664062 172.296875 393.179688 171.429688 394.726562 L 169.738281 397.75 L 172.972656 398.988281 C 176.0625 400.175781 179.121094 401.390625 182.101562 402.574219 C 194.582031 407.546875 206.382812 412.242188 219.847656 414.53125 C 220.59375 422.238281 227.476562 428.6875 235.308594 428.800781 L 235.46875 428.800781 C 243.199219 428.800781 250.199219 422.480469 251.097656 414.859375 C 267.621094 409.8125 283.796875 403.304688 299.183594 395.515625 L 301.300781 394.445312 L 299.082031 385.21875 Z M 181.390625 389.246094 L 185.253906 389.046875 C 185.402344 389.039062 185.550781 389.039062 185.695312 389.035156 L 185.378906 390.851562 Z M 181.390625 389.246094 " style=" stroke:none;fill-rule:nonzero;fill:rgb(97.647059%,84.705882%,53.72549%);fill-opacity:1;" />
<path d="M 211.222656 328.433594 L 212.785156 330.804688 L 215.257812 329.410156 C 215.371094 329.347656 215.476562 329.285156 215.566406 329.230469 C 217.785156 327.882812 220.09375 326.695312 222.394531 325.507812 C 223.640625 324.871094 225.035156 324.15625 226.414062 323.402344 C 227.320312 336.730469 227 350.210938 225.46875 363.484375 L 209.808594 364.285156 L 209.757812 367.085938 C 209.71875 369.375 209.921875 372.671875 212.175781 374.839844 C 214.207031 376.777344 217.019531 377.003906 218.957031 377.003906 C 219.882812 377.003906 220.816406 376.941406 221.527344 376.890625 L 259.992188 374.085938 L 260.785156 372.710938 C 261.667969 371.1875 262.582031 369.359375 262.683594 367.382812 C 262.835938 364.890625 261.390625 362.011719 258.636719 361.496094 C 258.386719 361.457031 258.105469 361.433594 257.804688 361.433594 C 257.300781 361.433594 256.800781 361.492188 256.371094 361.550781 L 247.847656 362.636719 L 246.605469 303.796875 L 243.226562 304.3125 C 239.308594 304.910156 228.046875 307.222656 226.347656 307.90625 L 226.222656 307.960938 C 222.238281 309.78125 218.34375 312.382812 214.582031 314.898438 L 213.796875 315.421875 C 212.488281 316.300781 211.160156 317.1875 209.824219 318.03125 L 207.789062 319.320312 L 210.597656 327.09375 C 210.800781 327.660156 211 328.089844 211.222656 328.433594 Z M 211.222656 328.433594 " style=" stroke:none;fill-rule:nonzero;fill:rgb(97.647059%,84.705882%,53.72549%);fill-opacity:1;" />
<path d="M 226.902344 273.089844 C 210.980469 275.40625 195.523438 281.242188 182.210938 289.96875 C 163.894531 301.972656 149.191406 319.722656 140.8125 339.953125 C 131.617188 362.144531 130.359375 387.132812 137.355469 408.5 C 143.363281 426.839844 155.589844 443.492188 171.78125 455.398438 C 187.804688 467.175781 208.1875 473.988281 229.171875 474.574219 C 230.164062 474.605469 231.15625 474.617188 232.144531 474.617188 C 252.109375 474.617188 271.679688 468.992188 287.550781 458.640625 C 304.203125 447.78125 317.742188 431.089844 325.667969 411.648438 C 333.59375 392.203125 335.578125 370.808594 331.261719 351.394531 C 321.734375 308.5625 276.539062 265.871094 226.902344 273.089844 Z M 283.6875 452.722656 C 268.566406 462.582031 250.40625 467.46875 232.21875 467.46875 C 212.136719 467.46875 192.027344 461.507812 175.96875 449.703125 C 160.953125 438.664062 149.628906 423.25 144.074219 406.304688 C 137.597656 386.511719 138.785156 363.316406 147.34375 342.664062 C 155.183594 323.730469 168.945312 307.117188 186.085938 295.882812 C 198.542969 287.71875 213.011719 282.257812 227.921875 280.085938 C 231.199219 279.609375 234.503906 279.375 237.820312 279.375 C 255.328125 279.375 273.175781 285.949219 288.976562 298.390625 C 306.890625 312.492188 319.785156 332.371094 324.359375 352.933594 C 332.605469 390.007812 315.5 431.972656 283.6875 452.722656 Z M 283.6875 452.722656 " style=" stroke:none;fill-rule:nonzero;fill:rgb(0%,0%,0%);fill-opacity:1;" />
<path d="M 305.894531 275.921875 C 281.339844 256.59375 252.890625 248.121094 225.78125 252.0625 C 206.488281 254.871094 187.765625 261.941406 171.640625 272.511719 C 149.453125 287.050781 131.644531 308.554688 121.492188 333.058594 C 110.371094 359.902344 108.84375 390.105469 117.296875 415.921875 C 124.550781 438.066406 139.320312 458.179688 158.890625 472.566406 C 178.257812 486.804688 202.910156 495.039062 228.308594 495.75 C 229.511719 495.785156 230.707031 495.800781 231.910156 495.800781 C 256.0625 495.800781 279.730469 489 298.914062 476.492188 C 319.050781 463.359375 335.421875 443.171875 345.007812 419.644531 C 354.597656 396.117188 357.003906 370.238281 351.785156 346.773438 C 345.832031 320.019531 329.109375 294.195312 305.894531 275.921875 Z M 341.269531 418.121094 C 331.984375 440.894531 316.160156 460.421875 296.707031 473.109375 C 277.253906 485.792969 253.015625 492.394531 228.421875 491.714844 C 203.839844 491.023438 179.992188 483.066406 161.28125 469.3125 C 142.386719 455.421875 128.128906 436.011719 121.136719 414.664062 C 112.980469 389.753906 114.46875 360.570312 125.226562 334.605469 C 135.070312 310.839844 152.339844 289.988281 173.855469 275.886719 C 189.492188 265.640625 207.648438 258.78125 226.363281 256.0625 C 230.515625 255.457031 234.703125 255.160156 238.90625 255.160156 C 261.007812 255.160156 283.503906 263.4375 303.394531 279.097656 C 325.890625 296.804688 342.089844 321.792969 347.84375 347.648438 C 352.882812 370.320312 350.550781 395.347656 341.269531 418.121094 Z M 341.269531 418.121094 " style=" stroke:none;fill-rule:nonzero;fill:rgb(0%,0%,0%);fill-opacity:1;" />
<path d="M 282.28125 307.621094 C 265.695312 294.566406 246.464844 288.84375 228.128906 291.511719 C 215.113281 293.402344 202.484375 298.175781 191.605469 305.304688 C 176.636719 315.113281 164.621094 329.621094 157.773438 346.152344 C 150.269531 364.273438 149.238281 384.664062 154.949219 402.101562 C 159.847656 417.0625 169.820312 430.648438 183.039062 440.363281 C 197.132812 450.722656 214.773438 455.953125 232.398438 455.953125 C 248.351562 455.949219 264.296875 451.660156 277.5625 443.011719 C 305.476562 424.804688 320.488281 387.976562 313.25 355.445312 C 309.234375 337.382812 297.945312 319.953125 282.28125 307.621094 Z M 275.355469 439.628906 C 248.792969 456.945312 210.976562 455.886719 185.429688 437.105469 C 172.886719 427.886719 163.425781 415.007812 158.785156 400.84375 C 153.371094 384.3125 154.363281 364.941406 161.507812 347.699219 C 168.046875 331.90625 179.523438 318.050781 193.816406 308.683594 C 204.207031 301.871094 216.273438 297.316406 228.710938 295.507812 C 231.457031 295.109375 234.230469 294.910156 237.011719 294.910156 C 251.664062 294.910156 266.582031 300.402344 279.78125 310.796875 C 294.726562 322.5625 305.488281 339.15625 309.308594 356.324219 C 316.191406 387.273438 301.914062 422.308594 275.355469 439.628906 Z M 275.355469 439.628906 " style=" stroke:none;fill-rule:nonzero;fill:rgb(0%,0%,0%);fill-opacity:1;" />
<path d="M 257.742188 379.867188 C 247.703125 384.269531 239.234375 393.089844 234.019531 404.421875 C 230.757812 398 226.878906 392.671875 222.453125 388.535156 C 215.972656 382.480469 208.09375 378.832031 200.265625 378.269531 C 191.726562 377.652344 183.332031 380.914062 178.089844 386.796875 L 177.269531 386.464844 C 176.351562 386.097656 175.304688 386.445312 174.789062 387.289062 C 174.285156 388.117188 173.757812 388.945312 173.230469 389.773438 C 171.878906 391.902344 170.476562 394.105469 169.386719 396.417969 C 169.144531 396.929688 169.128906 397.515625 169.34375 398.039062 C 169.554688 398.5625 169.976562 398.972656 170.503906 399.167969 C 174.285156 400.589844 178.0625 402.09375 181.714844 403.546875 C 193.476562 408.226562 205.621094 413.0625 218.914062 415.429688 C 220.117188 423.171875 227.367188 429.730469 235.253906 429.839844 C 235.324219 429.84375 235.390625 429.84375 235.460938 429.84375 C 243.351562 429.84375 250.738281 423.402344 252.035156 415.65625 C 268.894531 410.464844 285.394531 403.757812 301.09375 395.714844 C 301.925781 395.285156 302.355469 394.347656 302.136719 393.4375 L 300.347656 386.0625 C 300.210938 385.496094 299.835938 385.019531 299.316406 384.746094 C 298.800781 384.480469 298.195312 384.445312 297.652344 384.65625 L 295.289062 385.574219 C 286.109375 376.542969 270.671875 374.195312 257.742188 379.867188 Z M 288.558594 387.785156 C 289.351562 387.785156 290.035156 387.320312 290.367188 386.648438 C 290.605469 386.835938 290.847656 387.019531 291.078125 387.214844 L 247.605469 404.125 C 245.457031 404.964844 243.167969 405.839844 240.828125 406.515625 C 253.511719 394.441406 271.007812 387.472656 288.523438 387.785156 C 288.535156 387.785156 288.546875 387.785156 288.558594 387.785156 Z M 259.367188 383.566406 C 268.046875 379.757812 277.957031 380 285.746094 383.773438 C 268.980469 384.179688 252.433594 390.765625 239.875 401.886719 C 244.6875 393.496094 251.503906 387.015625 259.367188 383.566406 Z M 199.976562 382.300781 C 206.886719 382.796875 213.886719 386.058594 219.695312 391.488281 C 223.417969 394.96875 226.742188 399.402344 229.613281 404.714844 C 218.503906 392.175781 201.828125 385.179688 185.097656 386.054688 C 189.289062 383.304688 194.59375 381.90625 199.976562 382.300781 Z M 224.917969 405.617188 C 224.054688 405.289062 223.199219 404.945312 222.351562 404.601562 L 186.148438 390.039062 C 200.382812 389.570312 214.917969 395.460938 224.917969 405.617188 Z M 297.832031 392.839844 C 282.382812 400.65625 266.160156 407.160156 249.601562 412.179688 C 248.800781 412.421875 248.230469 413.136719 248.171875 413.972656 C 247.730469 420.3125 241.816406 425.804688 235.46875 425.800781 C 235.414062 425.800781 235.363281 425.800781 235.3125 425.800781 C 228.902344 425.710938 223.050781 420.015625 222.789062 413.613281 C 222.75 412.652344 222.039062 411.855469 221.09375 411.703125 C 207.632812 409.515625 195.769531 404.792969 183.207031 399.792969 C 180.21875 398.605469 177.148438 397.382812 174.046875 396.195312 C 174.847656 394.761719 175.753906 393.335938 176.640625 391.941406 C 176.871094 391.578125 177.105469 391.210938 177.332031 390.847656 L 220.84375 408.351562 C 224.296875 409.738281 228.207031 411.3125 232.335938 411.617188 C 238.347656 412.066406 244.046875 409.847656 249.070312 407.890625 L 296.964844 389.257812 Z M 297.832031 392.839844 " style=" stroke:none;fill-rule:nonzero;fill:rgb(0%,0%,0%);fill-opacity:1;" />
<path d="M 209.617188 327.445312 C 210.414062 329.652344 211.652344 330.839844 213.296875 330.972656 C 214.542969 331.074219 215.507812 330.488281 216.082031 330.136719 C 218.300781 328.789062 220.628906 327.59375 222.882812 326.433594 C 223.738281 325.992188 224.609375 325.542969 225.484375 325.082031 C 226.234375 337.535156 225.917969 350.097656 224.535156 362.496094 L 210.722656 363.199219 C 209.699219 363.25 208.878906 364.0625 208.8125 365.085938 C 208.640625 367.707031 208.320312 372.589844 211.457031 375.589844 C 213.53125 377.574219 216.269531 378.039062 218.976562 378.039062 C 219.863281 378.039062 220.746094 377.988281 221.597656 377.925781 L 259.535156 375.164062 C 260.191406 375.113281 260.785156 374.75 261.121094 374.183594 C 262.214844 372.359375 263.570312 370.089844 263.726562 367.4375 C 263.894531 364.496094 262.132812 361.097656 258.894531 360.492188 C 257.90625 360.308594 256.976562 360.425781 256.234375 360.523438 L 248.859375 361.460938 L 247.671875 305.132812 C 247.671875 304.445312 247.304688 303.777344 246.726562 303.402344 C 245.964844 302.914062 245.582031 302.664062 236.09375 304.574219 C 234.617188 304.871094 227.199219 306.378906 225.816406 307.007812 C 221.679688 308.890625 217.707031 311.554688 213.867188 314.128906 C 211.820312 315.503906 209.886719 316.800781 207.929688 317.988281 C 207.105469 318.488281 206.75 319.496094 207.074219 320.402344 Z M 216.121094 317.484375 C 219.824219 314.996094 223.65625 312.425781 227.472656 310.691406 C 228.710938 310.1875 239.289062 307.949219 243.679688 307.277344 L 244.871094 363.789062 C 244.882812 364.363281 245.136719 364.90625 245.570312 365.277344 C 246.007812 365.652344 246.578125 365.828125 247.144531 365.753906 L 256.746094 364.527344 C 257.261719 364.460938 257.789062 364.394531 258.15625 364.460938 C 259.117188 364.640625 259.761719 366.058594 259.695312 367.203125 C 259.617188 368.546875 258.929688 369.925781 258.191406 371.210938 L 221.308594 373.894531 C 218.59375 374.09375 215.8125 374.160156 214.253906 372.671875 C 212.96875 371.441406 212.722656 369.3125 212.761719 367.140625 L 226.449219 366.441406 C 227.433594 366.394531 228.234375 365.640625 228.351562 364.664062 C 230.054688 350.421875 230.371094 335.949219 229.300781 321.648438 C 229.25 320.957031 228.847656 320.339844 228.238281 320.015625 C 227.625 319.691406 226.890625 319.703125 226.289062 320.042969 C 224.566406 321.023438 222.773438 321.949219 221.035156 322.84375 C 218.722656 324.03125 216.328125 325.261719 213.988281 326.683594 C 213.933594 326.71875 213.839844 326.773438 213.746094 326.824219 C 213.664062 326.679688 213.550781 326.445312 213.421875 326.078125 L 211.433594 320.570312 C 213.007812 319.570312 214.582031 318.511719 216.121094 317.484375 Z M 216.121094 317.484375 " style=" stroke:none;fill-rule:nonzero;fill:rgb(0%,0%,0%);fill-opacity:1;" />
<path d="M 472.871094 104.917969 L 472.007812 29.070312 C 472 28.304688 471.734375 27.578125 471.289062 26.988281 C 471.042969 25.613281 469.996094 24.460938 468.546875 24.152344 C 393.300781 8.125 315.394531 0 236.980469 0 C 236.78125 0 236.578125 0 236.378906 0 C 158.851562 0.0390625 80.683594 8.019531 4.050781 23.714844 C 2.136719 24.105469 0.90625 25.972656 1.296875 27.886719 C 1.34375 28.113281 1.414062 28.328125 1.5 28.535156 C 1.46875 28.714844 1.453125 28.890625 1.449219 29.070312 L 0.582031 104.917969 C 0.355469 124.890625 0.0976562 147.53125 7.109375 168.082031 C 12.992188 185.320312 23.644531 200.375 34.277344 214.074219 C 59.503906 246.578125 88.296875 276.429688 119.855469 302.820312 C 114.699219 310.675781 110.273438 318.992188 106.6875 327.640625 C 94.097656 358.039062 92.371094 392.246094 101.949219 421.496094 C 110.164062 446.59375 126.902344 469.386719 149.070312 485.683594 C 171.007812 501.8125 198.925781 511.136719 227.675781 511.941406 C 229.035156 511.980469 230.394531 512 231.753906 512 C 259.101562 512 285.902344 504.296875 307.628906 490.128906 C 330.4375 475.253906 348.976562 452.394531 359.832031 425.757812 C 370.6875 399.125 373.410156 369.816406 367.496094 343.238281 C 364.503906 329.769531 359.089844 316.511719 351.699219 304.121094 C 352.089844 303.984375 352.460938 303.78125 352.796875 303.503906 C 384.675781 276.945312 413.738281 246.855469 439.179688 214.074219 C 449.8125 200.375 460.464844 185.320312 466.347656 168.082031 C 473.359375 147.53125 473.101562 124.890625 472.871094 104.917969 Z M 315.550781 263.019531 C 314.734375 262.378906 313.910156 261.746094 313.085938 261.125 C 365.164062 199.136719 416.382812 135.078125 465.410156 70.640625 L 465.804688 104.996094 C 465.894531 112.773438 465.980469 120.652344 465.6875 128.5 C 445.441406 154.773438 424.140625 181.40625 403.519531 207.1875 C 382.492188 233.476562 360.753906 260.652344 340.136719 287.445312 C 332.96875 278.480469 324.707031 270.230469 315.550781 263.019531 Z M 130.652344 288.34375 C 130.625 288.296875 130.601562 288.25 130.566406 288.203125 L 7.769531 128.511719 C 7.476562 120.660156 7.566406 112.777344 7.652344 105 L 8.046875 70.640625 C 57.09375 135.105469 108.328125 199.183594 160.421875 261.183594 C 149.367188 268.832031 139.332031 278.011719 130.652344 288.34375 Z M 163.78125 258.90625 C 110.777344 195.832031 58.648438 130.605469 8.824219 65.003906 C 8.628906 64.75 8.386719 64.5625 8.117188 64.429688 C 8.160156 60.699219 8.320312 56.953125 8.421875 53.246094 C 8.484375 51.019531 10.03125 37.992188 8.382812 36.789062 C 19.183594 44.660156 27.738281 57.519531 35.945312 68.023438 C 36.644531 68.921875 178.476562 250.503906 178.476562 250.503906 C 173.410156 253.03125 168.496094 255.835938 163.78125 258.90625 Z M 376.203125 135.03125 C 375.824219 134.761719 375.386719 134.5625 374.90625 134.457031 C 283.878906 114.644531 187.605469 114.441406 96.492188 133.863281 C 96.449219 133.871094 96.410156 133.890625 96.371094 133.898438 L 75.054688 106.609375 C 180.816406 81.789062 292.425781 81.886719 398.132812 106.960938 Z M 400.515625 103.910156 C 400.238281 103.511719 399.832031 103.210938 399.324219 103.089844 C 292.328125 77.667969 179.308594 77.6875 72.3125 103.101562 L 41.511719 63.667969 C 40.625 62.53125 39.730469 61.390625 38.835938 60.246094 C 103.519531 48.175781 169.851562 42.140625 236.019531 42.40625 C 302.332031 42.644531 368.738281 49.160156 433.449219 61.742188 C 432.949219 62.386719 432.445312 63.027344 431.945312 63.667969 Z M 185.035156 247.410156 L 101.21875 140.105469 C 189.78125 121.710938 283.132812 122.007812 371.5625 140.976562 L 289.121094 246.519531 C 268.253906 236.589844 246.109375 232.878906 224.695312 235.992188 C 211.035156 237.980469 197.628906 241.855469 185.035156 247.410156 Z M 437.515625 68.019531 C 446 57.160156 454.730469 45.984375 465.023438 36.664062 C 463.988281 37.601562 464.300781 50.210938 464.421875 52.300781 C 464.660156 56.339844 465.296875 60.300781 465.34375 64.429688 C 465.074219 64.5625 464.828125 64.75 464.636719 65.003906 C 414.859375 130.542969 362.777344 195.710938 309.820312 258.734375 C 305.160156 255.414062 300.390625 252.433594 295.535156 249.789062 Z M 236.382812 7.070312 C 236.585938 7.070312 236.777344 7.070312 236.984375 7.070312 C 313.101562 7.070312 388.738281 14.796875 461.890625 29.996094 C 457.113281 34.171875 453.707031 39.636719 449.019531 43.824219 C 447.410156 45.265625 437.101562 58.335938 436.257812 58.171875 C 370.652344 45.273438 303.292969 38.609375 236.035156 38.367188 C 168.859375 38.105469 101.597656 44.28125 36.007812 56.660156 C 28.429688 47.109375 20.421875 37.644531 11.027344 29.535156 C 85.417969 14.679688 161.203125 7.109375 236.382812 7.070312 Z M 39.863281 209.742188 C 29.605469 196.523438 19.347656 182.054688 13.800781 165.800781 C 10.476562 156.058594 8.882812 145.902344 8.148438 135.632812 L 127.367188 290.664062 C 127.601562 290.96875 127.90625 291.179688 128.238281 291.308594 C 126.753906 293.167969 125.304688 295.058594 123.90625 296.988281 C 92.925781 271.023438 64.652344 241.679688 39.863281 209.742188 Z M 353.285156 423.089844 C 342.96875 448.40625 325.382812 470.113281 303.769531 484.207031 C 282.152344 498.300781 255.195312 505.652344 227.875 504.878906 C 200.546875 504.113281 174.046875 495.273438 153.257812 479.988281 C 132.265625 464.558594 116.429688 443.003906 108.667969 419.300781 C 99.605469 391.628906 101.265625 359.207031 113.21875 330.347656 C 124.167969 303.914062 143.378906 280.722656 167.308594 265.039062 C 184.699219 253.644531 204.894531 246.015625 225.714844 242.988281 C 254.539062 238.792969 284.890625 247.882812 311.179688 268.574219 C 336.195312 288.269531 354.207031 316.042969 360.597656 344.773438 C 366.199219 369.964844 363.601562 397.777344 353.285156 423.089844 Z M 433.59375 209.742188 C 408.464844 242.121094 379.757812 271.839844 348.269531 298.070312 C 348.183594 298.144531 348.117188 298.226562 348.039062 298.304688 C 346.335938 295.730469 344.546875 293.195312 342.671875 290.714844 C 342.75 290.640625 342.828125 290.570312 342.898438 290.480469 C 363.621094 263.53125 385.507812 236.171875 406.675781 209.714844 C 426.097656 185.429688 446.117188 160.394531 465.308594 135.597656 C 464.574219 145.882812 462.980469 156.050781 459.65625 165.800781 C 454.109375 182.054688 443.851562 196.523438 433.59375 209.742188 Z M 433.59375 209.742188 " style=" stroke:none;fill-rule:nonzero;fill:rgb(0%,0%,0%);fill-opacity:1;" />
</g>
</svg>