<svg xmlns="http://www.w3.org/2000/svg"  version="1.1" viewBox="-98 0 512 512.00226" >
<g id="surface1">
<path d="M 231.957031 138.371094 C 215.777344 131.445312 197.3125 127.316406 173.84375 125.378906 C 166.046875 124.738281 158.480469 124.410156 151.355469 124.410156 C 133.59375 124.410156 117.890625 126.359375 103.351562 130.367188 C 78.960938 137.097656 57.941406 150.203125 44.171875 167.277344 C 29.953125 184.894531 21.34375 209.074219 19.265625 237.199219 C 17.402344 262.433594 20.675781 287.890625 23.84375 312.511719 C 25.828125 327.953125 28.765625 343.714844 40.707031 351.984375 C 46.089844 355.71875 52.820312 357.539062 61.289062 357.539062 C 64.597656 357.539062 68.230469 357.25 72.085938 356.679688 C 85.800781 354.648438 95.949219 350.417969 103.113281 343.742188 C 110.710938 336.648438 115.914062 323.847656 111.160156 313.109375 C 111.160156 313.109375 111.148438 313.082031 111.132812 312.996094 L 110.808594 311.296875 L 109.175781 310.726562 C 98.9375 307.160156 89.308594 302.269531 80.558594 296.195312 C 71.78125 290.109375 66.933594 283.445312 66.53125 276.929688 L 66.371094 274.324219 L 63.769531 274.121094 C 58.550781 273.714844 53.039062 272.988281 48.121094 270.445312 C 42.726562 267.667969 37.382812 261.457031 38.398438 254.378906 C 39.425781 247.226562 46.34375 242.808594 51.957031 241.195312 C 56 240.035156 60.257812 239.722656 64.398438 239.425781 L 64.863281 239.390625 C 67.054688 239.230469 69.128906 239.078125 71.238281 238.785156 C 78.25 237.835938 84.894531 235.496094 90.988281 231.820312 C 97.046875 228.164062 102.480469 223.238281 107.144531 217.183594 C 112.328125 210.445312 116.433594 202.34375 119.019531 193.75 C 119.792969 191.183594 120.367188 188.605469 120.996094 185.667969 C 121.335938 184.117188 121.6875 182.515625 122.082031 180.925781 C 122.164062 180.601562 122.234375 180.285156 122.304688 179.980469 L 122.417969 179.476562 C 122.941406 177.128906 123.292969 175.980469 124.277344 175.59375 C 124.46875 175.519531 124.664062 175.480469 124.878906 175.480469 C 125.835938 175.480469 126.898438 176.210938 127.421875 176.566406 C 129.121094 177.730469 130.621094 180.042969 132.074219 182.28125 C 132.929688 183.59375 133.898438 185.082031 134.800781 186.082031 C 137.558594 189.117188 140.570312 191.9375 143.753906 194.464844 C 149.769531 199.246094 156.402344 203.023438 163.46875 205.691406 C 171.761719 208.820312 180.535156 210.410156 189.542969 210.410156 C 199.714844 210.410156 209.9375 208.296875 219.121094 204.289062 C 220.003906 203.898438 220.875 203.496094 221.820312 203.0625 C 225 201.605469 228.289062 200.097656 231.800781 199.464844 C 232.847656 199.277344 233.898438 199.183594 234.925781 199.183594 C 239.003906 199.183594 242.550781 200.652344 244.660156 203.21875 C 247.976562 207.257812 247.460938 212.839844 246.960938 218.273438 C 246.425781 223.992188 245.917969 229.386719 249.753906 232.765625 C 251.519531 234.300781 253.765625 234.953125 256.117188 235.628906 L 256.445312 235.726562 C 257.542969 236.054688 258.679688 236.394531 259.746094 236.828125 C 265.410156 239.160156 269.527344 244.597656 270.238281 250.683594 C 270.953125 256.769531 268.199219 263.011719 263.226562 266.585938 C 259.859375 269.007812 255.828125 270.078125 251.9375 271.113281 C 248.703125 271.972656 245.359375 272.859375 242.429688 274.539062 C 239.078125 276.453125 236.464844 279.234375 233.683594 282.195312 C 233.214844 282.703125 232.742188 283.203125 232.238281 283.71875 C 222.390625 294.03125 210.570312 302.210938 197.097656 308.027344 L 193.609375 309.535156 L 195.882812 312.578125 C 195.933594 312.648438 196.019531 312.789062 196.007812 312.960938 C 194.492188 331.53125 203.019531 349.269531 217.226562 357.101562 C 222.714844 360.125 229.144531 361.726562 235.824219 361.726562 C 243.992188 361.726562 252.042969 359.414062 259.105469 355.042969 C 270.753906 347.832031 279.964844 334.910156 285.039062 318.660156 C 289.621094 304.007812 290.636719 288.433594 291.621094 273.335938 C 294.054688 235.894531 294.675781 202.6875 277.535156 175.453125 C 265.015625 155.582031 245.839844 144.320312 231.957031 138.371094 Z M 231.957031 138.371094 " style=" stroke:none;fill-rule:nonzero;fill:rgb(68.627451%,47.45098%,47.45098%);fill-opacity:1;" />
<path d="M 259.347656 237.820312 C 258.339844 237.398438 257.253906 237.078125 256.203125 236.765625 L 255.835938 236.65625 C 253.449219 235.972656 250.984375 235.265625 249.046875 233.566406 C 244.800781 229.835938 245.355469 223.910156 245.894531 218.171875 C 246.382812 212.976562 246.886719 207.605469 243.835938 203.894531 C 241.902344 201.546875 238.722656 200.253906 234.886719 200.253906 C 233.90625 200.253906 232.9375 200.339844 231.988281 200.507812 C 228.589844 201.128906 225.355469 202.609375 222.21875 204.046875 C 221.328125 204.457031 220.441406 204.867188 219.535156 205.261719 C 210.234375 209.324219 199.855469 211.46875 189.519531 211.46875 C 180.382812 211.46875 171.492188 209.863281 163.09375 206.695312 C 155.945312 204 149.210938 200.160156 143.078125 195.289062 C 139.875 192.75 136.820312 189.890625 134.003906 186.792969 C 133.078125 185.773438 132.140625 184.335938 131.230469 182.945312 L 131.117188 182.773438 C 130.332031 181.570312 129.445312 180.207031 128.5625 179.125 L 124.734375 174.4375 L 123.113281 181.1875 C 122.75 182.671875 122.410156 184.210938 122.085938 185.703125 L 122.007812 186.046875 C 121.433594 188.679688 120.84375 191.402344 120.042969 194.058594 C 117.425781 202.769531 113.257812 210.992188 107.988281 217.832031 C 98.410156 230.28125 85.753906 237.894531 71.390625 239.847656 C 69.183594 240.144531 66.925781 240.308594 64.742188 240.46875 L 64.398438 240.496094 C 60.171875 240.804688 56.179688 241.097656 52.242188 242.21875 C 46.9375 243.757812 40.40625 247.902344 39.457031 254.527344 C 38.515625 261.085938 43.542969 266.886719 48.605469 269.496094 C 54.363281 272.476562 60.917969 272.886719 67.234375 273.285156 C 67.390625 273.296875 67.542969 273.375 67.628906 273.480469 C 67.726562 273.601562 67.769531 273.75 67.742188 273.90625 C 66.246094 283.40625 75.511719 291.398438 81.164062 295.316406 C 101.109375 309.160156 124.808594 316.480469 149.703125 316.480469 C 181.316406 316.480469 211.117188 304.269531 231.460938 282.988281 C 231.945312 282.480469 232.433594 281.964844 232.929688 281.441406 C 235.621094 278.566406 238.410156 275.589844 241.90625 273.605469 C 244.957031 271.863281 248.363281 270.957031 251.660156 270.082031 C 255.464844 269.066406 259.402344 268.015625 262.597656 265.71875 C 267.195312 262.414062 269.839844 256.421875 269.175781 250.816406 C 268.527344 245.195312 264.570312 239.972656 259.347656 237.820312 Z M 259.347656 237.820312 " style=" stroke:none;fill-rule:nonzero;fill:rgb(100%,82.352941%,73.333333%);fill-opacity:1;" />
<path d="M 194.898438 313.515625 L 195.214844 308.917969 L 190.882812 310.492188 C 180.683594 314.195312 169.910156 316.476562 158.863281 317.265625 C 155.898438 317.480469 152.882812 317.589844 149.898438 317.589844 C 138.839844 317.589844 127.832031 316.113281 117.1875 313.207031 L 112.378906 311.890625 L 113.46875 316.757812 C 114.433594 321.054688 114.183594 325.796875 112.742188 330.464844 L 112.296875 331.90625 L 113.1875 333.121094 C 122.339844 345.605469 137.59375 353.441406 152.988281 353.570312 L 153.425781 353.570312 C 169.363281 353.570312 184.96875 345.464844 194.152344 332.414062 C 194.199219 332.347656 194.273438 332.292969 194.371094 332.25 L 196.617188 331.246094 L 196.070312 328.84375 C 194.9375 323.859375 194.542969 318.703125 194.898438 313.515625 Z M 194.898438 313.515625 " style=" stroke:none;fill-rule:nonzero;fill:rgb(100%,82.352941%,73.333333%);fill-opacity:1;" />
<path d="M 154.921875 354.59375 L 151.832031 354.691406 L 152.023438 357.773438 C 152.464844 364.921875 153.890625 375 161.15625 379.976562 C 163.707031 381.722656 166.886719 382.644531 170.347656 382.644531 C 174.398438 382.644531 178.472656 381.367188 181.820312 379.050781 C 187.316406 375.257812 191.449219 368.722656 193.460938 360.644531 C 195.082031 354.105469 195.257812 347.078125 195.296875 341 L 195.34375 333.515625 L 190.140625 338.894531 C 180.902344 348.445312 168.0625 354.167969 154.921875 354.59375 Z M 154.921875 354.59375 " style=" stroke:none;fill-rule:nonzero;fill:rgb(96.862745%,70.196078%,43.529412%);fill-opacity:1;" />
<path d="M 117.863281 340.09375 L 113.859375 336.222656 L 112.828125 341.695312 C 111.476562 348.894531 110.210938 357.226562 112.320312 365.054688 C 114.382812 372.652344 121.253906 380.722656 129.921875 380.722656 C 130.214844 380.722656 130.511719 380.714844 130.8125 380.695312 C 136.007812 380.351562 141.199219 377.019531 144.707031 371.785156 C 147.050781 368.292969 148.714844 364.171875 150.273438 358.007812 L 151.113281 354.6875 L 147.714844 354.292969 C 136.585938 352.992188 125.984375 347.949219 117.863281 340.09375 Z M 117.863281 340.09375 " style=" stroke:none;fill-rule:nonzero;fill:rgb(96.862745%,70.196078%,43.529412%);fill-opacity:1;" />
<path d="M 229.285156 117.074219 L 229.308594 112.011719 C 229.335938 104.496094 229.359375 96.554688 229.257812 89.367188 C 229.191406 84.625 228.945312 80.429688 226.636719 77.136719 C 224.199219 73.683594 219.910156 72.023438 216.089844 70.738281 C 198.167969 64.65625 179.296875 61.574219 159.996094 61.574219 C 134.796875 61.574219 109.597656 66.996094 87.121094 77.25 C 82.015625 79.582031 77.039062 82.417969 75.234375 87.320312 C 74.175781 90.191406 74.402344 93.441406 74.605469 96.300781 L 76.183594 119.789062 L 76.191406 119.785156 L 77.5 139.226562 L 81.480469 137.339844 C 88.355469 134.082031 95.617188 131.386719 103.0625 129.332031 C 117.683594 125.304688 133.472656 123.34375 151.328125 123.34375 C 158.488281 123.34375 166.09375 123.671875 173.929688 124.320312 C 194.3125 126 210.632812 129.261719 225.28125 134.589844 L 229.339844 136.066406 L 229.304688 131.746094 C 229.269531 126.9375 229.277344 121.929688 229.285156 117.074219 Z M 229.285156 117.074219 " style=" stroke:none;fill-rule:nonzero;fill:rgb(92.941176%,42.745098%,40%);fill-opacity:1;" />
<path d="M 149.390625 3.976562 L 149.0625 4.125 L 147.273438 3.308594 L 147.542969 4.8125 L 4.648438 69.332031 L 15.140625 76.222656 L 15.144531 76.21875 L 74.820312 115.339844 L 73.53125 96.371094 C 73.328125 93.394531 73.101562 90.023438 74.230469 86.949219 C 76.179688 81.667969 81.617188 78.59375 86.683594 76.28125 C 109.289062 65.964844 134.652344 60.507812 160.019531 60.507812 C 179.4375 60.507812 198.414062 63.609375 216.429688 69.71875 C 220.425781 71.078125 224.90625 72.835938 227.511719 76.523438 C 230.199219 80.351562 230.273438 85.554688 230.328125 89.351562 C 230.417969 95.914062 230.40625 103.097656 230.386719 109.890625 L 230.375 114.523438 L 234.605469 112.640625 C 247.878906 106.742188 261.046875 100.785156 272.34375 95.664062 C 277.992188 93.105469 283.738281 90.503906 289.558594 87.886719 L 295.519531 85.207031 L 295.515625 85.203125 L 295.816406 85.066406 C 298.914062 83.675781 302.027344 82.277344 305.179688 80.871094 L 311.25 78.164062 L 149.445312 4.300781 Z M 149.390625 3.976562 " style=" stroke:none;fill-rule:nonzero;fill:rgb(92.941176%,42.745098%,40%);fill-opacity:1;" />
<path d="M 291.585938 436.277344 C 291.382812 421.765625 291.175781 406.761719 286.898438 392.621094 C 282.152344 376.945312 272.558594 364.753906 260.578125 359.167969 C 260.515625 359.136719 260.421875 359.085938 260.347656 358.957031 L 258.929688 356.480469 L 256.386719 357.777344 C 249.972656 361.042969 242.859375 362.769531 235.816406 362.769531 C 228.9375 362.769531 222.332031 361.132812 216.714844 358.035156 C 210.804688 354.773438 205.675781 349.714844 201.878906 343.394531 L 196.550781 334.527344 L 196.308594 344.871094 C 196.195312 349.621094 195.894531 355.242188 194.496094 360.898438 C 192.433594 369.210938 188.148438 375.972656 182.429688 379.933594 C 178.898438 382.375 174.613281 383.71875 170.367188 383.71875 C 166.679688 383.71875 163.285156 382.730469 160.550781 380.855469 C 158.328125 379.332031 156.542969 377.355469 155.09375 374.8125 L 151.4375 375.828125 L 151.164062 363.953125 L 145.886719 371.925781 C 145.824219 372.015625 145.59375 372.378906 145.59375 372.378906 C 141.890625 377.898438 136.386719 381.40625 130.878906 381.757812 C 130.558594 381.777344 130.242188 381.785156 129.925781 381.785156 C 120.714844 381.785156 113.449219 373.304688 111.292969 365.328125 C 109.351562 358.136719 110.21875 350.566406 111.195312 344.777344 L 112.917969 334.53125 L 105.996094 342.28125 C 105.179688 343.199219 104.492188 343.914062 103.84375 344.523438 C 96.503906 351.355469 86.167969 355.675781 72.246094 357.730469 C 69.691406 358.113281 67.121094 358.375 64.609375 358.515625 L 63.550781 358.574219 L 62.761719 359.285156 C 62.703125 359.339844 62.613281 359.410156 62.53125 359.429688 C 45.027344 363.785156 29.660156 378.492188 22.425781 397.816406 C 17.507812 410.960938 17.378906 425.175781 17.257812 438.921875 L 16.796875 488.441406 C 16.753906 493.417969 16.917969 497.8125 19.410156 501.1875 C 23.070312 506.164062 30.140625 506.75 36.480469 506.910156 C 42.171875 507.058594 47.886719 507.175781 53.589844 507.296875 L 56.816406 507.363281 L 55.90625 438.753906 C 55.902344 438.570312 55.984375 438.445312 56.058594 438.375 C 56.125 438.304688 56.242188 438.222656 56.425781 438.21875 C 56.734375 438.21875 56.964844 438.433594 56.96875 438.742188 L 57.886719 507.371094 L 60.792969 507.421875 C 79.707031 507.753906 98.933594 507.921875 117.933594 507.921875 C 129.039062 507.921875 140.308594 507.863281 151.425781 507.75 L 152.503906 507.742188 L 152.503906 507.746094 L 155.46875 507.710938 C 183.371094 507.394531 211.6875 506.699219 239.628906 505.648438 L 242.460938 505.542969 L 243.59375 444.910156 C 243.597656 444.625 243.839844 444.390625 244.132812 444.390625 C 244.429688 444.398438 244.660156 444.636719 244.65625 444.9375 L 243.535156 505.515625 L 246.714844 505.386719 C 257.410156 504.957031 266.136719 504.574219 274.171875 504.1875 C 279.976562 503.90625 285.929688 503.28125 289.328125 499.132812 C 292.148438 495.714844 292.324219 490.894531 292.253906 485.839844 Z M 291.585938 436.277344 " style=" stroke:none;fill-rule:nonzero;fill:rgb(97.647059%,84.705882%,53.72549%);fill-opacity:1;" />
<path d="M 19.542969 164.871094 L 25.515625 164.09375 L 25.515625 164.101562 L 35.046875 162.871094 L 35.058594 160.242188 C 35.105469 147.46875 34.371094 131.449219 28.238281 120.871094 C 26.667969 118.175781 24.976562 116.617188 23.046875 116.097656 C 22.609375 115.984375 22.152344 115.925781 21.683594 115.925781 C 20.410156 115.925781 19.023438 116.355469 17.558594 117.207031 C 12.257812 120.296875 11.109375 126.808594 10.445312 132.675781 C 9.445312 141.65625 8.976562 150.796875 9.058594 159.84375 C 9.082031 161.914062 9.273438 163.304688 10.132812 164.230469 C 11.128906 165.363281 12.644531 165.496094 13.695312 165.496094 C 14.367188 165.496094 15.144531 165.4375 16.03125 165.320312 L 19.546875 164.890625 Z M 19.542969 164.871094 " style=" stroke:none;fill-rule:nonzero;fill:rgb(97.647059%,84.705882%,53.72549%);fill-opacity:1;" />
<path d="M 314.027344 74.960938 L 150.527344 0.320312 C 149.601562 -0.105469 148.535156 -0.105469 147.605469 0.3125 L 2.082031 66.03125 C 0.90625 66.5625 0.113281 67.691406 0.0117188 68.976562 C -0.0898438 70.261719 0.519531 71.5 1.597656 72.207031 L 15.042969 81.019531 C 14.882812 81.449219 14.804688 81.914062 14.824219 82.398438 L 16.171875 113.339844 C 15.949219 113.453125 15.730469 113.5625 15.511719 113.691406 C 7.996094 118.070312 6.960938 127.277344 6.40625 132.226562 C 5.378906 141.375 4.902344 150.675781 4.988281 159.875 C 5.003906 161.5625 5.03125 164.703125 7.183594 167.039062 C 9.085938 169.109375 11.699219 169.566406 13.820312 169.566406 C 14.929688 169.566406 15.90625 169.441406 16.574219 169.355469 L 36.019531 166.847656 C 37.769531 166.621094 39.085938 165.136719 39.101562 163.375 C 39.246094 147.0625 38.453125 130.378906 31.761719 118.835938 C 29.652344 115.203125 27.074219 112.960938 24.097656 112.171875 C 23.796875 112.089844 23.492188 112.03125 23.1875 111.980469 L 22.039062 85.609375 L 72.015625 118.363281 L 73.21875 136.15625 C 73.261719 136.804688 73.488281 137.394531 73.828125 137.894531 C 60.796875 145.003906 49.5625 154.113281 41.007812 164.71875 C 26.261719 183 17.339844 207.957031 15.199219 236.898438 C 13.308594 262.519531 16.613281 288.199219 19.808594 313.035156 C 21.816406 328.664062 25.074219 346.105469 38.386719 355.332031 C 41.597656 357.558594 45.238281 359.183594 49.335938 360.222656 C 35.824219 367.433594 24.585938 380.441406 18.617188 396.390625 C 13.453125 410.191406 13.3125 425.433594 13.1875 438.882812 L 12.726562 488.402344 C 12.6875 492.8125 12.628906 498.855469 16.128906 503.605469 C 21.285156 510.601562 31.101562 510.851562 36.371094 510.984375 C 63.417969 511.664062 90.574219 512.003906 117.78125 512.003906 C 170.050781 512.003906 222.464844 510.75 274.367188 508.25 C 280.785156 507.941406 288.003906 507.15625 292.476562 501.71875 C 296.472656 496.855469 296.382812 490.191406 296.320312 485.785156 L 295.648438 436.304688 C 295.449219 421.484375 295.242188 406.160156 290.785156 391.441406 C 285.964844 375.507812 276.351562 362.898438 264.242188 356.472656 C 275.292969 348.492188 283.992188 335.648438 288.921875 319.871094 C 293.648438 304.742188 294.679688 288.914062 295.675781 273.601562 C 298.160156 235.4375 298.769531 201.546875 280.96875 173.285156 C 270.621094 156.851562 254.226562 143.488281 233.554688 134.632812 C 233.503906 134.613281 233.453125 134.59375 233.402344 134.570312 C 233.335938 129.140625 233.335938 123.351562 233.355469 117.585938 C 233.546875 117.535156 233.738281 117.480469 233.925781 117.398438 C 247.746094 111.273438 261.101562 105.222656 274.019531 99.375 C 286.898438 93.542969 300.21875 87.511719 313.984375 81.410156 C 315.257812 80.84375 316.078125 79.585938 316.089844 78.195312 C 316.101562 76.804688 315.292969 75.535156 314.027344 74.960938 Z M 25.644531 122.378906 C 31.84375 133.003906 32.742188 148.152344 32.023438 160.1875 C 27.746094 161.140625 23.4375 161.386719 19.019531 161.710938 C 17.890625 161.792969 13.269531 163.226562 12.382812 162.25 C 12.242188 162.09375 12.074219 161.542969 12.058594 159.808594 C 11.972656 150.890625 12.4375 141.878906 13.429688 133.011719 C 14.007812 127.871094 14.964844 122.1875 19.070312 119.796875 C 20.359375 119.046875 21.441406 118.777344 22.289062 119.003906 C 23.371094 119.289062 24.53125 120.457031 25.644531 122.378906 Z M 147.105469 8.296875 L 148.707031 17.335938 L 15.453125 72.835938 L 10.855469 69.824219 Z M 226.308594 112.003906 C 204.402344 98.132812 178.265625 90.71875 152.367188 91.101562 C 126.351562 91.488281 100.359375 99.746094 78.828125 114.371094 L 77.59375 96.097656 C 77.410156 93.398438 77.222656 90.605469 78.050781 88.355469 C 79.476562 84.480469 83.851562 82.042969 88.371094 79.980469 C 127.84375 61.976562 174.042969 59.640625 215.128906 73.578125 C 218.515625 74.726562 222.285156 76.175781 224.183594 78.875 C 225.996094 81.445312 226.195312 85.167969 226.257812 89.414062 C 226.359375 96.546875 226.335938 104.390625 226.308594 112.003906 Z M 60.851562 504.425781 L 59.972656 438.703125 C 59.945312 436.75 58.367188 435.199219 56.390625 435.214844 C 54.4375 435.242188 52.878906 436.847656 52.902344 438.796875 L 53.777344 504.296875 C 48.03125 504.183594 42.289062 504.058594 36.554688 503.914062 C 30.925781 503.773438 24.683594 503.296875 21.824219 499.410156 C 19.882812 496.773438 19.757812 492.894531 19.796875 488.464844 L 20.257812 438.945312 C 20.382812 425.453125 20.511719 411.5 25.238281 398.871094 C 32.128906 380.457031 46.695312 366.460938 63.257812 362.34375 C 63.851562 362.195312 64.359375 361.894531 64.78125 361.507812 C 67.296875 361.375 69.929688 361.105469 72.683594 360.699219 C 87.242188 358.550781 98.101562 353.976562 105.882812 346.71875 C 106.714844 345.941406 107.488281 345.121094 108.234375 344.285156 C 107.0625 351.292969 106.414062 358.777344 108.398438 366.113281 C 110.984375 375.683594 119.800781 385.457031 131.066406 384.753906 C 137.503906 384.339844 143.867188 380.339844 148.089844 374.046875 C 148.195312 373.894531 148.285156 373.734375 148.382812 373.578125 L 151.402344 504.753906 C 121.175781 505.0625 90.953125 504.953125 60.851562 504.425781 Z M 69.976562 271.613281 C 69.355469 270.835938 68.4375 270.359375 67.445312 270.292969 C 61.410156 269.90625 55.167969 269.503906 49.988281 266.832031 C 45.699219 264.617188 41.726562 259.828125 42.425781 254.953125 C 43.128906 250.066406 48.28125 246.484375 53.078125 245.105469 C 56.726562 244.054688 60.59375 243.777344 64.6875 243.480469 C 67.003906 243.3125 69.398438 243.140625 71.785156 242.816406 C 86.949219 240.753906 100.292969 232.746094 110.367188 219.65625 C 115.851562 212.527344 120.191406 203.972656 122.917969 194.917969 C 123.757812 192.128906 124.367188 189.324219 124.957031 186.613281 C 125.292969 185.058594 125.640625 183.453125 126.027344 181.898438 C 126.101562 181.597656 126.167969 181.304688 126.234375 181.023438 C 127.039062 181.996094 127.910156 183.339844 128.660156 184.492188 C 129.652344 186.015625 130.679688 187.589844 131.78125 188.808594 C 134.675781 191.992188 137.851562 194.964844 141.21875 197.640625 C 147.585938 202.699219 154.589844 206.6875 162.035156 209.496094 C 180.878906 216.609375 202.277344 216.066406 220.738281 208.015625 C 221.65625 207.613281 222.566406 207.195312 223.480469 206.773438 C 226.578125 205.351562 229.503906 204.007812 232.523438 203.460938 C 235.363281 202.949219 239.425781 203.253906 241.523438 205.804688 C 243.78125 208.550781 243.355469 213.085938 242.90625 217.886719 C 242.328125 224.070312 241.671875 231.082031 247.070312 235.8125 C 249.5 237.945312 252.425781 238.792969 255.007812 239.542969 C 256.152344 239.875 257.234375 240.1875 258.199219 240.585938 C 262.453125 242.335938 265.667969 246.585938 266.199219 251.152344 C 266.734375 255.722656 264.585938 260.59375 260.847656 263.28125 C 258.109375 265.25 254.601562 266.1875 250.890625 267.175781 C 247.394531 268.109375 243.777344 269.074219 240.414062 270.992188 C 236.527344 273.210938 233.582031 276.355469 230.730469 279.394531 C 230.253906 279.902344 229.777344 280.40625 229.300781 280.90625 C 192.710938 319.191406 128.390625 324.433594 82.878906 292.851562 C 77.800781 289.328125 69.472656 282.242188 70.710938 274.367188 C 70.863281 273.390625 70.597656 272.386719 69.976562 271.613281 Z M 115.777344 342.253906 C 124.320312 350.507812 135.550781 355.886719 147.371094 357.269531 C 146.089844 362.328125 144.628906 366.523438 142.222656 370.109375 C 139.214844 374.589844 134.878906 377.425781 130.617188 377.695312 C 123.375 378.167969 117.105469 371.230469 115.222656 364.269531 C 113.320312 357.226562 114.429688 349.433594 115.777344 342.253906 Z M 149.898438 320.589844 C 152.949219 320.589844 156.011719 320.480469 159.074219 320.261719 C 170.511719 319.441406 181.550781 317.074219 191.910156 313.308594 C 191.523438 318.851562 191.96875 324.320312 193.148438 329.511719 C 192.585938 329.765625 192.074219 330.152344 191.691406 330.695312 C 182.976562 343.078125 168.164062 350.714844 153.015625 350.570312 C 138.402344 350.453125 124.226562 343.117188 115.601562 331.347656 C 117.179688 326.273438 117.496094 321.003906 116.394531 316.101562 C 127.222656 319.058594 138.496094 320.59375 149.898438 320.589844 Z M 192.292969 340.984375 C 192.253906 347.355469 192.050781 353.839844 190.542969 359.917969 C 188.714844 367.28125 185.015625 373.199219 180.121094 376.582031 C 174.753906 380.289062 167.492188 380.671875 162.851562 377.496094 C 156.964844 373.46875 155.472656 365.046875 155.019531 357.585938 C 169.015625 357.140625 182.589844 351.015625 192.292969 340.984375 Z M 284.023438 393.488281 C 288.191406 407.25 288.390625 422.070312 288.585938 436.402344 L 289.257812 485.878906 C 289.320312 490.351562 289.195312 494.582031 287.019531 497.222656 C 284.382812 500.429688 279.15625 500.941406 274.027344 501.1875 C 264.898438 501.628906 255.753906 502.023438 246.597656 502.386719 L 247.660156 444.996094 C 247.699219 443.042969 246.144531 441.429688 244.191406 441.394531 C 244.171875 441.394531 244.148438 441.394531 244.125 441.394531 C 242.203125 441.394531 240.628906 442.933594 240.59375 444.863281 L 239.519531 502.65625 C 211.5625 503.703125 183.507812 504.394531 155.441406 504.714844 L 152.488281 376.304688 C 154.035156 379.019531 156.09375 381.441406 158.859375 383.332031 C 162.171875 385.597656 166.210938 386.71875 170.367188 386.71875 C 175.097656 386.71875 179.988281 385.265625 184.140625 382.394531 C 190.453125 378.035156 195.164062 370.65625 197.40625 361.621094 C 198.78125 356.082031 199.179688 350.476562 199.304688 344.941406 C 203.300781 351.578125 208.734375 357.0625 215.265625 360.664062 C 221.464844 364.082031 228.570312 365.773438 235.820312 365.773438 C 243.257812 365.769531 250.839844 363.976562 257.75 360.453125 C 258.101562 361.058594 258.628906 361.574219 259.316406 361.894531 C 270.519531 367.113281 279.527344 378.628906 284.023438 393.488281 Z M 274.992188 177.050781 C 291.660156 203.519531 291.027344 236.226562 288.625 273.140625 C 287.65625 288.039062 286.652344 303.4375 282.179688 317.761719 C 277.316406 333.324219 268.558594 345.660156 257.523438 352.492188 C 245.382812 360.007812 230.132812 360.785156 218.675781 354.472656 C 205.484375 347.203125 197.578125 330.617188 199 313.199219 C 199.074219 312.296875 198.789062 311.453125 198.28125 310.78125 C 211.945312 304.882812 224.234375 296.441406 234.410156 285.792969 C 234.902344 285.277344 235.394531 284.757812 235.882812 284.234375 C 238.492188 281.453125 240.957031 278.828125 243.917969 277.136719 C 246.484375 275.671875 249.507812 274.863281 252.710938 274.011719 C 256.875 272.898438 261.179688 271.75 264.972656 269.023438 C 270.820312 264.820312 274.054688 257.484375 273.222656 250.335938 C 272.386719 243.1875 267.546875 236.792969 260.890625 234.050781 C 259.570312 233.507812 258.25 233.125 256.976562 232.753906 C 254.828125 232.132812 252.976562 231.59375 251.726562 230.5 C 249.222656 228.304688 249.382812 224.519531 249.941406 218.546875 C 250.480469 212.8125 251.089844 206.308594 246.980469 201.3125 C 243.601562 197.210938 237.578125 195.367188 231.269531 196.503906 C 227.363281 197.210938 223.890625 198.808594 220.527344 200.351562 C 219.65625 200.75 218.785156 201.152344 217.910156 201.535156 C 201.121094 208.859375 181.664062 209.351562 164.53125 202.882812 C 157.773438 200.332031 151.40625 196.707031 145.613281 192.105469 C 142.542969 189.667969 139.652344 186.960938 137.015625 184.058594 C 136.292969 183.261719 135.425781 181.925781 134.585938 180.636719 C 132.972656 178.15625 131.304688 175.589844 129.117188 174.085938 C 128.199219 173.457031 125.765625 171.785156 123.175781 172.800781 C 120.617188 173.804688 120.039062 176.351562 119.484375 178.816406 C 119.386719 179.25 119.28125 179.71875 119.160156 180.210938 C 118.753906 181.855469 118.394531 183.511719 118.046875 185.113281 C 117.460938 187.808594 116.910156 190.359375 116.148438 192.882812 C 113.667969 201.125 109.734375 208.890625 104.765625 215.347656 C 95.851562 226.929688 84.117188 234.007812 70.832031 235.8125 C 68.667969 236.105469 66.484375 236.265625 64.179688 236.429688 C 59.902344 236.738281 55.480469 237.058594 51.121094 238.3125 C 44.652344 240.175781 36.65625 245.386719 35.429688 253.949219 C 34.203125 262.472656 40.4375 269.855469 46.746094 273.113281 C 52.105469 275.878906 58.015625 276.683594 63.542969 277.109375 C 63.996094 284.597656 69.21875 291.980469 78.847656 298.660156 C 87.894531 304.9375 97.78125 309.933594 108.1875 313.558594 C 108.238281 313.816406 108.308594 314.074219 108.417969 314.324219 C 112.605469 323.789062 107.890625 335.183594 101.0625 341.546875 C 94.363281 347.796875 84.742188 351.769531 71.652344 353.707031 C 58.78125 355.605469 49.21875 354.238281 42.417969 349.523438 C 31.488281 341.945312 28.71875 326.898438 26.820312 312.132812 C 23.671875 287.644531 20.414062 262.324219 22.253906 237.417969 C 24.285156 209.917969 32.671875 186.3125 46.507812 169.15625 C 59.890625 152.5625 80.363281 139.816406 104.148438 133.257812 C 124.09375 127.761719 146.808594 126.160156 173.59375 128.371094 C 196.742188 130.28125 214.910156 134.335938 230.773438 141.132812 C 244.265625 146.910156 262.886719 157.832031 274.992188 177.050781 Z M 174.175781 121.328125 C 146.550781 119.046875 123.027344 120.722656 102.273438 126.441406 C 94.550781 128.570312 87.160156 131.328125 80.203125 134.632812 L 79.148438 119.046875 C 100.398438 104.019531 126.40625 95.527344 152.429688 95.140625 C 178.433594 94.730469 204.621094 102.441406 226.289062 116.785156 C 226.273438 121.832031 226.269531 126.90625 226.308594 131.773438 C 211.484375 126.375 194.695312 123.019531 174.175781 121.328125 Z M 271.105469 92.933594 C 258.929688 98.445312 246.351562 104.140625 233.382812 109.898438 C 233.40625 102.929688 233.421875 95.84375 233.324219 89.308594 C 233.265625 85.117188 233.179688 79.371094 229.964844 74.800781 C 226.839844 70.367188 221.839844 68.386719 217.398438 66.882812 C 174.625 52.375 126.527344 54.804688 85.4375 73.550781 C 79.8125 76.117188 73.746094 79.59375 71.417969 85.914062 C 70.066406 89.582031 70.328125 93.460938 70.539062 96.574219 L 71.414062 109.515625 L 19.539062 75.515625 L 150.851562 20.820312 L 288.324219 85.148438 C 282.503906 87.773438 276.761719 90.375 271.105469 92.933594 Z M 293.183594 82.960938 L 152.789062 17.265625 C 152.785156 17.242188 152.789062 17.222656 152.785156 17.199219 L 151.226562 8.410156 L 303.957031 78.132812 C 300.328125 79.75 296.746094 81.359375 293.183594 82.960938 Z M 293.183594 82.960938 " style=" stroke:none;fill-rule:nonzero;fill:rgb(0%,0%,0%);fill-opacity:1;" />
<path d="M 60.441406 249.195312 C 56.464844 247.289062 51.347656 248.203125 48.277344 251.371094 C 47.5 252.175781 47.519531 253.453125 48.324219 254.226562 C 49.125 255.003906 50.402344 254.984375 51.179688 254.183594 C 53.046875 252.257812 56.277344 251.675781 58.695312 252.839844 C 60.28125 253.597656 61.507812 255.105469 62.0625 256.804688 C 60.742188 256.597656 59.378906 256.699219 58.09375 257.121094 C 55.636719 257.921875 53.632812 259.847656 52.730469 262.269531 C 52.34375 263.3125 52.875 264.476562 53.917969 264.867188 C 54.152344 264.953125 54.390625 264.996094 54.621094 264.996094 C 55.441406 264.996094 56.214844 264.492188 56.515625 263.679688 C 56.984375 262.417969 58.070312 261.375 59.351562 260.957031 C 60.628906 260.542969 62.117188 260.738281 63.242188 261.480469 C 63.824219 261.863281 64.566406 261.921875 65.199219 261.628906 C 65.832031 261.335938 66.269531 260.738281 66.359375 260.046875 C 66.910156 255.667969 64.421875 251.101562 60.441406 249.195312 Z M 60.441406 249.195312 " style=" stroke:none;fill-rule:nonzero;fill:rgb(0%,0%,0%);fill-opacity:1;" />
<path d="M 245.515625 262.898438 C 245.625 262.917969 245.738281 262.929688 245.847656 262.929688 C 246.46875 262.929688 247.0625 262.640625 247.449219 262.140625 C 249.328125 259.699219 252.414062 258.230469 255.484375 258.238281 C 256.59375 258.226562 257.515625 257.355469 257.527344 256.242188 C 257.539062 255.125 256.644531 254.210938 255.527344 254.199219 C 255.480469 254.199219 255.433594 254.199219 255.386719 254.199219 C 252.523438 254.199219 249.664062 255.136719 247.308594 256.777344 C 247.421875 254.714844 248.183594 252.683594 249.515625 251.101562 C 251.609375 248.617188 255.035156 247.324219 258.25 247.8125 C 259.351562 247.988281 260.382812 247.222656 260.550781 246.121094 C 260.714844 245.015625 259.957031 243.988281 258.855469 243.820312 C 254.285156 243.128906 249.402344 244.960938 246.421875 248.5 C 243.445312 252.039062 242.46875 257.160156 243.933594 261.550781 C 244.171875 262.257812 244.777344 262.777344 245.515625 262.898438 Z M 245.515625 262.898438 " style=" stroke:none;fill-rule:nonzero;fill:rgb(0%,0%,0%);fill-opacity:1;" />
</g>
</svg>