<svg xmlns="http://www.w3.org/2000/svg" height="512pt" version="1.1" viewBox="-4 0 512 512.00199" width="512pt">
<g id="surface1">
<path d="M 187.300781 72.65625 C 185.019531 70.054688 182.863281 67.597656 181.617188 64.464844 C 180.40625 61.410156 180.242188 58.117188 180.082031 54.902344 C 180.03125 53.8125 179.980469 52.726562 179.886719 51.65625 C 178.402344 34.84375 165.847656 18.824219 147.898438 10.839844 C 137.664062 6.285156 126.109375 4.070312 112.582031 4.070312 C 106.84375 4.070312 100.660156 4.484375 94.203125 5.304688 C 79.96875 7.101562 69.003906 10.179688 59.695312 14.984375 C 48.183594 20.914062 39.359375 29.75 34.851562 39.859375 C 33.917969 41.933594 33.1875 44.027344 32.410156 46.242188 L 32.253906 46.683594 C 31.046875 50.160156 29.792969 53.753906 27.875 57.019531 C 25.625 60.835938 22.523438 64.078125 19.503906 67.234375 C 17.441406 69.386719 15.734375 71.191406 14.109375 73.203125 C 6.953125 82.113281 3.339844 93.761719 4.195312 105.15625 C 5.050781 116.554688 10.363281 127.527344 18.75 135.25 C 18.785156 135.285156 18.835938 135.359375 18.890625 135.460938 L 19.863281 137.257812 L 21.894531 137.007812 C 23.382812 136.824219 24.855469 136.75 26.484375 136.679688 C 30.214844 136.507812 34.070312 136.335938 37.566406 134.410156 C 45.148438 130.238281 50.765625 121.140625 51.878906 111.238281 C 53.277344 98.871094 48.945312 86.4375 45.113281 75.433594 C 45.03125 75.207031 45.113281 74.953125 45.308594 74.816406 C 45.417969 74.734375 45.535156 74.71875 45.613281 74.71875 C 45.699219 74.71875 45.828125 74.738281 45.945312 74.832031 C 61.695312 87.324219 82.285156 94.492188 102.441406 94.492188 C 103.09375 94.492188 103.746094 94.484375 104.398438 94.46875 C 114.578125 94.242188 124.664062 92.269531 134.378906 88.605469 C 140.296875 86.371094 145.199219 83.125 150.417969 79.667969 C 153.9375 77.335938 157.570312 74.921875 161.5 72.925781 C 161.574219 72.886719 161.652344 72.867188 161.730469 72.867188 C 161.886719 72.867188 162.09375 72.941406 162.210938 73.148438 C 163.539062 75.535156 161.851562 78.234375 159.640625 81.320312 C 159.171875 81.980469 158.730469 82.605469 158.421875 83.136719 C 155.363281 88.363281 153.328125 92.550781 151.824219 96.703125 C 149.574219 102.894531 147.492188 112.191406 150.359375 121.320312 C 151.960938 126.402344 155.777344 132.574219 160.703125 134.894531 C 161.992188 135.5 163.308594 135.804688 164.613281 135.804688 C 165.742188 135.804688 166.871094 135.574219 167.976562 135.125 C 173.601562 132.828125 178.503906 131.664062 182.546875 131.664062 C 183.792969 131.664062 184.972656 131.777344 186.050781 131.996094 L 187.800781 132.355469 L 188.949219 130.984375 C 202.054688 115.367188 202.246094 90.808594 189.378906 75.070312 C 188.703125 74.257812 188 73.449219 187.300781 72.65625 Z M 187.300781 72.65625 " style=" stroke:none;fill-rule:nonzero;fill:rgb(35.686275%,36.470588%,42.745098%);fill-opacity:1;" />
<path d="M 106.035156 254.835938 L 108.453125 256.246094 C 111.167969 262.949219 114.195312 269.984375 117.445312 277.167969 L 121.34375 285.777344 L 127.863281 251.789062 L 115.640625 240.21875 Z M 106.035156 254.835938 " style=" stroke:none;fill-rule:nonzero;fill:rgb(84.705882%,87.058824%,92.54902%);fill-opacity:1;" />
<path d="M 93.628906 243.4375 L 91.882812 239.324219 L 79.582031 251.734375 L 85.03125 283.601562 L 99.375 253.9375 L 98.457031 252.519531 C 96.585938 249.625 94.960938 246.570312 93.628906 243.4375 Z M 93.628906 243.4375 " style=" stroke:none;fill-rule:nonzero;fill:rgb(84.705882%,87.058824%,92.54902%);fill-opacity:1;" />
<path d="M 140.582031 212.671875 L 136.886719 210.410156 L 123.796875 278.691406 L 122.699219 282.683594 L 199.160156 282.242188 L 197.363281 278.078125 C 185.761719 251.203125 165.597656 227.976562 140.582031 212.671875 Z M 140.582031 212.671875 " style=" stroke:none;fill-rule:nonzero;fill:rgb(15.686275%,56.078431%,78.823529%);fill-opacity:1;" />
<path d="M 67.488281 211.625 C 41.613281 227.109375 21.269531 251.113281 10.207031 279.210938 L 8.582031 283.335938 L 83.832031 282.898438 L 71.246094 209.378906 Z M 67.488281 211.625 " style=" stroke:none;fill-rule:nonzero;fill:rgb(15.686275%,56.078431%,78.823529%);fill-opacity:1;" />
<path d="M 106.679688 227.527344 L 103.324219 227.773438 L 99.917969 227.246094 C 91.785156 225.984375 84.160156 221.511719 79.003906 214.972656 L 73.691406 217.335938 L 79.984375 254.113281 L 102.96875 230.929688 L 127.421875 254.074219 L 136.226562 208.160156 L 128.972656 216.363281 C 123.328125 222.742188 114.992188 226.914062 106.679688 227.527344 Z M 106.679688 227.527344 " style=" stroke:none;fill-rule:nonzero;fill:rgb(100%,100%,100%);fill-opacity:1;" />
<path d="M 243.363281 414.734375 C 258.46875 398.234375 262.621094 372.449219 253.457031 352.027344 C 249.582031 343.410156 232.671875 315 177.785156 311.238281 C 175.414062 311.074219 173 310.992188 170.609375 310.992188 C 156.113281 310.992188 141.296875 314.019531 127.761719 319.746094 C 104.945312 329.394531 85.828125 346.371094 73.933594 367.550781 C 65.792969 382.042969 62.265625 396.5625 63.738281 409.527344 C 65.914062 428.679688 79.300781 446.527344 98.679688 456.101562 C 110.109375 461.742188 123.21875 464.605469 137.648438 464.605469 C 144.332031 464.605469 151.25 463.984375 158.207031 462.765625 C 184.511719 458.144531 209.597656 445.398438 228.847656 426.871094 C 228.949219 426.777344 229.085938 426.722656 229.226562 426.722656 C 229.304688 426.722656 229.378906 426.742188 229.449219 426.769531 L 256.046875 438.867188 L 243.289062 415.363281 C 243.175781 415.152344 243.207031 414.90625 243.363281 414.734375 Z M 243.363281 414.734375 " style=" stroke:none;fill-rule:nonzero;fill:rgb(79.607843%,89.803922%,50.196078%);fill-opacity:1;" />
<path d="M 476.851562 292.851562 C 475.875 290.96875 474.664062 288.628906 473.660156 286.335938 C 472.773438 284.292969 472 282.207031 471.339844 280.394531 L 471.261719 280.1875 C 469.972656 276.722656 468.753906 273.449219 466.945312 270.371094 C 462.125 262.15625 453.726562 256.558594 446.3125 251.613281 C 437.925781 246.027344 428.425781 239.695312 417.75 238.179688 C 415.921875 237.921875 414.058594 237.796875 412.054688 237.796875 C 406.574219 237.796875 401.171875 238.742188 395.425781 239.746094 C 389.910156 240.71875 384.199219 241.722656 378.480469 241.722656 C 377.699219 241.722656 376.917969 241.703125 376.132812 241.664062 C 373.601562 241.535156 371.054688 241.171875 368.589844 240.824219 L 368.332031 240.785156 C 365.648438 240.398438 363.109375 240.027344 360.46875 239.902344 C 359.992188 239.882812 359.492188 239.871094 358.980469 239.871094 C 353.457031 239.871094 349.09375 241.210938 346.011719 243.855469 C 341.609375 247.640625 340.265625 253.628906 338.957031 259.449219 C 338.230469 262.679688 337.476562 266.015625 336.210938 269.039062 C 334.058594 274.171875 330.363281 278.441406 326.738281 282.628906 L 326.628906 282.757812 C 324.382812 285.355469 322.265625 287.804688 320.417969 290.535156 C 310.535156 305.097656 311.332031 326.433594 322.253906 340.242188 L 322.308594 340.328125 L 323.308594 341.648438 C 323.308594 341.648438 324.839844 341.648438 324.859375 341.648438 C 325.238281 341.648438 325.617188 341.648438 326.046875 341.660156 L 326.875 341.664062 C 329.125 341.664062 330.402344 341.554688 331.277344 341.292969 L 332.4375 340.941406 L 333.03125 339.882812 C 333.941406 338.246094 334.203125 335.359375 334.027344 328.855469 C 333.976562 326.628906 333.921875 324.523438 334.132812 323.175781 C 335.183594 316.5 337.230469 309.996094 340.226562 303.839844 C 346.320312 291.304688 356.042969 280.925781 367.609375 274.613281 C 376.96875 269.496094 387.777344 266.792969 398.863281 266.792969 C 414.996094 266.792969 430.351562 272.351562 442.105469 282.445312 C 458.199219 296.257812 466.191406 318.570312 461.996094 337.964844 L 461.296875 341.203125 L 464.585938 341.578125 C 466.34375 341.78125 468.105469 342.1875 469.824219 342.785156 L 472.175781 343.601562 L 473.414062 341.441406 C 473.433594 341.40625 473.460938 341.367188 473.488281 341.335938 C 482.8125 330.890625 485.847656 315.027344 481.039062 301.871094 C 479.90625 298.777344 478.433594 295.917969 476.851562 292.851562 Z M 476.851562 292.851562 " style=" stroke:none;fill-rule:nonzero;fill:rgb(68.627451%,47.45098%,47.45098%);fill-opacity:1;" />
<path d="M 461.910156 342.503906 C 461.410156 342.503906 460.90625 342.523438 460.351562 342.558594 C 460.199219 342.558594 460.046875 342.484375 459.9375 342.34375 C 459.832031 342.214844 459.800781 342.039062 459.855469 341.867188 C 466.140625 322.085938 458.550781 297.980469 441.402344 283.257812 C 430.113281 273.5625 414.542969 268 398.683594 268 C 387.730469 268 377.160156 270.609375 368.117188 275.546875 C 356.738281 281.769531 347.171875 291.984375 341.191406 304.308594 C 338.226562 310.390625 336.207031 316.792969 335.195312 323.316406 C 335.003906 324.492188 335.03125 326.265625 335.097656 328.835938 C 335.222656 333.910156 335.367188 339.660156 332.988281 341.617188 C 331.738281 342.648438 329.367188 342.734375 326.84375 342.734375 L 325.042969 342.726562 C 323.523438 342.726562 322.6875 342.78125 322.039062 342.929688 C 317.941406 343.894531 314.261719 345.773438 311.394531 348.367188 C 304.851562 354.285156 302.707031 364.609375 306.507812 371.871094 C 308.5 375.6875 312.367188 378.703125 316.84375 379.941406 C 318.316406 380.351562 319.796875 380.558594 321.246094 380.558594 C 323.835938 380.558594 326.308594 379.882812 328.386719 378.605469 C 328.480469 378.550781 328.574219 378.519531 328.667969 378.519531 C 328.769531 378.519531 328.878906 378.558594 328.960938 378.613281 C 329.144531 378.734375 329.234375 378.941406 329.199219 379.148438 C 327.027344 391.914062 331.558594 406.078125 341.324219 417.035156 C 349.671875 426.410156 361.441406 433.496094 376.296875 438.097656 C 385.394531 440.914062 394.347656 442.347656 402.910156 442.347656 C 413.675781 442.347656 423.414062 440.121094 431.859375 435.734375 C 449.800781 426.402344 460.148438 406.261719 455.921875 388.886719 C 455.878906 388.703125 455.933594 388.515625 456.078125 388.367188 C 456.207031 388.238281 456.359375 388.222656 456.4375 388.222656 C 456.484375 388.222656 456.527344 388.226562 456.566406 388.234375 C 458.242188 388.644531 459.992188 388.847656 461.761719 388.847656 C 468.972656 388.847656 476.109375 385.417969 480.390625 379.894531 C 485.804688 372.882812 486.667969 362.542969 482.492188 354.753906 C 478.570312 347.429688 470.300781 342.503906 461.910156 342.503906 Z M 461.910156 342.503906 " style=" stroke:none;fill-rule:nonzero;fill:rgb(100%,82.352941%,73.333333%);fill-opacity:1;" />
<path d="M 432.359375 436.675781 C 423.746094 441.144531 413.835938 443.410156 402.898438 443.410156 C 394.222656 443.410156 385.164062 441.964844 375.976562 439.113281 C 370.289062 437.355469 364.976562 435.203125 360.183594 432.710938 L 351.847656 428.371094 L 356.128906 436.734375 C 364.175781 452.464844 381.371094 463.027344 398.914062 463.027344 C 399.199219 463.027344 399.492188 463.023438 399.777344 463.019531 C 416.445312 462.699219 432.566406 452.945312 440.847656 438.164062 L 436.578125 434.195312 C 435.242188 435.078125 433.820312 435.914062 432.359375 436.675781 Z M 432.359375 436.675781 " style=" stroke:none;fill-rule:nonzero;fill:rgb(100%,82.352941%,73.333333%);fill-opacity:1;" />
<path d="M 182.460938 132.679688 C 178.644531 132.679688 174.035156 133.800781 168.375 136.113281 C 167.140625 136.617188 165.871094 136.871094 164.609375 136.871094 C 163.144531 136.871094 161.679688 136.53125 160.246094 135.855469 C 155.03125 133.40625 151.011719 126.949219 149.339844 121.640625 C 146.382812 112.21875 148.503906 102.683594 150.808594 96.34375 C 152.238281 92.398438 154.21875 88.277344 157.039062 83.375 L 152.789062 79.375 L 151 80.558594 C 145.988281 83.882812 140.808594 87.316406 134.761719 89.605469 C 124.9375 93.3125 114.726562 95.308594 104.414062 95.542969 C 103.792969 95.554688 103.167969 95.5625 102.542969 95.5625 C 85.710938 95.5625 68.445312 90.648438 53.929688 81.726562 L 47.160156 77.566406 L 49.492188 85.160156 C 51.671875 92.265625 54.035156 101.664062 52.949219 111.355469 C 51.777344 121.753906 46.082031 130.945312 38.082031 135.34375 C 34.367188 137.390625 30.386719 137.570312 26.53125 137.742188 C 20.878906 138.007812 15.996094 138.230469 12.085938 143.519531 C 8.050781 148.992188 8.242188 157.097656 12.535156 162.375 C 15.375 165.867188 19.929688 167.953125 24.710938 167.953125 C 26.890625 167.953125 29.03125 167.496094 30.921875 166.628906 C 30.984375 166.597656 31.0625 166.578125 31.128906 166.578125 C 31.199219 166.578125 31.253906 166.589844 31.308594 166.609375 C 31.449219 166.664062 31.566406 166.773438 31.621094 166.886719 C 38.699219 182.335938 50.769531 195.394531 65.609375 203.652344 C 77.539062 210.296875 91.128906 213.808594 104.902344 213.808594 C 108.199219 213.808594 111.519531 213.601562 114.765625 213.195312 C 129.46875 211.355469 142.542969 205.34375 151.578125 196.265625 C 161.746094 186.042969 166.621094 171.699219 164.304688 158.84375 C 164.273438 158.667969 164.320312 158.496094 164.441406 158.371094 C 164.542969 158.265625 164.671875 158.207031 164.878906 158.207031 C 164.886719 158.207031 164.898438 158.210938 164.90625 158.210938 C 167.445312 158.574219 170.792969 158.992188 174.171875 158.992188 C 178.921875 158.992188 182.855469 158.164062 186.199219 156.460938 C 189.816406 154.609375 192.820312 151.0625 194.035156 147.199219 C 194.6875 145.113281 195.117188 141.972656 193.46875 138.875 C 191.269531 134.765625 187.566406 132.679688 182.460938 132.679688 Z M 182.460938 132.679688 " style=" stroke:none;fill-rule:nonzero;fill:rgb(100%,82.352941%,73.333333%);fill-opacity:1;" />
<path d="M 114.898438 214.253906 C 111.570312 214.667969 108.210938 214.878906 104.910156 214.878906 C 96.644531 214.878906 88.417969 213.621094 80.460938 211.144531 L 71.460938 208.34375 L 77.1875 215.832031 C 83.542969 224.144531 93.824219 229.40625 104.070312 229.570312 L 104.507812 229.570312 C 114.957031 229.570312 125.460938 224.320312 131.921875 215.871094 L 137.8125 208.171875 L 128.601562 211.199219 C 124.242188 212.636719 119.628906 213.660156 114.898438 214.253906 Z M 114.898438 214.253906 " style=" stroke:none;fill-rule:nonzero;fill:rgb(100%,82.352941%,73.333333%);fill-opacity:1;" />
<path d="M 459.222656 439.816406 L 456.226562 437.660156 L 454.726562 441.03125 C 445.589844 461.601562 423.578125 475.96875 401.199219 475.96875 L 400.59375 475.96875 C 377.714844 475.695312 355.097656 459.945312 346.804688 438.519531 L 345.660156 435.554688 L 342.765625 436.867188 C 331.5 441.988281 321.300781 449.519531 313.265625 458.648438 C 302.574219 470.789062 295.25 486.3125 292.636719 502.359375 L 292.085938 505.734375 L 295.507812 505.839844 C 341.257812 507.226562 387.816406 507.929688 433.878906 507.929688 C 454.703125 507.929688 475.734375 507.785156 496.390625 507.5 L 499.867188 507.449219 L 499.308594 504.015625 C 495.152344 478.558594 480.539062 455.15625 459.222656 439.816406 Z M 459.222656 439.816406 " style=" stroke:none;fill-rule:nonzero;fill:rgb(96.862745%,70.196078%,43.529412%);fill-opacity:1;" />
<path d="M 409.867188 19.644531 C 390.414062 13.613281 369.371094 10.421875 349.015625 10.421875 C 330.339844 10.421875 312.617188 12.984375 296.339844 18.035156 C 276.402344 24.214844 259.1875 33.953125 245.167969 46.980469 C 241.65625 50.246094 238.40625 53.722656 235.511719 57.316406 C 219.226562 77.542969 213.101562 103.796875 219.53125 125.839844 C 226.359375 149.246094 248.566406 166.898438 271.183594 166.898438 C 271.871094 166.898438 272.558594 166.882812 273.242188 166.847656 L 273.339844 166.847656 C 273.441406 166.847656 273.589844 166.871094 273.726562 167.003906 C 273.824219 167.097656 273.878906 167.242188 273.878906 167.382812 C 273.714844 180.652344 271.0625 194.277344 266.203125 206.773438 L 263.222656 214.4375 L 270.441406 210.492188 C 285.398438 202.3125 297.582031 189.40625 304.75 174.160156 C 304.859375 173.9375 305.078125 173.859375 305.238281 173.859375 C 305.277344 173.859375 305.320312 173.863281 305.355469 173.871094 C 327.078125 178.894531 349.359375 181.441406 371.570312 181.441406 C 380.582031 181.441406 389.707031 181.019531 398.695312 180.1875 C 427.566406 177.527344 447.800781 170.457031 462.386719 157.933594 C 477.671875 144.800781 486.558594 124.921875 486.152344 104.757812 C 485.214844 59.160156 446.132812 30.894531 409.867188 19.644531 Z M 409.867188 19.644531 " style=" stroke:none;fill-rule:nonzero;fill:rgb(92.941176%,42.745098%,40%);fill-opacity:1;" />
<path d="M 110.636719 256.398438 L 109.378906 253.3125 L 117.074219 241.585938 L 102.921875 228.183594 L 90.464844 240.75 L 91.171875 242.566406 C 92.746094 246.609375 94.746094 250.46875 97.132812 254.078125 L 83.191406 282.90625 L 122.132812 282.683594 L 120.195312 278.457031 C 116.8125 271.074219 113.597656 263.652344 110.636719 256.398438 Z M 110.636719 256.398438 " style=" stroke:none;fill-rule:nonzero;fill:rgb(92.941176%,42.745098%,40%);fill-opacity:1;" />
<path d="M 445.253906 431.496094 L 442.421875 430.132812 L 441.1875 433.023438 C 434.300781 449.199219 417.257812 460.726562 399.796875 461.058594 L 398.957031 461.070312 C 381.660156 461.070312 364.480469 450.105469 357.179688 434.40625 L 356.078125 432.042969 L 353.585938 432.800781 C 351.253906 433.511719 348.910156 434.332031 346.617188 435.242188 L 343.867188 436.339844 L 344.925781 439.105469 C 353.449219 461.320312 376.855469 477.648438 400.570312 477.929688 L 401.242188 477.933594 C 424.714844 477.933594 447.578125 462.789062 456.835938 441.109375 L 457.824219 438.800781 L 455.722656 437.421875 C 452.386719 435.234375 448.863281 433.242188 445.253906 431.496094 Z M 445.253906 431.496094 " style=" stroke:none;fill-rule:nonzero;fill:rgb(97.647059%,84.705882%,53.72549%);fill-opacity:1;" />
<path d="M 202.785156 284.757812 C 203.4375 283.796875 203.578125 282.574219 203.15625 281.492188 C 191.382812 251.160156 169.683594 225.417969 141.84375 208.660156 C 146.5625 205.996094 150.8125 202.804688 154.457031 199.140625 C 164.347656 189.203125 169.636719 175.640625 168.863281 162.789062 C 175.210938 163.378906 182.023438 163.160156 188.042969 160.082031 C 192.671875 157.714844 196.363281 153.359375 197.910156 148.425781 C 199.167969 144.425781 198.863281 140.355469 197.058594 136.964844 C 196.015625 135.011719 194.726562 133.425781 193.21875 132.160156 C 206.191406 115.234375 206.074219 89.074219 192.53125 72.507812 C 191.832031 71.652344 191.101562 70.8125 190.367188 69.976562 C 188.320312 67.644531 186.386719 65.441406 185.394531 62.953125 C 184.4375 60.546875 184.296875 57.722656 184.148438 54.730469 C 184.09375 53.582031 184.035156 52.433594 183.933594 51.292969 C 182.324219 33.035156 168.828125 15.695312 149.554688 7.117188 C 134.339844 0.347656 116.070312 -1.566406 93.6875 1.261719 C 78.992188 3.117188 67.597656 6.328125 57.832031 11.363281 C 45.496094 17.726562 36.015625 27.257812 31.128906 38.207031 C 30.074219 40.574219 29.230469 42.996094 28.414062 45.34375 C 27.210938 48.792969 26.078125 52.050781 24.367188 54.953125 C 22.355469 58.371094 19.542969 61.308594 16.566406 64.417969 C 14.671875 66.394531 12.714844 68.4375 10.933594 70.660156 C 3.140625 80.363281 -0.796875 93.050781 0.136719 105.460938 C 1 116.964844 6.035156 128.066406 14.050781 136.34375 C 12.199219 137.40625 10.425781 138.921875 8.816406 141.101562 C 3.703125 148.023438 3.945312 158.273438 9.378906 164.945312 C 14.070312 170.707031 22.160156 173.21875 29.3125 171.472656 C 36.886719 186.433594 48.972656 199.046875 63.632812 207.210938 C 64.207031 207.53125 64.792969 207.835938 65.375 208.140625 C 37.367188 224.925781 15.320312 251.890625 4.566406 282.710938 C 4.1875 283.796875 4.359375 284.996094 5.027344 285.929688 C 5.691406 286.859375 6.765625 287.410156 7.90625 287.410156 C 7.910156 287.410156 7.917969 287.410156 7.925781 287.410156 L 199.882812 286.304688 C 201.046875 286.296875 202.128906 285.71875 202.785156 284.757812 Z M 111.101562 254.792969 C 110.933594 254.378906 110.636719 254.054688 110.28125 253.835938 L 116.175781 244.855469 L 124.609375 252.839844 L 120.183594 275.925781 C 117.015625 268.949219 113.960938 261.863281 111.101562 254.792969 Z M 104.261719 255.644531 C 103.554688 256.722656 103.277344 256.847656 103.210938 256.863281 C 103.207031 256.863281 102.832031 256.828125 101.953125 255.675781 C 98.632812 251.34375 95.953125 246.566406 93.964844 241.484375 L 102.992188 232.378906 L 113.195312 242.035156 Z M 90.871094 244.605469 C 92.28125 247.933594 93.980469 251.121094 95.941406 254.148438 L 86.414062 273.863281 L 82.796875 252.75 Z M 104.066406 226.566406 C 94.605469 226.417969 85.320312 221.527344 79.566406 214.011719 C 87.757812 216.554688 96.328125 217.875 104.910156 217.875 C 108.371094 217.875 111.832031 217.660156 115.269531 217.230469 C 120.226562 216.609375 125.007812 215.535156 129.539062 214.050781 C 123.691406 221.695312 114.136719 226.570312 104.511719 226.570312 C 104.363281 226.570312 104.214844 226.570312 104.066406 226.566406 Z M 99.453125 230.210938 L 81.960938 247.855469 L 76.644531 216.828125 C 82.21875 223.890625 90.570312 228.824219 99.453125 230.210938 Z M 98.597656 257.933594 C 98.648438 258 98.695312 258.066406 98.746094 258.132812 C 99.339844 258.910156 100.867188 260.902344 103.199219 260.902344 C 103.339844 260.902344 103.484375 260.894531 103.632812 260.878906 C 105.8125 260.648438 107.046875 258.765625 107.640625 257.859375 L 107.859375 257.527344 C 110.886719 264.960938 114.113281 272.402344 117.464844 279.710938 L 87.992188 279.878906 Z M 125.507812 248.132812 L 106.902344 230.519531 C 116.132812 229.839844 125.078125 225.292969 131.21875 218.351562 Z M 20.796875 133.0625 C 12.945312 125.832031 7.984375 115.578125 7.183594 104.933594 C 6.386719 94.285156 9.761719 83.40625 16.445312 75.085938 C 18.035156 73.105469 19.800781 71.261719 21.671875 69.308594 C 24.796875 66.042969 28.03125 62.667969 30.460938 58.542969 C 32.523438 55.035156 33.828125 51.289062 35.089844 47.667969 C 35.894531 45.359375 36.652344 43.183594 37.585938 41.089844 C 41.816406 31.597656 50.160156 23.273438 61.070312 17.648438 C 70.078125 13.003906 80.722656 10.027344 94.574219 8.273438 C 115.640625 5.609375 132.679688 7.347656 146.679688 13.578125 C 163.644531 21.128906 175.503906 36.179688 176.894531 51.914062 C 176.984375 52.964844 177.035156 54.023438 177.089844 55.082031 C 177.257812 58.519531 177.4375 62.070312 178.828125 65.566406 C 180.273438 69.191406 182.703125 71.960938 185.050781 74.640625 C 185.730469 75.414062 186.410156 76.1875 187.058594 76.980469 C 198.9375 91.507812 198.695312 114.699219 186.648438 129.058594 C 181.460938 127.996094 174.851562 129.074219 166.835938 132.34375 C 165.210938 133.007812 163.621094 132.953125 161.972656 132.175781 C 157.898438 130.261719 154.578125 124.738281 153.222656 120.414062 C 150.605469 112.085938 152.542969 103.480469 154.632812 97.730469 C 156.078125 93.761719 158.042969 89.726562 161.011719 84.644531 C 161.261719 84.21875 161.679688 83.632812 162.121094 83.011719 C 164.140625 80.191406 167.1875 75.925781 164.832031 71.6875 C 163.90625 70.027344 161.832031 69.390625 160.140625 70.253906 C 156.085938 72.308594 152.363281 74.777344 148.757812 77.164062 C 143.703125 80.515625 138.925781 83.679688 133.324219 85.792969 C 123.925781 89.34375 114.167969 91.253906 104.324219 91.472656 C 84.203125 91.933594 63.589844 85 47.8125 72.480469 C 46.582031 71.507812 44.851562 71.460938 43.566406 72.371094 C 42.285156 73.28125 41.757812 74.929688 42.277344 76.414062 C 46 87.09375 50.222656 99.199219 48.90625 110.894531 C 47.894531 119.863281 42.878906 128.0625 36.125 131.777344 C 33.246094 133.359375 29.894531 133.515625 26.347656 133.675781 C 24.78125 133.746094 23.160156 133.828125 21.527344 134.03125 C 21.339844 133.679688 21.105469 133.347656 20.796875 133.0625 Z M 34.34375 165.640625 C 33.953125 164.789062 33.238281 164.125 32.359375 163.800781 C 31.960938 163.652344 31.546875 163.578125 31.132812 163.578125 C 30.625 163.578125 30.121094 163.6875 29.652344 163.90625 C 24.757812 166.160156 18.261719 164.65625 14.859375 160.480469 C 11.457031 156.304688 11.300781 149.636719 14.5 145.304688 C 17.421875 141.351562 20.855469 141.007812 26.667969 140.738281 C 30.671875 140.554688 35.210938 140.347656 39.53125 137.972656 C 48.367188 133.109375 54.652344 123.039062 55.925781 111.6875 C 56.992188 102.222656 55.015625 92.945312 52.355469 84.277344 C 67.878906 93.820312 86.351562 98.933594 104.484375 98.539062 C 115.128906 98.304688 125.671875 96.238281 135.820312 92.410156 C 142.167969 90.015625 147.503906 86.476562 152.664062 83.058594 C 153.261719 82.664062 153.851562 82.269531 154.441406 81.882812 C 151.542969 86.921875 149.484375 91.210938 147.992188 95.316406 C 145.527344 102.09375 143.269531 112.316406 146.480469 122.535156 C 148.210938 128.039062 152.519531 135.542969 158.96875 138.574219 C 162.40625 140.191406 166.054688 140.300781 169.507812 138.890625 C 184.652344 132.714844 188.921875 136.730469 190.820312 140.289062 C 191.984375 142.472656 191.652344 144.765625 191.167969 146.308594 C 190.191406 149.421875 187.761719 152.289062 184.828125 153.785156 C 179.121094 156.703125 172.082031 156.210938 165.332031 155.242188 C 164.203125 155.078125 163.074219 155.46875 162.285156 156.285156 C 161.496094 157.105469 161.148438 158.25 161.351562 159.367188 C 163.503906 171.285156 158.945312 184.613281 149.449219 194.152344 C 140.894531 202.753906 128.445312 208.457031 114.394531 210.21875 C 98.164062 212.246094 81.363281 208.988281 67.074219 201.03125 C 52.78125 193.074219 41.160156 180.507812 34.34375 165.640625 Z M 69.023438 214.195312 L 80.28125 279.925781 L 12.996094 280.3125 C 23.746094 253.007812 43.851562 229.273438 69.023438 214.195312 Z M 126.632812 279.65625 C 126.667969 279.546875 126.707031 279.445312 126.726562 279.328125 L 139.015625 215.234375 C 163.648438 230.296875 183.167969 252.765625 194.609375 279.265625 Z M 126.632812 279.65625 " style=" stroke:none;fill-rule:nonzero;fill:rgb(0%,0%,0%);fill-opacity:1;" />
<path d="M 26.21875 147.042969 C 23.363281 145.371094 19.617188 145.707031 17.101562 147.859375 C 16.253906 148.585938 16.15625 149.859375 16.882812 150.707031 C 17.609375 151.554688 18.886719 151.652344 19.730469 150.925781 C 20.917969 149.910156 22.832031 149.742188 24.179688 150.527344 C 24.96875 150.992188 25.566406 151.785156 25.863281 152.671875 C 23.9375 152.738281 22.035156 153.511719 20.652344 154.886719 C 19.863281 155.671875 19.859375 156.949219 20.648438 157.742188 C 21.042969 158.140625 21.558594 158.339844 22.078125 158.339844 C 22.59375 158.339844 23.109375 158.140625 23.503906 157.75 C 24.464844 156.792969 26.03125 156.445312 27.308594 156.902344 C 27.859375 157.097656 28.472656 157.046875 28.980469 156.757812 C 29.492188 156.46875 29.851562 155.972656 29.96875 155.394531 C 30.617188 152.148438 29.074219 148.714844 26.21875 147.042969 Z M 26.21875 147.042969 " style=" stroke:none;fill-rule:nonzero;fill:rgb(0%,0%,0%);fill-opacity:1;" />
<path d="M 170.832031 151.050781 C 170.984375 151.050781 171.140625 151.03125 171.292969 150.996094 L 181.445312 148.613281 C 182.53125 148.359375 183.203125 147.273438 182.949219 146.1875 C 182.695312 145.101562 181.605469 144.425781 180.523438 144.679688 L 175.355469 145.894531 C 176.949219 144.175781 178.921875 142.8125 181.109375 141.960938 C 182.148438 141.554688 182.660156 140.382812 182.253906 139.34375 C 181.847656 138.304688 180.675781 137.792969 179.640625 138.195312 C 174.988281 140.015625 171.113281 143.652344 169.003906 148.175781 C 168.675781 148.878906 168.777344 149.703125 169.265625 150.304688 C 169.652344 150.78125 170.234375 151.050781 170.832031 151.050781 Z M 170.832031 151.050781 " style=" stroke:none;fill-rule:nonzero;fill:rgb(0%,0%,0%);fill-opacity:1;" />
<path d="M 328.160156 357.386719 C 325.292969 355.554688 321.910156 354.964844 318.878906 355.773438 C 317.800781 356.058594 317.160156 357.164062 317.445312 358.242188 C 317.734375 359.320312 318.84375 359.960938 319.917969 359.675781 C 321.859375 359.160156 324.070312 359.566406 325.984375 360.789062 C 326.878906 361.363281 327.640625 362.070312 328.230469 362.863281 C 328.207031 362.863281 328.1875 362.863281 328.164062 362.863281 C 324.425781 362.863281 320.714844 364.601562 318.445312 367.660156 C 317.78125 368.558594 317.96875 369.820312 318.863281 370.488281 C 319.226562 370.753906 319.648438 370.882812 320.066406 370.882812 C 320.683594 370.882812 321.292969 370.601562 321.6875 370.066406 C 323.714844 367.339844 327.640625 366.179688 330.820312 367.375 C 331.5 367.628906 332.261719 367.5 332.820312 367.039062 C 333.378906 366.574219 333.644531 365.851562 333.519531 365.136719 C 332.980469 362.046875 331.027344 359.222656 328.160156 357.386719 Z M 328.160156 357.386719 " style=" stroke:none;fill-rule:nonzero;fill:rgb(0%,0%,0%);fill-opacity:1;" />
<path d="M 457.691406 374.324219 C 457.992188 374.488281 458.320312 374.566406 458.648438 374.566406 C 459.082031 374.566406 459.511719 374.429688 459.871094 374.15625 C 462.953125 371.820312 467.0625 370.851562 470.867188 371.5625 C 471.960938 371.765625 473.019531 371.050781 473.222656 369.953125 C 473.429688 368.855469 472.707031 367.800781 471.613281 367.59375 C 468.1875 366.949219 464.566406 367.363281 461.339844 368.699219 C 462.253906 365.378906 464 362.261719 466.382812 359.800781 C 466.917969 359.246094 467.621094 358.59375 468.304688 358.429688 C 468.601562 358.363281 468.914062 358.460938 468.996094 358.539062 C 469.441406 359.550781 470.613281 360.023438 471.636719 359.589844 C 472.664062 359.15625 473.144531 357.972656 472.707031 356.945312 C 471.898438 355.027344 469.609375 353.976562 467.382812 354.496094 C 465.671875 354.898438 464.398438 356.039062 463.480469 356.988281 C 459.507812 361.09375 457.011719 366.714844 456.632812 372.410156 C 456.582031 373.203125 456.996094 373.949219 457.691406 374.324219 Z M 457.691406 374.324219 " style=" stroke:none;fill-rule:nonzero;fill:rgb(0%,0%,0%);fill-opacity:1;" />
<path d="M 503.914062 507.566406 C 499.976562 474.152344 478.140625 443.304688 448.03125 428.324219 C 457.109375 418.378906 461.988281 405.308594 460.734375 392.90625 C 469.453125 393.28125 478.199219 389.367188 483.605469 382.386719 C 490.074219 374.027344 491.070312 362.148438 486.082031 352.828125 C 483.976562 348.898438 480.902344 345.601562 477.257812 343.15625 C 486.960938 331.621094 490.039062 314.636719 484.863281 300.476562 C 483.636719 297.125 482.023438 294.003906 480.464844 290.984375 C 479.355469 288.835938 478.304688 286.800781 477.386719 284.699219 C 476.585938 282.859375 475.890625 280.980469 475.15625 278.992188 C 473.839844 275.4375 472.480469 271.765625 470.457031 268.3125 C 465.164062 259.289062 456.347656 253.414062 448.566406 248.230469 C 439.820312 242.402344 429.910156 235.800781 418.320312 234.152344 C 410.277344 233.007812 402.371094 234.398438 394.726562 235.738281 C 388.363281 236.859375 382.351562 237.917969 376.34375 237.605469 C 373.914062 237.480469 371.496094 237.128906 368.9375 236.761719 C 366.261719 236.375 363.496094 235.976562 360.664062 235.84375 C 353.488281 235.515625 347.503906 237.214844 343.363281 240.773438 C 337.9375 245.4375 336.441406 252.09375 334.992188 258.53125 C 334.269531 261.734375 333.589844 264.765625 332.457031 267.46875 C 330.542969 272.023438 327.203125 275.882812 323.664062 279.96875 C 321.402344 282.578125 319.0625 285.28125 317.046875 288.253906 C 306.628906 303.609375 306.835938 324.914062 317.183594 340.191406 C 313.984375 341.421875 311.085938 343.164062 308.667969 345.347656 C 300.683594 352.570312 298.207031 364.785156 302.902344 373.761719 C 305.449219 378.628906 310.140625 382.3125 315.769531 383.867188 C 318.785156 384.699219 321.792969 384.84375 324.613281 384.324219 C 324.273438 396.628906 329.167969 409.503906 338.285156 419.742188 C 341.578125 423.4375 345.363281 426.792969 349.617188 429.800781 C 334.523438 434.902344 320.734375 444.011719 310.210938 455.957031 C 298.019531 469.800781 290.148438 487.519531 288.050781 505.847656 C 287.9375 506.828125 288.242188 507.8125 288.886719 508.558594 C 289.535156 509.308594 290.464844 509.75 291.453125 509.78125 C 338.746094 511.261719 386.488281 512.003906 434.074219 512.003906 C 456.253906 512.003906 478.40625 511.839844 500.453125 511.519531 C 501.453125 511.503906 502.402344 511.066406 503.0625 510.3125 C 503.71875 509.558594 504.027344 508.5625 503.914062 507.566406 Z M 354.457031 435.675781 C 362.296875 452.527344 380.367188 464.066406 398.957031 464.066406 C 399.238281 464.066406 399.519531 464.0625 399.800781 464.058594 C 418.609375 463.703125 436.589844 451.480469 443.953125 434.195312 C 447.449219 435.886719 450.832031 437.804688 454.078125 439.925781 C 445.265625 460.558594 423.035156 475.214844 400.609375 474.925781 C 377.929688 474.660156 355.855469 459.195312 347.730469 438.027344 C 349.941406 437.148438 352.183594 436.359375 354.457031 435.675781 Z M 375.09375 441.984375 C 384.625 444.941406 394 446.410156 402.894531 446.410156 C 414.179688 446.410156 424.683594 444.042969 433.738281 439.339844 C 435.289062 438.53125 436.785156 437.644531 438.230469 436.695312 C 430.566406 450.371094 415.460938 459.722656 399.722656 460.019531 C 382.871094 460.347656 366.4375 450.300781 358.804688 435.371094 C 363.765625 437.945312 369.199219 440.15625 375.09375 441.984375 Z M 322.898438 292.21875 C 324.679688 289.59375 326.78125 287.164062 329.007812 284.59375 C 332.753906 280.269531 336.625 275.796875 338.976562 270.199219 C 340.351562 266.921875 341.132812 263.445312 341.890625 260.078125 C 343.140625 254.523438 344.320312 249.273438 347.96875 246.132812 C 351.441406 243.148438 356.613281 242.738281 360.335938 242.902344 C 362.824219 243.019531 365.300781 243.378906 367.925781 243.757812 C 370.53125 244.132812 373.226562 244.519531 375.976562 244.660156 C 382.789062 245.011719 389.480469 243.835938 395.949219 242.699219 C 403.375 241.394531 410.394531 240.164062 417.324219 241.148438 C 427.324219 242.570312 436.527344 248.703125 444.648438 254.113281 C 451.789062 258.871094 459.886719 264.269531 464.359375 271.886719 C 466.066406 274.800781 467.257812 278.027344 468.523438 281.445312 C 469.261719 283.4375 470.023438 285.5 470.90625 287.523438 C 471.914062 289.839844 473.066406 292.070312 474.183594 294.230469 C 475.710938 297.183594 477.152344 299.972656 478.222656 302.902344 C 482.660156 315.050781 479.859375 329.695312 471.242188 339.34375 C 471.074219 339.535156 470.929688 339.738281 470.808594 339.953125 C 468.90625 339.296875 466.9375 338.832031 464.925781 338.601562 C 469.324219 318.261719 461.132812 294.835938 444.058594 280.171875 C 422.792969 261.910156 390.765625 258.539062 366.164062 271.980469 C 354.058594 278.589844 343.886719 289.441406 337.523438 302.527344 C 334.390625 308.976562 332.253906 315.765625 331.167969 322.714844 C 330.917969 324.316406 330.96875 326.453125 331.03125 328.929688 C 331.097656 331.5625 331.226562 336.949219 330.40625 338.421875 C 329.550781 338.679688 327.3125 338.667969 326.070312 338.660156 C 325.640625 338.65625 325.214844 338.652344 324.796875 338.65625 C 324.765625 338.605469 324.742188 338.554688 324.703125 338.507812 C 314.46875 325.695312 313.691406 305.792969 322.898438 292.21875 Z M 343.566406 415.035156 C 334.402344 404.75 330.136719 391.519531 332.15625 379.648438 C 332.386719 378.28125 331.796875 376.90625 330.648438 376.128906 C 330.050781 375.726562 329.363281 375.523438 328.671875 375.523438 C 328.03125 375.523438 327.390625 375.695312 326.824219 376.042969 C 324.257812 377.617188 321 377.972656 317.652344 377.050781 C 313.957031 376.03125 310.785156 373.574219 309.167969 370.484375 C 305.96875 364.371094 307.835938 355.632812 313.410156 350.589844 C 315.902344 348.339844 319.121094 346.699219 322.730469 345.855469 C 323.339844 345.710938 324.832031 345.71875 326.03125 345.726562 C 329.300781 345.742188 332.671875 345.765625 334.902344 343.929688 C 338.402344 341.050781 338.25 334.800781 338.101562 328.753906 C 338.050781 326.800781 338.003906 324.777344 338.15625 323.800781 C 339.132812 317.550781 341.058594 311.433594 343.886719 305.617188 C 349.609375 293.839844 358.726562 284.097656 369.558594 278.179688 C 391.277344 266.320312 420.675781 269.410156 439.457031 285.53125 C 455.714844 299.496094 462.929688 322.285156 457 340.953125 C 456.644531 342.070312 456.863281 343.289062 457.589844 344.210938 C 458.316406 345.132812 459.453125 345.636719 460.617188 345.550781 C 468.316406 345.011719 476.214844 349.367188 479.851562 356.164062 C 483.488281 362.960938 482.734375 371.960938 478.015625 378.054688 C 473.296875 384.152344 464.769531 387.140625 457.28125 385.316406 C 456.082031 385.027344 454.820312 385.382812 453.949219 386.253906 C 453.078125 387.125 452.722656 388.386719 453.015625 389.585938 C 456.917969 405.671875 447.230469 424.359375 430.480469 433.0625 C 415.949219 440.613281 397.023438 441.382812 377.1875 435.230469 C 362.855469 430.785156 351.542969 423.992188 343.566406 415.035156 Z M 295.601562 502.835938 C 298.128906 487.300781 305.121094 472.4375 315.519531 460.628906 C 323.363281 451.71875 333.183594 444.523438 344.011719 439.601562 C 352.75 462.191406 376.332031 478.679688 400.5625 478.964844 C 400.777344 478.96875 400.988281 478.96875 401.203125 478.96875 C 424.742188 478.96875 447.914062 463.746094 457.472656 442.253906 C 477.808594 456.890625 492.304688 479.765625 496.347656 504.503906 C 429.71875 505.421875 362.222656 504.859375 295.601562 502.835938 Z M 295.601562 502.835938 " style=" stroke:none;fill-rule:nonzero;fill:rgb(0%,0%,0%);fill-opacity:1;" />
<path d="M 307.171875 178.453125 C 337.363281 185.140625 368.265625 187.089844 399.074219 184.242188 C 428.832031 181.496094 449.789062 174.117188 465.035156 161.019531 C 481.238281 147.097656 490.652344 126.035156 490.214844 104.675781 C 489.238281 56.914062 448.691406 27.429688 411.070312 15.765625 C 372.5625 3.820312 330.304688 3.230469 295.128906 14.148438 C 274.601562 20.515625 256.863281 30.5625 242.398438 44.003906 C 238.75 47.394531 235.367188 51.015625 232.34375 54.769531 C 215.234375 76.003906 208.832031 103.671875 215.625 126.976562 C 222.90625 151.949219 245.722656 170.242188 269.703125 170.945312 C 269.015625 185.648438 265.28125 200.289062 258.820312 213.496094 C 258.179688 214.8125 258.410156 216.382812 259.402344 217.453125 C 260.085938 218.191406 261.03125 218.585938 261.996094 218.585938 C 262.433594 218.585938 262.878906 218.503906 263.300781 218.335938 C 282.085938 210.867188 297.933594 196.417969 307.171875 178.453125 Z M 269 207.855469 C 274 194.996094 276.703125 181.191406 276.875 167.425781 C 276.886719 166.449219 276.496094 165.511719 275.792969 164.835938 C 275.132812 164.199219 274.253906 163.84375 273.339844 163.84375 C 273.285156 163.84375 273.226562 163.847656 273.167969 163.847656 C 251.363281 164.941406 229.074219 147.855469 222.410156 124.996094 C 216.253906 103.878906 222.167969 78.664062 237.847656 59.203125 C 240.65625 55.714844 243.808594 52.339844 247.210938 49.179688 C 260.890625 36.46875 277.71875 26.949219 297.226562 20.898438 C 331.066406 10.394531 371.800781 10.984375 408.976562 22.515625 C 444.242188 33.449219 482.246094 60.816406 483.148438 104.820312 C 483.542969 124.089844 475.046875 143.09375 460.425781 155.65625 C 446.351562 167.75 426.648438 174.597656 398.421875 177.203125 C 367.433594 180.066406 336.351562 177.960938 306.03125 170.945312 C 304.410156 170.578125 302.746094 171.378906 302.035156 172.882812 C 295.085938 187.65625 283.300781 200.035156 269 207.855469 Z M 269 207.855469 " style=" stroke:none;fill-rule:nonzero;fill:rgb(0%,0%,0%);fill-opacity:1;" />
<path d="M 257.164062 350.363281 C 240.925781 314.210938 192.515625 308.164062 178.0625 307.175781 C 160.59375 305.980469 142.652344 309.027344 126.171875 315.996094 C 102.53125 325.996094 82.71875 343.597656 70.382812 365.5625 C 61.824219 380.800781 58.125 396.164062 59.695312 409.988281 C 62.019531 430.496094 76.269531 449.5625 96.878906 459.742188 C 110.566406 466.503906 124.902344 468.671875 137.65625 468.671875 C 145.515625 468.671875 152.777344 467.847656 158.90625 466.773438 C 185.214844 462.152344 210.339844 449.640625 229.921875 431.460938 L 255.808594 443.226562 C 257.191406 443.851562 258.820312 443.527344 259.859375 442.414062 C 260.894531 441.304688 261.105469 439.65625 260.378906 438.320312 L 248.035156 415.574219 C 262.835938 397.871094 266.632812 371.441406 257.164062 350.363281 Z M 241.148438 412.714844 C 240.128906 413.824219 239.929688 415.460938 240.648438 416.785156 L 249.132812 432.425781 L 230.683594 424.039062 C 229.363281 423.441406 227.8125 423.707031 226.769531 424.710938 C 207.949219 442.824219 183.414062 455.289062 157.683594 459.808594 C 142.632812 462.453125 120.414062 463.484375 100.007812 453.40625 C 81.527344 444.28125 68.773438 427.339844 66.714844 409.191406 C 65.316406 396.851562 68.714844 382.960938 76.542969 369.023438 C 88.117188 348.417969 106.714844 331.902344 128.921875 322.507812 C 144.382812 315.96875 161.203125 313.109375 177.578125 314.230469 C 230.8125 317.878906 247.015625 345.027344 250.714844 353.261719 C 259.410156 372.617188 255.476562 397.0625 241.148438 412.714844 Z M 241.148438 412.714844 " style=" stroke:none;fill-rule:nonzero;fill:rgb(0%,0%,0%);fill-opacity:1;" />
<path d="M 378.875 131.78125 C 379.875 130.835938 380.851562 129.863281 381.773438 128.839844 C 395.710938 113.292969 399.320312 89.199219 390.550781 70.253906 C 384.992188 58.238281 373.660156 47.742188 360.230469 42.167969 C 351.191406 38.414062 341.613281 37.601562 333.261719 39.871094 C 314.789062 44.890625 302.882812 63.386719 298.625 71.105469 C 289.828125 87.046875 288.980469 105.929688 296.40625 120.386719 C 301.976562 131.226562 312.210938 139.808594 324.488281 143.9375 C 329.804688 145.726562 335.390625 146.585938 340.988281 146.585938 C 352.183594 146.582031 363.421875 143.132812 372.648438 136.804688 L 377.875 142.925781 C 378.667969 143.851562 379.789062 144.328125 380.917969 144.328125 C 381.839844 144.328125 382.761719 144.011719 383.515625 143.367188 C 385.195312 141.933594 385.394531 139.410156 383.957031 137.730469 Z M 327.039062 136.355469 C 316.722656 132.886719 308.152344 125.734375 303.523438 116.730469 C 297.296875 104.613281 298.105469 88.613281 305.628906 74.972656 C 313.476562 60.753906 324.589844 50.515625 335.363281 47.589844 C 337.78125 46.933594 340.347656 46.605469 342.992188 46.605469 C 347.605469 46.605469 352.453125 47.601562 357.164062 49.558594 C 368.789062 54.382812 378.554688 63.371094 383.292969 73.613281 C 390.757812 89.746094 387.683594 110.261719 375.816406 123.5 C 375.132812 124.261719 374.417969 124.992188 373.683594 125.703125 L 366.675781 117.496094 C 365.238281 115.816406 362.714844 115.621094 361.035156 117.054688 C 359.355469 118.492188 359.15625 121.015625 360.59375 122.695312 L 367.433594 130.703125 C 355.726562 138.457031 340.378906 140.839844 327.039062 136.355469 Z M 327.039062 136.355469 " style=" stroke:none;fill-rule:nonzero;fill:rgb(0%,0%,0%);fill-opacity:1;" />
<path d="M 166.589844 342.039062 C 162.960938 333.417969 157.917969 332.914062 155.234375 333.386719 C 149.632812 334.363281 147.835938 340.527344 147.246094 342.554688 L 121.582031 430.714844 C 120.964844 432.835938 122.1875 435.058594 124.308594 435.675781 C 124.679688 435.78125 125.054688 435.835938 125.425781 435.835938 C 127.160156 435.835938 128.757812 434.699219 129.265625 432.949219 L 140.808594 393.296875 L 177.957031 389.691406 L 192.441406 424.117188 C 193.296875 426.152344 195.640625 427.109375 197.679688 426.253906 C 199.714844 425.394531 200.671875 423.050781 199.816406 421.015625 Z M 143.214844 385.027344 L 154.925781 344.789062 C 155.835938 341.660156 156.582031 341.277344 156.578125 341.261719 C 156.820312 341.328125 157.96875 342.179688 159.214844 345.144531 L 174.710938 381.96875 Z M 143.214844 385.027344 " style=" stroke:none;fill-rule:nonzero;fill:rgb(0%,0%,0%);fill-opacity:1;" />
</g>
</svg>