<svg width="30" viewBox="0 0 159 122" fill="none" xmlns="http://www.w3.org/2000/svg">
<path d="M154.444 34.0961L117.416 71.1299L82.2382 106.308L71.0042 117.542C66.1867 122.354 56.5619 122.354 51.7496 117.542L3.61045 69.4027C0.499572 66.2919 -0.602304 61.1715 0.309946 56.6461C0.801946 54.1605 1.90382 51.8496 3.61045 50.143L14.8444 38.9141C19.6517 34.0966 29.2816 34.0966 34.0991 38.9141L61.3794 66.194L98.8329 28.7354L115.756 11.808L123.956 3.61312C128.773 -1.20437 138.403 -1.20437 143.21 3.61312L154.444 14.842C155.756 16.1586 156.715 17.8299 157.309 19.6641C158.903 24.5534 157.945 30.5957 154.444 34.0961Z" fill="#FFAF2C"/>
</svg>
